<svg width="24" height="24" viewBox="0 0 24 24" fill="none" xmlns="http://www.w3.org/2000/svg">
<g clip-path="url(#clip0_802_86509)">
<path d="M4.91001 4.94922C3.04352 6.82077 1.99679 9.35703 2.00001 12.0002C2.00001 17.5232 6.47701 22.0002 12 22.0002C14.6427 22.0034 17.1785 20.9571 19.05 19.0912" stroke="black" stroke-width="2" stroke-linecap="round" stroke-linejoin="round"/>
<path d="M20.7772 16.793C21.5813 15.3236 22.0016 13.675 21.9992 12C21.9992 6.477 17.5222 2 11.9992 2C10.2592 2 8.62322 2.444 7.19922 3.225" stroke="black" stroke-width="2" stroke-linecap="round" stroke-linejoin="round"/>
<path d="M7 15.0004V10.5004C6.99993 10.2478 7.06366 9.99925 7.18529 9.77782C7.30692 9.5564 7.48251 9.36928 7.69576 9.23383C7.90901 9.09837 8.15302 9.01898 8.40515 9.003C8.65728 8.98703 8.90936 9.03499 9.138 9.14245" stroke="black" stroke-width="2" stroke-linecap="round" stroke-linejoin="round"/>
<path d="M9.85547 9.85156C9.94947 10.0476 10.0015 10.2666 10.0015 10.4986V14.9986" stroke="black" stroke-width="2" stroke-linecap="round" stroke-linejoin="round"/>
<path d="M7 13H10" stroke="black" stroke-width="2" stroke-linecap="round" stroke-linejoin="round"/>
<path d="M14 14V15H15" stroke="black" stroke-width="2" stroke-linecap="round" stroke-linejoin="round"/>
<path d="M17 13V11C17 10.4696 16.7893 9.96086 16.4142 9.58579C16.0391 9.21071 15.5304 9 15 9H14V10" stroke="black" stroke-width="2" stroke-linecap="round" stroke-linejoin="round"/>
<path d="M3 3L21 21" stroke="black" stroke-width="2" stroke-linecap="round" stroke-linejoin="round"/>
</g>
<defs>
<clipPath id="clip0_802_86509">
<rect width="24" height="24" fill="white"/>
</clipPath>
</defs>
</svg>
