<svg width="24" height="24" viewBox="0 0 24 24" fill="none" xmlns="http://www.w3.org/2000/svg">
<g clip-path="url(#clip0_802_59221)">
<path d="M11.999 2L12.641 2.005L13.257 2.022L13.556 2.035L14.135 2.069L14.688 2.115C19.375 2.57 21.338 4.448 21.854 9.021L21.884 9.311L21.93 9.864L21.971 10.591L21.977 10.741L21.994 11.358L21.999 12L21.994 12.642L21.977 13.258L21.964 13.557L21.93 14.136L21.884 14.689C21.429 19.376 19.551 21.339 14.978 21.855L14.688 21.885L14.135 21.931L13.408 21.972L13.258 21.978L12.641 21.995L11.999 22L11.357 21.995L10.741 21.978L10.442 21.965L9.863 21.931L9.31 21.885C4.623 21.43 2.66 19.552 2.144 14.979L2.114 14.689L2.068 14.136L2.027 13.409L2.021 13.259L2.004 12.642L2 12.324V11.676L2.004 11.358L2.021 10.742L2.034 10.443L2.068 9.864L2.114 9.311C2.569 4.624 4.447 2.661 9.02 2.145L9.31 2.115L9.863 2.069L10.59 2.028L10.74 2.022L11.357 2.005C11.567 2.002 11.781 2 11.999 2ZM12.009 15L11.882 15.007C11.639 15.0359 11.4149 15.153 11.2524 15.336C11.0899 15.519 11.0001 15.7552 11.0001 16C11.0001 16.2448 11.0899 16.481 11.2524 16.664C11.4149 16.847 11.639 16.9641 11.882 16.993L11.999 17L12.126 16.993C12.369 16.9641 12.5931 16.847 12.7556 16.664C12.9181 16.481 13.0079 16.2448 13.0079 16C13.0079 15.7552 12.9181 15.519 12.7556 15.336C12.5931 15.153 12.369 15.0359 12.126 15.007L12.009 15ZM11.999 7C11.7541 7.00003 11.5177 7.08996 11.3346 7.25272C11.1516 7.41547 11.0347 7.63975 11.006 7.883L10.999 8V12L11.006 12.117C11.0349 12.36 11.152 12.5841 11.335 12.7466C11.518 12.9091 11.7542 12.9989 11.999 12.9989C12.2438 12.9989 12.48 12.9091 12.663 12.7466C12.846 12.5841 12.9631 12.36 12.992 12.117L12.999 12V8L12.992 7.883C12.9633 7.63975 12.8464 7.41547 12.6634 7.25272C12.4803 7.08996 12.2439 7.00003 11.999 7Z" fill="black"/>
</g>
<defs>
<clipPath id="clip0_802_59221">
<rect width="24" height="24" fill="white"/>
</clipPath>
</defs>
</svg>
