<svg width="24" height="24" viewBox="0 0 24 24" fill="none" xmlns="http://www.w3.org/2000/svg">
<g clip-path="url(#clip0_802_59212)">
<path d="M12.0059 2C16.9479 2 20.2939 4.503 20.8559 8.444C21.3547 11.7092 20.5804 15.0413 18.6929 17.752C17.7683 19.102 16.573 20.2449 15.1829 21.108C13.2009 22.298 10.8069 22.298 8.80985 21.1C7.42834 20.24 6.2403 19.1027 5.32085 17.76C3.42377 15.0542 2.64591 11.7199 3.14985 8.454C3.71385 4.504 7.05985 2 12.0059 2ZM13.9189 16.6C13.8664 16.4795 13.7907 16.3706 13.6961 16.2794C13.6015 16.1882 13.4898 16.1166 13.3675 16.0686C13.2452 16.0206 13.1146 15.9971 12.9832 15.9996C12.8519 16.0021 12.7223 16.0304 12.6019 16.083L12.4559 16.138C12.1095 16.248 11.7349 16.2284 11.4019 16.083L11.2919 16.043C11.0474 15.9679 10.7835 15.9894 10.5543 16.1029C10.3252 16.2164 10.1482 16.4134 10.0599 16.6534C9.97153 16.8934 9.97847 17.1581 10.0793 17.3931C10.1801 17.6281 10.3671 17.8156 10.6019 17.917C11.0434 18.1097 11.52 18.2092 12.0019 18.2092C12.4837 18.2092 12.9603 18.1097 13.4019 17.917C13.5223 17.8645 13.6312 17.7888 13.7224 17.6942C13.8136 17.5996 13.8853 17.488 13.9333 17.3656C13.9813 17.2433 14.0047 17.1128 14.0023 16.9814C13.9998 16.85 13.9714 16.7204 13.9189 16.6ZM8.61485 10.21C8.41386 10.0546 8.16125 9.98151 7.90833 10.0056C7.6554 10.0297 7.42113 10.1492 7.2531 10.3397C7.08507 10.5303 6.99587 10.7777 7.00362 11.0316C7.01138 11.2856 7.1155 11.527 7.29485 11.707L9.29485 13.707L9.38885 13.79C9.58984 13.9454 9.84246 14.0185 10.0954 13.9944C10.3483 13.9703 10.5826 13.8508 10.7506 13.6603C10.9186 13.4697 11.0078 13.2223 11.0001 12.9684C10.9923 12.7144 10.8882 12.473 10.7089 12.293L8.70885 10.293L8.61485 10.21ZM16.7089 10.293C16.5213 10.1055 16.267 10.0002 16.0019 10.0002C15.7367 10.0002 15.4824 10.1055 15.2949 10.293L13.2949 12.293L13.2119 12.387C13.0564 12.588 12.9834 12.8406 13.0075 13.0935C13.0315 13.3464 13.151 13.5807 13.3416 13.7488C13.5321 13.9168 13.7795 14.006 14.0335 13.9982C14.2874 13.9905 14.5289 13.8863 14.7089 13.707L16.7089 11.707L16.7919 11.613C16.9411 11.4206 17.015 11.1803 16.9997 10.9373C16.9845 10.6943 16.881 10.4652 16.7089 10.293Z" fill="black"/>
</g>
<defs>
<clipPath id="clip0_802_59212">
<rect width="24" height="24" fill="white"/>
</clipPath>
</defs>
</svg>
