<svg width="24" height="24" viewBox="0 0 24 24" fill="none" xmlns="http://www.w3.org/2000/svg">
<g clip-path="url(#clip0_802_59168)">
<path d="M4.98957 12.8625C5.17308 14.1852 5.72586 15.4293 6.58446 16.452C7.44305 17.4747 8.57265 18.2345 9.84356 18.6443C11.1145 19.054 12.4752 19.0971 13.7694 18.7685C15.0637 18.4399 16.2391 17.7529 17.1606 16.7865C17.0731 16.5845 17.0204 16.3691 17.0046 16.1495L16.9996 16.0005L17.0046 15.8505C17.0344 15.4529 17.1825 15.0732 17.4298 14.7603C17.677 14.4474 18.0122 14.2155 18.3922 14.0945C18.7722 13.9735 19.1797 13.9689 19.5623 14.0812C19.945 14.1936 20.2853 14.4177 20.5396 14.7249C20.7939 15.0321 20.9505 15.4084 20.9894 15.8053C21.0283 16.2022 20.9477 16.6016 20.7578 16.9523C20.568 17.303 20.2776 17.589 19.9241 17.7735C19.5705 17.9579 19.1698 18.0325 18.7736 17.9875C17.6123 19.2727 16.1084 20.1997 14.4385 20.6597C12.7686 21.1197 11.0021 21.0934 9.34663 20.5841C7.69112 20.0747 6.21539 19.1035 5.09283 17.7844C3.97028 16.4653 3.24755 14.8532 3.00957 13.1375C2.98197 12.8792 3.05595 12.6203 3.21586 12.4156C3.37577 12.2109 3.60905 12.0765 3.86634 12.0408C4.12363 12.005 4.38473 12.0708 4.59437 12.2242C4.80401 12.3776 4.94574 12.6065 4.98957 12.8625Z" fill="black"/>
<path d="M12 8C12.7826 8 13.548 8.22958 14.2014 8.66029C14.8549 9.09101 15.3676 9.70394 15.6761 10.4232C15.9846 11.1424 16.0753 11.9363 15.9371 12.7066C15.7988 13.4769 15.4376 14.1898 14.8983 14.7568C14.3589 15.3239 13.665 15.7202 12.9026 15.8968C12.1402 16.0734 11.3427 16.0225 10.6089 15.7503C9.87519 15.4782 9.23739 14.9967 8.77454 14.3657C8.31169 13.7346 8.04413 12.9816 8.005 12.2L8 12L8.005 11.8C8.05631 10.775 8.4996 9.80901 9.24319 9.10172C9.98677 8.39444 10.9738 8 12 8Z" fill="black"/>
<path d="M13.142 3.09156C15.1214 3.34714 16.9619 4.24636 18.38 5.65074C19.7981 7.05511 20.7152 8.88675 20.99 10.8636C21.0184 11.1222 20.9448 11.3816 20.785 11.5869C20.6252 11.7922 20.3917 11.9271 20.134 11.963C19.8764 11.9989 19.6148 11.933 19.405 11.7793C19.1951 11.6255 19.0534 11.3961 19.01 11.1396C18.7955 9.59692 18.0797 8.16761 16.9729 7.07183C15.8661 5.97605 14.4297 5.2746 12.885 5.07556C11.78 4.93171 10.6566 5.05013 9.60589 5.42122C8.55515 5.79231 7.60658 6.40565 6.837 7.21156C6.95218 7.47854 7.00776 7.76742 6.99987 8.05808C6.99198 8.34874 6.92081 8.63418 6.79132 8.89452C6.66183 9.15486 6.47713 9.38383 6.25009 9.56548C6.02305 9.74714 5.75913 9.8771 5.47673 9.94632C5.19432 10.0155 4.90022 10.0223 4.61491 9.96628C4.32961 9.9102 4.05996 9.79259 3.82475 9.62164C3.58955 9.4507 3.39445 9.23052 3.25304 8.97645C3.11164 8.72239 3.02733 8.44054 3.006 8.15056L3 8.00156L3.005 7.85156C3.02511 7.58359 3.09902 7.32242 3.22231 7.08365C3.3456 6.84488 3.51574 6.6334 3.72258 6.46185C3.92941 6.29029 4.1687 6.16218 4.42615 6.08516C4.6836 6.00814 4.95393 5.98379 5.221 6.01356C6.2067 4.92241 7.44229 4.08656 8.82186 3.57764C10.2014 3.06873 11.6838 2.90194 13.142 3.09156Z" fill="black"/>
</g>
<defs>
<clipPath id="clip0_802_59168">
<rect width="24" height="24" fill="white"/>
</clipPath>
</defs>
</svg>
