<svg width="24" height="24" viewBox="0 0 24 24" fill="none" xmlns="http://www.w3.org/2000/svg">
<g clip-path="url(#clip0_802_85446)">
<path d="M15.536 8.46484L6 18.0008" stroke="black" stroke-width="2" stroke-linecap="round" stroke-linejoin="round"/>
<path d="M6 14V18H10" stroke="black" stroke-width="2" stroke-linecap="round" stroke-linejoin="round"/>
<path d="M15.5849 8.41286C15.7694 8.60388 15.99 8.75625 16.2341 8.86106C16.4781 8.96588 16.7405 9.02105 17.0061 9.02336C17.2716 9.02567 17.535 8.97507 17.7808 8.8745C18.0266 8.77394 18.2499 8.62544 18.4377 8.43765C18.6254 8.24987 18.7739 8.02656 18.8745 7.78077C18.9751 7.53498 19.0257 7.27162 19.0234 7.00606C19.0211 6.7405 18.9659 6.47806 18.8611 6.23405C18.7562 5.99004 18.6039 5.76935 18.4129 5.58486C18.0357 5.22054 17.5305 5.01896 17.0061 5.02351C16.4817 5.02807 15.98 5.23841 15.6092 5.60922C15.2384 5.98004 15.0281 6.48166 15.0235 7.00606C15.019 7.53045 15.2205 8.03566 15.5849 8.41286Z" stroke="black" stroke-width="2" stroke-linecap="round" stroke-linejoin="round"/>
</g>
<defs>
<clipPath id="clip0_802_85446">
<rect width="24" height="24" fill="white"/>
</clipPath>
</defs>
</svg>
