<svg width="24" height="24" viewBox="0 0 24 24" fill="none" xmlns="http://www.w3.org/2000/svg">
<g clip-path="url(#clip0_802_59116)">
<path d="M9.58564 3.99964L2.99964 10.5856C2.62469 10.9607 2.41406 11.4693 2.41406 11.9996C2.41406 12.53 2.62469 13.0386 2.99964 13.4136L9.58564 19.9996C9.86533 20.2795 10.2217 20.4701 10.6098 20.5474C10.9978 20.6246 11.4001 20.585 11.7656 20.4336L11.9106 20.3656C12.2384 20.1979 12.5135 19.943 12.7057 19.6289C12.8978 19.3148 12.9995 18.9538 12.9996 18.5856V15.9996H14.9996C15.2649 15.9996 15.5192 15.8943 15.7067 15.7067C15.8943 15.5192 15.9996 15.2649 15.9996 14.9996V8.99964L15.9926 8.88264C15.964 8.63939 15.847 8.41511 15.664 8.25235C15.481 8.08959 15.2446 7.99967 14.9996 7.99964L12.9996 7.99864V5.41364C12.9996 5.01814 12.8822 4.63154 12.6624 4.30272C12.4427 3.9739 12.1303 3.71762 11.7649 3.56628C11.3995 3.41494 10.9975 3.37533 10.6096 3.45247C10.2217 3.5296 9.86534 3.72002 9.58564 3.99964Z" fill="black"/>
<path d="M21 8C21.2449 8.00003 21.4813 8.08996 21.6644 8.25272C21.8474 8.41547 21.9643 8.63975 21.993 8.883L22 9V15C21.9997 15.2549 21.9021 15.5 21.7272 15.6854C21.5522 15.8707 21.313 15.9822 21.0586 15.9972C20.8042 16.0121 20.5536 15.9293 20.3582 15.7657C20.1627 15.6021 20.0371 15.3701 20.007 15.117L20 15V9C20 8.73478 20.1054 8.48043 20.2929 8.29289C20.4804 8.10536 20.7348 8 21 8Z" fill="black"/>
<path d="M18 8C18.2449 8.00003 18.4813 8.08996 18.6644 8.25272C18.8474 8.41547 18.9643 8.63975 18.993 8.883L19 9V15C18.9997 15.2549 18.9021 15.5 18.7272 15.6854C18.5522 15.8707 18.313 15.9822 18.0586 15.9972C17.8042 16.0121 17.5536 15.9293 17.3582 15.7657C17.1627 15.6021 17.0371 15.3701 17.007 15.117L17 15V9C17 8.73478 17.1054 8.48043 17.2929 8.29289C17.4804 8.10536 17.7348 8 18 8Z" fill="black"/>
</g>
<defs>
<clipPath id="clip0_802_59116">
<rect width="24" height="24" fill="white"/>
</clipPath>
</defs>
</svg>
