<svg width="24" height="24" viewBox="0 0 24 24" fill="none" xmlns="http://www.w3.org/2000/svg">
<g clip-path="url(#clip0_802_59049)">
<path d="M14.5 2C15.3837 2.00002 16.2582 2.18024 17.0699 2.52966C17.8816 2.87908 18.6136 3.39034 19.221 4.03222C19.8284 4.67409 20.2986 5.43309 20.6027 6.26283C20.9069 7.09257 21.0387 7.97561 20.99 8.858C21.0107 9.01108 20.997 9.16686 20.95 9.314C20.8103 10.4142 20.3918 11.4604 19.7343 12.3535C19.0768 13.2466 18.202 13.9569 17.193 14.417L17.725 16.012C17.815 16.004 17.9067 16 18 16C18.5933 16 19.1734 16.1759 19.6667 16.5056C20.1601 16.8352 20.5446 17.3038 20.7716 17.8519C20.9987 18.4001 21.0581 19.0033 20.9424 19.5853C20.8266 20.1672 20.5409 20.7018 20.1213 21.1213C19.7018 21.5409 19.1672 21.8266 18.5853 21.9424C18.0033 22.0581 17.4001 21.9987 16.8519 21.7716C16.3038 21.5446 15.8352 21.1601 15.5056 20.6667C15.1759 20.1734 15 19.5933 15 19L15.005 18.824C15.0486 18.0804 15.3673 17.3796 15.899 16.858L15.265 14.955C15.0137 14.985 14.7587 15 14.5 15H11.825C11.4603 15 11.1017 14.9723 10.749 14.917L10.101 16.858C10.454 17.2043 10.7159 17.6326 10.8634 18.1046C11.0109 18.5766 11.0395 19.0778 10.9465 19.5635C10.8535 20.0492 10.6419 20.5044 10.3305 20.8886C10.019 21.2728 9.61747 21.574 9.1615 21.7655C8.70553 21.9569 8.2093 22.0327 7.71697 21.9861C7.22463 21.9394 6.75147 21.7718 6.33958 21.4981C5.9277 21.2243 5.58987 20.853 5.35615 20.4172C5.12244 19.9814 5.00009 19.4945 5 19L5.004 18.824C5.02752 18.4223 5.13161 18.0294 5.31008 17.6688C5.48854 17.3082 5.73774 16.9871 6.04283 16.7247C6.34793 16.4624 6.70268 16.2641 7.08598 16.1416C7.46929 16.0192 7.87331 15.9751 8.274 16.012L8.834 14.33C7.97869 13.9261 7.21412 13.3531 6.58644 12.6454C5.95876 11.9378 5.481 11.1104 5.182 10.213L3.78 6H2C1.75507 5.99997 1.51866 5.91004 1.33563 5.74728C1.15259 5.58453 1.03566 5.36025 1.007 5.117L1 5C1 4.73478 1.10536 4.48043 1.29289 4.29289C1.48043 4.10536 1.73478 4 2 4H4.5C4.70996 3.99995 4.91462 4.06599 5.08495 4.18876C5.25528 4.31153 5.38265 4.48479 5.449 4.684L6.553 8H13V3C13 2.73478 13.1054 2.48043 13.2929 2.29289C13.4804 2.10536 13.7348 2 14 2H14.5ZM8 18C7.73478 18 7.48043 18.1054 7.29289 18.2929C7.10536 18.4804 7 18.7348 7 19C7 19.2652 7.10536 19.5196 7.29289 19.7071C7.48043 19.8946 7.73478 20 8 20C8.26522 20 8.51957 19.8946 8.70711 19.7071C8.89464 19.5196 9 19.2652 9 19C9 18.7348 8.89464 18.4804 8.70711 18.2929C8.51957 18.1054 8.26522 18 8 18ZM18 18C17.7348 18 17.4804 18.1054 17.2929 18.2929C17.1054 18.4804 17 18.7348 17 19C17 19.2652 17.1054 19.5196 17.2929 19.7071C17.4804 19.8946 17.7348 20 18 20C18.2652 20 18.5196 19.8946 18.7071 19.7071C18.8946 19.5196 19 19.2652 19 19C19 18.7348 18.8946 18.4804 18.7071 18.2929C18.5196 18.1054 18.2652 18 18 18Z" fill="black"/>
</g>
<defs>
<clipPath id="clip0_802_59049">
<rect width="24" height="24" fill="white"/>
</clipPath>
</defs>
</svg>
