<svg width="24" height="24" viewBox="0 0 24 24" fill="none" xmlns="http://www.w3.org/2000/svg">
<g clip-path="url(#clip0_802_84390)">
<path d="M20.0401 16.0476C20.8926 14.3567 21.19 12.44 20.89 10.5702C20.59 8.70051 19.7078 6.97306 18.3692 5.63372C17.0305 4.29439 15.3035 3.41142 13.4339 3.11048C11.5643 2.80954 9.64749 3.10597 7.95615 3.95758M5.63315 5.64058C3.94505 7.32815 2.99647 9.6172 2.99609 12.0042C2.99572 14.3911 3.94358 16.6805 5.63115 18.3686C7.31872 20.0567 9.60777 21.0053 11.9947 21.0056C14.3817 21.006 16.671 20.0582 18.3591 18.3706" stroke="black" stroke-width="2" stroke-linecap="round" stroke-linejoin="round"/>
<path d="M12.0011 7L16.7561 10.455L16.1901 12.198L15.2101 15.212L15.0011 16H9.00109L7.24609 10.455L9.10609 9.104L11.4191 7.423L12.0011 7Z" stroke="black" stroke-width="2" stroke-linecap="round" stroke-linejoin="round"/>
<path d="M12 7V3" stroke="black" stroke-width="2" stroke-linecap="round" stroke-linejoin="round"/>
<path d="M15 16L17.5 19" stroke="black" stroke-width="2" stroke-linecap="round" stroke-linejoin="round"/>
<path d="M16.7539 10.455L20.4989 9" stroke="black" stroke-width="2" stroke-linecap="round" stroke-linejoin="round"/>
<path d="M9.061 16.0469L6.5 19.0019" stroke="black" stroke-width="2" stroke-linecap="round" stroke-linejoin="round"/>
<path d="M7.245 10.455L3.5 9" stroke="black" stroke-width="2" stroke-linecap="round" stroke-linejoin="round"/>
<path d="M3 3L21 21" stroke="black" stroke-width="2" stroke-linecap="round" stroke-linejoin="round"/>
</g>
<defs>
<clipPath id="clip0_802_84390">
<rect width="24" height="24" fill="white"/>
</clipPath>
</defs>
</svg>
