<svg width="24" height="24" viewBox="0 0 24 24" fill="none" xmlns="http://www.w3.org/2000/svg">
<g clip-path="url(#clip0_802_83975)">
<path d="M15.0693 15.1005C13.7031 14.5466 12.2039 14.4074 10.759 14.7005C9.31417 14.9936 7.9877 15.7059 6.94531 16.7485" stroke="black" stroke-width="2" stroke-linecap="round" stroke-linejoin="round"/>
<path d="M10.269 6.26858L20.195 11.9996C20.9943 10.6316 21.2201 9.00309 20.8231 7.4693C20.4261 5.93551 19.4386 4.62098 18.076 3.81256C16.7135 3.00413 15.0865 2.76744 13.5501 3.15412C12.0137 3.54081 10.6925 4.51948 9.875 5.87658" stroke="black" stroke-width="2" stroke-linecap="round" stroke-linejoin="round"/>
<path d="M16.7335 9.9993C18.3915 7.1293 18.9585 4.3553 18.0015 3.8033C17.0445 3.2513 14.9265 5.1293 13.2695 7.9993" stroke="black" stroke-width="2" stroke-linecap="round" stroke-linejoin="round"/>
<path d="M15.0007 9L14.2617 10.279" stroke="black" stroke-width="2" stroke-linecap="round" stroke-linejoin="round"/>
<path d="M12.794 12.8203L12 14.1963" stroke="black" stroke-width="2" stroke-linecap="round" stroke-linejoin="round"/>
<path d="M3 19.2505C3.31129 19.0958 3.65249 19.0104 4 19.0005C4.3895 18.9924 4.77512 19.0791 5.12358 19.2534C5.47203 19.4276 5.77283 19.684 6 20.0005C6.22717 20.317 6.52797 20.5735 6.87642 20.7477C7.22488 20.9219 7.6105 21.0087 8 21.0005C8.3895 21.0087 8.77512 20.9219 9.12358 20.7477C9.47203 20.5735 9.77283 20.317 10 20.0005C10.2272 19.684 10.528 19.4276 10.8764 19.2534C11.2249 19.0791 11.6105 18.9924 12 19.0005C12.3895 18.9924 12.7751 19.0791 13.1236 19.2534C13.472 19.4276 13.7728 19.684 14 20.0005C14.2272 20.317 14.528 20.5735 14.8764 20.7477C15.2249 20.9219 15.6105 21.0087 16 21.0005C16.3895 21.0087 16.7751 20.9219 17.1236 20.7477C17.472 20.5735 17.7728 20.317 18 20.0005C18.2829 19.6064 18.6786 19.3072 19.135 19.1425" stroke="black" stroke-width="2" stroke-linecap="round" stroke-linejoin="round"/>
<path d="M3 3L21 21" stroke="black" stroke-width="2" stroke-linecap="round" stroke-linejoin="round"/>
</g>
<defs>
<clipPath id="clip0_802_83975">
<rect width="24" height="24" fill="white"/>
</clipPath>
</defs>
</svg>
