<svg width="24" height="24" viewBox="0 0 24 24" fill="none" xmlns="http://www.w3.org/2000/svg">
<g clip-path="url(#clip0_802_83968)">
<path d="M17.5513 16.7511C16.1448 15.3447 14.2373 14.5547 12.2483 14.5547C10.2593 14.5547 8.35181 15.3447 6.94531 16.7511" stroke="black" stroke-width="2" stroke-linecap="round" stroke-linejoin="round"/>
<path d="M18.0007 3.80383C16.6226 3.00822 14.9849 2.79261 13.4479 3.20444C11.9109 3.61627 10.6004 4.6218 9.80469 5.99984L20.1967 11.9998C20.9923 10.6218 21.2079 8.98408 20.7961 7.44704C20.3843 5.91 19.3787 4.59951 18.0007 3.80383Z" stroke="black" stroke-width="2" stroke-linecap="round" stroke-linejoin="round"/>
<path d="M16.7335 9.9993C18.3915 7.1293 18.9585 4.3553 18.0015 3.8033C17.0445 3.2513 14.9265 5.1293 13.2695 7.9993" stroke="black" stroke-width="2" stroke-linecap="round" stroke-linejoin="round"/>
<path d="M15 9L12 14.196" stroke="black" stroke-width="2" stroke-linecap="round" stroke-linejoin="round"/>
<path d="M3 19.2505C3.31129 19.0958 3.65249 19.0104 4 19.0005C4.3895 18.9924 4.77512 19.0791 5.12358 19.2534C5.47203 19.4276 5.77283 19.684 6 20.0005C6.22717 20.317 6.52797 20.5735 6.87642 20.7477C7.22488 20.9219 7.6105 21.0087 8 21.0005C8.3895 21.0087 8.77512 20.9219 9.12358 20.7477C9.47203 20.5735 9.77283 20.317 10 20.0005C10.2272 19.684 10.528 19.4276 10.8764 19.2534C11.2249 19.0791 11.6105 18.9924 12 19.0005C12.3895 18.9924 12.7751 19.0791 13.1236 19.2534C13.472 19.4276 13.7728 19.684 14 20.0005C14.2272 20.317 14.528 20.5735 14.8764 20.7477C15.2249 20.9219 15.6105 21.0087 16 21.0005C16.3895 21.0087 16.7751 20.9219 17.1236 20.7477C17.472 20.5735 17.7728 20.317 18 20.0005C18.2272 19.684 18.528 19.4276 18.8764 19.2534C19.2249 19.0791 19.6105 18.9924 20 19.0005C20.3475 19.0104 20.6887 19.0958 21 19.2505" stroke="black" stroke-width="2" stroke-linecap="round" stroke-linejoin="round"/>
</g>
<defs>
<clipPath id="clip0_802_83968">
<rect width="24" height="24" fill="white"/>
</clipPath>
</defs>
</svg>
