<svg width="24" height="24" viewBox="0 0 24 24" fill="none" xmlns="http://www.w3.org/2000/svg">
<g clip-path="url(#clip0_802_58906)">
<path d="M14.9996 2C15.8918 1.99991 16.7584 2.29808 17.4616 2.8471C18.1648 3.39612 18.6643 4.16448 18.8806 5.03L18.8966 5.102L18.9766 5.121C19.6343 5.28657 20.2391 5.61665 20.7342 6.08021C21.2292 6.54377 21.5983 7.1256 21.8066 7.771L21.8636 7.964C22.0682 8.72665 22.0425 9.53281 21.7898 10.2809C21.537 11.029 21.0685 11.6855 20.4433 12.1678C19.818 12.65 19.0641 12.9365 18.2763 12.991C17.4886 13.0455 16.7023 12.8656 16.0166 12.474L15.9696 12.445L12.4446 15.97L12.4866 16.04C12.8021 16.6012 12.9775 17.2302 12.9979 17.8737C13.0182 18.5171 12.883 19.156 12.6036 19.736L12.5016 19.933C12.0828 20.6923 11.4285 21.2948 10.6375 21.65C9.84639 22.0051 8.96134 22.0936 8.11563 21.902C7.39946 21.7393 6.7421 21.382 6.21595 20.8697C5.6898 20.3573 5.31527 19.7096 5.13363 18.998L5.11063 18.903L4.97263 18.87C4.30138 18.691 3.68834 18.3402 3.19386 17.8522C2.69939 17.3642 2.34053 16.7558 2.15263 16.087L2.10263 15.888C1.93168 15.1329 1.98355 14.3444 2.25195 13.6181C2.52035 12.8919 2.99374 12.2592 3.61469 11.7967C4.23563 11.3343 4.97745 11.062 5.75012 11.0129C6.52279 10.9637 7.29312 11.1399 7.96763 11.52L8.03563 11.56L11.5596 8.036L11.5236 7.975C11.2426 7.47845 11.0711 6.92752 11.0206 6.35921C10.97 5.79089 11.0416 5.21835 11.2306 4.68L11.3096 4.475C11.6122 3.74404 12.1248 3.11923 12.7825 2.67957C13.4402 2.23991 14.2135 2.00516 15.0046 2.005L14.8656 2.009L14.8856 2.006L14.9996 2Z" fill="black"/>
</g>
<defs>
<clipPath id="clip0_802_58906">
<rect width="24" height="24" fill="white"/>
</clipPath>
</defs>
</svg>
