<svg width="24" height="24" viewBox="0 0 24 24" fill="none" xmlns="http://www.w3.org/2000/svg">
<g clip-path="url(#clip0_802_83528)">
<path d="M15 19L12 17L6 21V7C6 5.93913 6.42143 4.92172 7.17157 4.17157C7.92172 3.42143 8.93913 3 10 3H14C15.0609 3 16.0783 3.42143 16.8284 4.17157C17.5786 4.92172 18 5.93913 18 7V11" stroke="black" stroke-width="2" stroke-linecap="round" stroke-linejoin="round"/>
<path d="M19 22V22.01" stroke="black" stroke-width="2" stroke-linecap="round" stroke-linejoin="round"/>
<path d="M19 18.9998C19.4483 18.9983 19.8832 18.8466 20.235 18.5687C20.5868 18.2909 20.8352 17.903 20.9406 17.4673C21.0459 17.0315 21.0019 16.5731 20.8158 16.1652C20.6297 15.7574 20.3122 15.4238 19.914 15.2178C19.5162 15.014 19.0611 14.9508 18.6228 15.0385C18.1845 15.1262 17.7888 15.3596 17.5 15.7008" stroke="black" stroke-width="2" stroke-linecap="round" stroke-linejoin="round"/>
</g>
<defs>
<clipPath id="clip0_802_83528">
<rect width="24" height="24" fill="white"/>
</clipPath>
</defs>
</svg>
