<svg width="24" height="24" viewBox="0 0 24 24" fill="none" xmlns="http://www.w3.org/2000/svg">
<g clip-path="url(#clip0_802_58882)">
<path d="M14.1432 11.4857C14.2844 11.2688 14.5043 11.115 14.7565 11.0568C15.0087 10.9987 15.2737 11.0405 15.4956 11.1737C15.7176 11.3068 15.8793 11.5208 15.9468 11.7707C16.0142 12.0206 15.9821 12.287 15.8572 12.5137C14.3552 15.0187 13.4472 17.4037 12.9872 20.1637C12.8272 21.1197 11.5392 21.3137 11.1062 20.4467C9.04623 16.3267 7.24823 15.4707 4.31623 16.4487C4.1916 16.4902 4.06003 16.5067 3.92901 16.4974C3.79799 16.488 3.6701 16.453 3.55263 16.3942C3.3154 16.2755 3.13504 16.0674 3.05123 15.8157C2.96742 15.564 2.98703 15.2893 3.10574 15.0521C3.22445 14.8149 3.43254 14.6345 3.68423 14.5507C6.88423 13.4837 9.34023 14.1777 11.4872 17.1737L11.5782 17.3037L11.5892 17.2637C12.1112 15.4357 12.8562 13.7137 13.8622 11.9637L14.1432 11.4857Z" fill="black"/>
<path d="M18 4C17.606 4 17.2159 4.0776 16.8519 4.22836C16.488 4.37913 16.1573 4.6001 15.8787 4.87868C15.6001 5.15726 15.3791 5.48797 15.2284 5.85195C15.0776 6.21593 15 6.60603 15 7C15 7.39397 15.0776 7.78407 15.2284 8.14805C15.3791 8.51203 15.6001 8.84274 15.8787 9.12132C16.1573 9.3999 16.488 9.62087 16.8519 9.77164C17.2159 9.9224 17.606 10 18 10C18.7956 10 19.5587 9.68393 20.1213 9.12132C20.6839 8.55871 21 7.79565 21 7C21 6.20435 20.6839 5.44129 20.1213 4.87868C19.5587 4.31607 18.7956 4 18 4Z" fill="black"/>
</g>
<defs>
<clipPath id="clip0_802_58882">
<rect width="24" height="24" fill="white"/>
</clipPath>
</defs>
</svg>
