<svg width="24" height="24" viewBox="0 0 24 24" fill="none" xmlns="http://www.w3.org/2000/svg">
<g clip-path="url(#clip0_802_81564)">
<path d="M3 15.9619C7 13.8439 7 11.8439 4 8.84394M21 15.9619C17 13.8439 17 11.8439 20 8.84394M16.882 7.84294C16.882 6.54815 16.3676 5.30639 15.4521 4.39084C14.5365 3.47529 13.2948 2.96094 12 2.96094C10.7052 2.96094 9.46346 3.47529 8.5479 4.39084C7.63235 5.30639 7.118 6.54815 7.118 7.84294C7.118 12.1159 6.905 14.2519 3 15.9609C5 16.8429 5 16.8429 6 18.9609C9 18.9609 10 20.9609 12 20.9609C14 20.9609 15 18.9609 18 18.9609C19 16.8429 19 16.8429 21 15.9609C17.094 14.2519 16.882 12.1159 16.882 7.84294Z" stroke="black" stroke-width="2" stroke-linecap="round" stroke-linejoin="round"/>
</g>
<defs>
<clipPath id="clip0_802_81564">
<rect width="24" height="24" fill="white"/>
</clipPath>
</defs>
</svg>
