<svg width="24" height="24" viewBox="0 0 24 24" fill="none" xmlns="http://www.w3.org/2000/svg">
<g clip-path="url(#clip0_802_81346)">
<path d="M15.5881 15.537L12.0351 12L4.29314 20.18C3.50214 21.03 4.44614 22.36 5.53114 21.91L15.1471 17.814C15.3579 17.7244 15.5435 17.5844 15.6875 17.4063C15.8315 17.2282 15.9296 17.0175 15.973 16.7926C16.0165 16.5677 16.004 16.3356 15.9367 16.1166C15.8694 15.8977 15.7494 15.6987 15.5871 15.537H15.5881Z" stroke="black" stroke-width="2" stroke-linecap="round" stroke-linejoin="round"/>
<path d="M8.41027 8.46455L11.9633 12.0005L19.7053 3.82055C20.4963 2.97055 19.5523 1.64055 18.4673 2.09055L8.85127 6.18855C8.64047 6.27812 8.45491 6.41811 8.3109 6.59622C8.16689 6.77433 8.06885 6.98509 8.02539 7.20997C7.98194 7.43485 7.9944 7.66696 8.06169 7.8859C8.12897 8.10484 8.24902 8.30389 8.41127 8.46555L8.41027 8.46455Z" stroke="black" stroke-width="2" stroke-linecap="round" stroke-linejoin="round"/>
</g>
<defs>
<clipPath id="clip0_802_81346">
<rect width="24" height="24" fill="white"/>
</clipPath>
</defs>
</svg>
