<svg width="24" height="24" viewBox="0 0 24 24" fill="none" xmlns="http://www.w3.org/2000/svg">
<g clip-path="url(#clip0_802_82406)">
<path d="M22 12.5416C20.196 12.1966 19.299 11.4616 18.477 9.60156C17.99 10.2976 17.375 11.1696 17.557 12.0016C17.585 12.2396 17.237 13.0016 17 13.0016H3C3 18.2096 6.164 20.0016 9.196 20.0016C13.32 20.0236 17.024 18.6256 19.05 15.0016C20.196 14.9006 21.346 13.4966 22 12.5416Z" stroke="black" stroke-width="2" stroke-linecap="round" stroke-linejoin="round"/>
<path d="M5 10H8V13H5V10Z" stroke="black" stroke-width="2" stroke-linecap="round" stroke-linejoin="round"/>
<path d="M8 10H11V13H8V10Z" stroke="black" stroke-width="2" stroke-linecap="round" stroke-linejoin="round"/>
<path d="M11 10H14V13H11V10Z" stroke="black" stroke-width="2" stroke-linecap="round" stroke-linejoin="round"/>
<path d="M8 7H11V10H8V7Z" stroke="black" stroke-width="2" stroke-linecap="round" stroke-linejoin="round"/>
<path d="M11 7H14V10H11V7Z" stroke="black" stroke-width="2" stroke-linecap="round" stroke-linejoin="round"/>
<path d="M11 4H14V7H11V4Z" stroke="black" stroke-width="2" stroke-linecap="round" stroke-linejoin="round"/>
<path d="M4.57031 17.9988C6.07031 17.9988 6.61731 17.9247 7.52831 17.2188" stroke="black" stroke-width="2" stroke-linecap="round" stroke-linejoin="round"/>
<path d="M10 16V16.01" stroke="black" stroke-width="2" stroke-linecap="round" stroke-linejoin="round"/>
</g>
<defs>
<clipPath id="clip0_802_82406">
<rect width="24" height="24" fill="white"/>
</clipPath>
</defs>
</svg>
