<svg width="24" height="24" viewBox="0 0 24 24" fill="none" xmlns="http://www.w3.org/2000/svg">
<g clip-path="url(#clip0_802_81739)">
<path d="M8 20L12 11" stroke="black" stroke-width="2" stroke-linecap="round" stroke-linejoin="round"/>
<path d="M10.7 13.9981C11.137 15.2611 12.13 15.9981 13.25 15.9981C15.321 15.9981 17 14.4441 17 11.9981C17.0009 11.2679 16.8418 10.5464 16.5339 9.88426C16.2261 9.22214 15.777 8.63548 15.2182 8.16552C14.6593 7.69555 14.0044 7.35369 13.2993 7.16395C12.5942 6.97421 11.8561 6.9412 11.1369 7.06725C10.4177 7.1933 9.73477 7.47534 9.13623 7.89355C8.53768 8.31176 8.038 8.85599 7.6723 9.48799C7.3066 10.12 7.08376 10.8244 7.01944 11.5517C6.95512 12.2791 7.05088 13.0117 7.3 13.6981" stroke="black" stroke-width="2" stroke-linecap="round" stroke-linejoin="round"/>
<path d="M3 12C3 13.1819 3.23279 14.3522 3.68508 15.4442C4.13738 16.5361 4.80031 17.5282 5.63604 18.364C6.47177 19.1997 7.46392 19.8626 8.55585 20.3149C9.64778 20.7672 10.8181 21 12 21C13.1819 21 14.3522 20.7672 15.4442 20.3149C16.5361 19.8626 17.5282 19.1997 18.364 18.364C19.1997 17.5282 19.8626 16.5361 20.3149 15.4442C20.7672 14.3522 21 13.1819 21 12C21 10.8181 20.7672 9.64778 20.3149 8.55585C19.8626 7.46392 19.1997 6.47177 18.364 5.63604C17.5282 4.80031 16.5361 4.13738 15.4442 3.68508C14.3522 3.23279 13.1819 3 12 3C10.8181 3 9.64778 3.23279 8.55585 3.68508C7.46392 4.13738 6.47177 4.80031 5.63604 5.63604C4.80031 6.47177 4.13738 7.46392 3.68508 8.55585C3.23279 9.64778 3 10.8181 3 12Z" stroke="black" stroke-width="2" stroke-linecap="round" stroke-linejoin="round"/>
</g>
<defs>
<clipPath id="clip0_802_81739">
<rect width="24" height="24" fill="white"/>
</clipPath>
</defs>
</svg>
