<svg width="24" height="24" viewBox="0 0 24 24" fill="none" xmlns="http://www.w3.org/2000/svg">
<g clip-path="url(#clip0_802_81918)">
<path d="M21 12C21 13.1819 20.7672 14.3522 20.3149 15.4442C19.8626 16.5361 19.1997 17.5282 18.364 18.364C17.5282 19.1997 16.5361 19.8626 15.4442 20.3149C14.3522 20.7672 13.1819 21 12 21C10.8181 21 9.64778 20.7672 8.55585 20.3149C7.46392 19.8626 6.47177 19.1997 5.63604 18.364C4.80031 17.5282 4.13738 16.5361 3.68508 15.4442C3.23279 14.3522 3 13.1819 3 12C3 9.61305 3.94821 7.32387 5.63604 5.63604C7.32387 3.94821 9.61305 3 12 3C14.3869 3 16.6761 3.94821 18.364 5.63604C20.0518 7.32387 21 9.61305 21 12Z" stroke="black" stroke-width="2" stroke-linecap="round" stroke-linejoin="round"/>
<path d="M8 11.5039C7.65909 11.7596 7.38919 12.0982 7.21594 12.4875C7.04269 12.8768 6.97183 13.304 7.0101 13.7284C7.04837 14.1528 7.1945 14.5604 7.4346 14.9125C7.6747 15.2646 8.00081 15.5494 8.38197 15.74C8.76312 15.9306 9.18666 16.0205 9.61237 16.0014C10.0381 15.9822 10.4518 15.8546 10.8143 15.6305C11.1768 15.4065 11.476 15.0935 11.6836 14.7213C11.8911 14.3491 12 13.93 12 13.5039V10.5039C12 10.0778 12.1089 9.6587 12.3164 9.2865C12.524 8.91429 12.8232 8.60132 13.1857 8.37728C13.5482 8.15324 13.9619 8.02559 14.3876 8.00643C14.8133 7.98728 15.2369 8.07726 15.618 8.26784C15.9992 8.45842 16.3253 8.74326 16.5654 9.09532C16.8055 9.44738 16.9516 9.85497 16.9899 10.2794C17.0282 10.7038 16.9573 11.131 16.7841 11.5203C16.6108 11.9096 16.3409 12.2482 16 12.5039" stroke="black" stroke-width="2" stroke-linecap="round" stroke-linejoin="round"/>
</g>
<defs>
<clipPath id="clip0_802_81918">
<rect width="24" height="24" fill="white"/>
</clipPath>
</defs>
</svg>
