<svg width="24" height="24" viewBox="0 0 24 24" fill="none" xmlns="http://www.w3.org/2000/svg">
<g clip-path="url(#clip0_802_58776)">
<path d="M14.9825 3L15.1055 3.006C17.1195 3.22 18.6325 3.678 20.0715 4.679C20.2432 4.79882 20.373 4.96951 20.4425 5.167C22.3185 10.482 22.8155 15.154 21.8935 17.447C20.8905 19.452 19.2875 21 17.4995 21C16.7675 21 15.8065 20.032 15.1715 18.955C15.8803 18.826 16.5822 18.6614 17.2745 18.462C17.4009 18.4259 17.5188 18.3652 17.6217 18.2835C17.7246 18.2018 17.8104 18.1006 17.8742 17.9858C17.938 17.8709 17.9786 17.7446 17.9935 17.6141C18.0085 17.4835 17.9976 17.3513 17.9615 17.225C17.9254 17.0987 17.8648 16.9807 17.7831 16.8778C17.7014 16.7749 17.6002 16.6891 17.4853 16.6253C17.3704 16.5615 17.2441 16.521 17.1136 16.506C16.9831 16.491 16.8509 16.5019 16.7245 16.538C13.4045 17.488 10.5945 17.488 7.27453 16.538C7.01939 16.4651 6.74573 16.4965 6.51375 16.6253C6.28176 16.7541 6.11046 16.9699 6.03753 17.225C5.96459 17.4801 5.996 17.7538 6.12484 17.9858C6.25368 18.2178 6.46939 18.3891 6.72453 18.462C7.44153 18.666 8.14053 18.832 8.82753 18.956C8.19253 20.031 7.23153 21 6.49953 21C4.71153 21 3.10853 19.452 2.07153 17.371C1.18353 15.154 1.68153 10.481 3.55653 5.167C3.62606 4.96951 3.75582 4.79882 3.92753 4.679C5.36653 3.678 6.87953 3.22 8.89353 3.006C9.07419 2.98673 9.25669 3.01704 9.42143 3.09368C9.58616 3.17032 9.7269 3.29039 9.82853 3.441L9.89153 3.548L10.5425 4.833L10.6795 4.817C11.5582 4.727 12.4438 4.727 13.3225 4.817L13.4565 4.833L14.1065 3.549C14.1793 3.40479 14.2858 3.28035 14.4171 3.18631C14.5485 3.09227 14.7006 3.03143 14.8605 3.009L14.9825 3ZM8.99953 10C8.52159 9.99998 8.05944 10.1711 7.69679 10.4824C7.33413 10.7937 7.09494 11.2246 7.02253 11.697L7.00453 11.851L6.99953 12L7.00453 12.15C7.03371 12.538 7.17547 12.9092 7.41243 13.2178C7.64939 13.5265 7.97125 13.7594 8.33857 13.8878C8.70589 14.0163 9.10272 14.0349 9.48042 13.9412C9.85812 13.8475 10.2003 13.6456 10.465 13.3604C10.7297 13.0751 10.9054 12.7188 10.9706 12.3352C11.0358 11.9516 10.9877 11.5572 10.8322 11.2005C10.6766 10.8438 10.4204 10.5403 10.0948 10.327C9.76933 10.1138 9.38867 10.0001 8.99953 10ZM14.9995 10C14.5216 9.99998 14.0594 10.1711 13.6968 10.4824C13.3341 10.7937 13.0949 11.2246 13.0225 11.697L13.0045 11.851L12.9995 12L13.0045 12.15C13.0337 12.538 13.1755 12.9092 13.4124 13.2178C13.6494 13.5265 13.9712 13.7594 14.3386 13.8878C14.7059 14.0163 15.1027 14.0349 15.4804 13.9412C15.8581 13.8475 16.2003 13.6456 16.465 13.3604C16.7297 13.0751 16.9054 12.7188 16.9706 12.3352C17.0358 11.9516 16.9877 11.5572 16.8322 11.2005C16.6766 10.8438 16.4204 10.5403 16.0948 10.327C15.7693 10.1138 15.3887 10.0001 14.9995 10Z" fill="black"/>
</g>
<defs>
<clipPath id="clip0_802_58776">
<rect width="24" height="24" fill="white"/>
</clipPath>
</defs>
</svg>
