<svg width="24" height="24" viewBox="0 0 24 24" fill="none" xmlns="http://www.w3.org/2000/svg">
<g clip-path="url(#clip0_802_80585)">
<path d="M3 20H21V12C21 11.2044 20.6839 10.4413 20.1213 9.87868C19.5587 9.31607 18.7956 9 18 9H6C5.20435 9 4.44129 9.31607 3.87868 9.87868C3.31607 10.4413 3 11.2044 3 12V20Z" stroke="black" stroke-width="2" stroke-linecap="round" stroke-linejoin="round"/>
<path d="M3 14.8035C3.312 14.9385 3.654 15.0075 4 15.0005C4.3895 15.0087 4.77512 14.9219 5.12358 14.7477C5.47203 14.5735 5.77283 14.317 6 14.0005C6.22717 13.684 6.52797 13.4276 6.87642 13.2534C7.22488 13.0791 7.6105 12.9924 8 13.0005C8.3895 12.9924 8.77512 13.0791 9.12358 13.2534C9.47203 13.4276 9.77283 13.684 10 14.0005C10.2272 14.317 10.528 14.5735 10.8764 14.7477C11.2249 14.9219 11.6105 15.0087 12 15.0005C12.3895 15.0087 12.7751 14.9219 13.1236 14.7477C13.472 14.5735 13.7728 14.317 14 14.0005C14.2272 13.684 14.528 13.4276 14.8764 13.2534C15.2249 13.0791 15.6105 12.9924 16 13.0005C16.3895 12.9924 16.7751 13.0791 17.1236 13.2534C17.472 13.4276 17.7728 13.684 18 14.0005C18.2272 14.317 18.528 14.5735 18.8764 14.7477C19.2249 14.9219 19.6105 15.0087 20 15.0005C20.35 15.0075 20.692 14.9385 21 14.8035" stroke="black" stroke-width="2" stroke-linecap="round" stroke-linejoin="round"/>
<path d="M11.9994 4L13.4644 5.638C13.7258 5.91903 13.9008 6.26935 13.9686 6.64715C14.0363 7.02495 13.994 7.41426 13.8465 7.76862C13.699 8.12298 13.4527 8.42742 13.1369 8.64561C12.8211 8.86379 12.4493 8.98651 12.0656 8.99911C11.682 9.0117 11.3029 8.91365 10.9735 8.71665C10.6441 8.51964 10.3783 8.23202 10.2079 7.88809C10.0375 7.54417 9.96967 7.15848 10.0125 6.77705C10.0553 6.39563 10.207 6.03458 10.4494 5.737L11.9994 4Z" stroke="black" stroke-width="2" stroke-linecap="round" stroke-linejoin="round"/>
</g>
<defs>
<clipPath id="clip0_802_80585">
<rect width="24" height="24" fill="white"/>
</clipPath>
</defs>
</svg>
