<svg width="24" height="24" viewBox="0 0 24 24" fill="none" xmlns="http://www.w3.org/2000/svg">
<g clip-path="url(#clip0_802_58651)">
<path d="M8 3C8.25488 3.00028 8.50003 3.09788 8.68537 3.27285C8.8707 3.44782 8.98224 3.68695 8.99717 3.94139C9.01211 4.19584 8.92933 4.44638 8.76574 4.64183C8.60215 4.83729 8.3701 4.9629 8.117 4.993L8 5H6C5.75507 5.00003 5.51866 5.08996 5.33563 5.25272C5.15259 5.41547 5.03566 5.63975 5.007 5.883L5 6V8C4.99972 8.25488 4.90212 8.50003 4.72715 8.68537C4.55218 8.8707 4.31305 8.98224 4.05861 8.99717C3.80416 9.01211 3.55362 8.92933 3.35817 8.76574C3.16271 8.60215 3.0371 8.3701 3.007 8.117L3 8V6C2.99996 5.23479 3.29233 4.49849 3.81728 3.94174C4.34224 3.38499 5.06011 3.04989 5.824 3.005L6 3H8Z" fill="black"/>
<path d="M4 15C4.24493 15 4.48134 15.09 4.66437 15.2527C4.84741 15.4155 4.96434 15.6397 4.993 15.883L5 16V18C5.00003 18.2449 5.08996 18.4813 5.25272 18.6644C5.41547 18.8474 5.63975 18.9643 5.883 18.993L6 19H8C8.25488 19.0003 8.50003 19.0979 8.68537 19.2728C8.8707 19.4478 8.98224 19.687 8.99717 19.9414C9.01211 20.1958 8.92933 20.4464 8.76574 20.6418C8.60215 20.8373 8.3701 20.9629 8.117 20.993L8 21H6C5.23479 21 4.49849 20.7077 3.94174 20.1827C3.38499 19.6578 3.04989 18.9399 3.005 18.176L3 18V16C3 15.7348 3.10536 15.4804 3.29289 15.2929C3.48043 15.1054 3.73478 15 4 15Z" fill="black"/>
<path d="M17.9989 3C18.7641 2.99996 19.5004 3.29233 20.0572 3.81728C20.6139 4.34224 20.949 5.06011 20.9939 5.824L20.9989 6V8C20.9986 8.25488 20.901 8.50003 20.726 8.68537C20.5511 8.8707 20.3119 8.98224 20.0575 8.99717C19.8031 9.01211 19.5525 8.92933 19.3571 8.76574C19.1616 8.60215 19.036 8.3701 19.0059 8.117L18.9989 8V6C18.9989 5.75507 18.9089 5.51866 18.7462 5.33563C18.5834 5.15259 18.3591 5.03566 18.1159 5.007L17.9989 5H15.9989C15.744 4.99972 15.4989 4.90212 15.3135 4.72715C15.1282 4.55218 15.0167 4.31305 15.0017 4.05861C14.9868 3.80416 15.0696 3.55362 15.2332 3.35817C15.3967 3.16271 15.6288 3.0371 15.8819 3.007L15.9989 3H17.9989Z" fill="black"/>
<path d="M19.9989 15C20.2438 15 20.4802 15.09 20.6633 15.2527C20.8463 15.4155 20.9632 15.6397 20.9919 15.883L20.9989 16V18C20.9989 18.7652 20.7066 19.5015 20.1816 20.0583C19.6567 20.615 18.9388 20.9501 18.1749 20.995L17.9989 21H15.9989C15.744 20.9997 15.4989 20.9021 15.3135 20.7272C15.1282 20.5522 15.0167 20.313 15.0017 20.0586C14.9868 19.8042 15.0696 19.5536 15.2332 19.3582C15.3967 19.1627 15.6288 19.0371 15.8819 19.007L15.9989 19H17.9989C18.2438 19 18.4802 18.91 18.6633 18.7473C18.8463 18.5845 18.9632 18.3603 18.9919 18.117L18.9989 18V16C18.9989 15.7348 19.1042 15.4804 19.2918 15.2929C19.4793 15.1054 19.7337 15 19.9989 15Z" fill="black"/>
<path d="M12 8C12.7826 8 13.548 8.22958 14.2014 8.66029C14.8549 9.09101 15.3676 9.70394 15.6761 10.4232C15.9846 11.1424 16.0753 11.9363 15.9371 12.7066C15.7988 13.4769 15.4376 14.1898 14.8983 14.7568C14.3589 15.3239 13.665 15.7202 12.9026 15.8968C12.1402 16.0734 11.3427 16.0225 10.6089 15.7503C9.87519 15.4782 9.23739 14.9967 8.77454 14.3657C8.31169 13.7346 8.04413 12.9816 8.005 12.2L8 12L8.005 11.8C8.05631 10.775 8.4996 9.80901 9.24319 9.10172C9.98677 8.39444 10.9738 8 12 8Z" fill="black"/>
</g>
<defs>
<clipPath id="clip0_802_58651">
<rect width="24" height="24" fill="white"/>
</clipPath>
</defs>
</svg>
