<svg width="24" height="24" viewBox="0 0 24 24" fill="none" xmlns="http://www.w3.org/2000/svg">
<g clip-path="url(#clip0_802_58646)">
<path d="M10.3462 3.17018L3.19621 6.28318C2.71686 6.49602 2.34029 6.88864 2.14763 7.37645C1.95497 7.86427 1.96165 8.40824 2.16621 8.89118L7.08621 20.7862C7.18434 21.0277 7.32966 21.2473 7.51368 21.432C7.69771 21.6166 7.91672 21.7628 8.15792 21.8618C8.39911 21.9607 8.65762 22.0106 8.91833 22.0085C9.17904 22.0063 9.4367 21.9522 9.67622 21.8492L16.8182 18.7392C17.299 18.5271 17.6772 18.1344 17.871 17.6459C18.0648 17.1574 18.0588 16.6123 17.8542 16.1282L12.9342 4.23418C12.8362 3.99279 12.691 3.77337 12.5072 3.58875C12.3233 3.40413 12.1045 3.25801 11.8636 3.15894C11.6226 3.05987 11.3643 3.00984 11.1038 3.01177C10.8432 3.0137 10.5857 3.06756 10.3462 3.17018Z" fill="black"/>
<path d="M15.9989 3C16.5035 2.99984 16.9895 3.19041 17.3594 3.5335C17.7294 3.87659 17.956 4.34684 17.9939 4.85L17.9989 5V8.5C17.9986 8.75488 17.901 9.00003 17.726 9.18537C17.5511 9.3707 17.3119 9.48224 17.0575 9.49717C16.8031 9.51211 16.5525 9.42933 16.3571 9.26574C16.1616 9.10215 16.036 8.8701 16.0059 8.617L15.9989 8.5V5H14.9989C14.744 4.99972 14.4989 4.90212 14.3135 4.72715C14.1282 4.55218 14.0167 4.31305 14.0017 4.05861C13.9868 3.80416 14.0696 3.55362 14.2332 3.35817C14.3967 3.16271 14.6288 3.0371 14.8819 3.007L14.9989 3H15.9989Z" fill="black"/>
<path d="M19.0785 5.60902C19.1821 5.36515 19.3782 5.17237 19.6238 5.07299C19.8695 4.97362 20.1445 4.97579 20.3885 5.07902C20.6455 5.18702 20.8935 5.28902 21.1575 5.39302C21.6213 5.58991 21.9937 5.95462 22.2003 6.41423C22.4068 6.87383 22.4322 7.39446 22.2715 7.87202L22.2155 8.01802L19.9175 13.392C19.8164 13.6253 19.6302 13.8112 19.3969 13.9121C19.1635 14.013 18.9005 14.0212 18.6613 13.9351C18.4221 13.849 18.2247 13.6751 18.1092 13.4486C17.9937 13.2222 17.9688 12.9602 18.0395 12.716L18.0795 12.606L20.3755 7.23502L20.0095 7.08702L19.6075 6.92002C19.4865 6.86873 19.3768 6.7941 19.2847 6.70038C19.1925 6.60667 19.1198 6.49572 19.0705 6.37387C19.0213 6.25202 18.9966 6.12166 18.9978 5.99025C18.999 5.85884 19.0261 5.72895 19.0775 5.60802L19.0785 5.60902Z" fill="black"/>
</g>
<defs>
<clipPath id="clip0_802_58646">
<rect width="24" height="24" fill="white"/>
</clipPath>
</defs>
</svg>
