<svg width="24" height="24" viewBox="0 0 24 24" fill="none" xmlns="http://www.w3.org/2000/svg">
<g clip-path="url(#clip0_802_58585)">
<path d="M9.88202 2.20838C10.3577 2.15232 10.837 2.27797 11.2239 2.56018C11.6109 2.8424 11.877 3.26034 11.969 3.73038L11.994 3.89738L11.999 4.00138V8.00138C11.9989 8.20345 11.9377 8.40075 11.8232 8.5673C11.7088 8.73386 11.5466 8.86183 11.358 8.93438L11.251 8.96938C10.7298 9.10488 10.253 9.37379 9.86734 9.74965C9.48171 10.1255 9.20064 10.5953 9.05181 11.1128C8.90298 11.6304 8.89152 12.1777 9.01857 12.701C9.14561 13.2243 9.40678 13.7055 9.77635 14.0971C10.1459 14.4888 10.6111 14.7774 11.1262 14.9346C11.6412 15.0918 12.1883 15.1121 12.7136 14.9936C13.2389 14.875 13.7242 14.6216 14.1218 14.2585C14.5194 13.8953 14.8155 13.4348 14.981 12.9224L15.031 12.7494C15.0819 12.5538 15.1908 12.3782 15.3434 12.2457C15.496 12.1133 15.6852 12.0302 15.886 12.0074L15.999 12.0014H19.799C20.3294 12.0014 20.8382 12.2121 21.2132 12.5872C21.5883 12.9622 21.799 13.4709 21.799 14.0014C21.799 14.0775 21.7903 14.1533 21.773 14.2274C21.3728 15.954 20.5209 17.5433 19.3045 18.8324C18.0881 20.1216 16.5509 21.0642 14.8504 21.5639C13.1498 22.0636 11.347 22.1023 9.6266 21.6761C7.90617 21.2499 6.32994 20.3741 5.05931 19.1383C3.78869 17.9026 2.86933 16.3514 2.39539 14.6435C1.92144 12.9356 1.90995 11.1324 2.36207 9.41862C2.8142 7.70482 3.7137 6.14199 4.96847 4.89016C6.22323 3.63833 7.78817 2.74249 9.50302 2.29438L9.77302 2.22738L9.88302 2.20738L9.88202 2.20838Z" fill="black"/>
<path d="M14.775 2.526C14.8471 2.50918 14.9209 2.50046 14.995 2.5L15.117 2.507L15.229 2.527L15.332 2.557C16.693 3.03611 17.9343 3.80408 18.9705 4.80818C20.0067 5.81228 20.8133 7.02872 21.335 8.374L21.443 8.668C21.4927 8.80928 21.5101 8.95992 21.4938 9.10882C21.4776 9.25771 21.428 9.40104 21.349 9.52823C21.2699 9.65542 21.1632 9.76322 21.0369 9.84366C20.9105 9.92411 20.7677 9.97514 20.619 9.993L20.5 10H16C15.8556 10 15.7128 9.96873 15.5816 9.90831C15.4504 9.84789 15.3339 9.75977 15.24 9.65C14.9672 9.33042 14.6696 9.03283 14.35 8.76C14.1608 8.598 14.0388 8.3712 14.008 8.124L14 8V3.505L14.006 3.387C14.011 3.345 14.018 3.307 14.026 3.271L14.056 3.168C14.0943 3.05939 14.1512 2.95823 14.224 2.869L14.295 2.789C14.325 2.761 14.353 2.737 14.382 2.714L14.472 2.651L14.56 2.601L14.663 2.558L14.775 2.526Z" fill="black"/>
</g>
<defs>
<clipPath id="clip0_802_58585">
<rect width="24" height="24" fill="white"/>
</clipPath>
</defs>
</svg>
