<svg width="24" height="24" viewBox="0 0 24 24" fill="none" xmlns="http://www.w3.org/2000/svg">
<g clip-path="url(#clip0_802_58480)">
<path d="M12 2C17.523 2 22 6.477 22 12C22 17.523 17.523 22 12 22C6.477 22 2 17.523 2 12C2 6.477 6.477 2 12 2ZM14.53 7.152C14.4186 7.0824 14.2947 7.03541 14.1651 7.01373C14.0356 6.99204 13.9031 6.99608 13.7751 7.02561C13.6472 7.05514 13.5263 7.10958 13.4194 7.18583C13.3125 7.26208 13.2216 7.35864 13.152 7.47L11 10.913V8C11 7.75507 10.91 7.51866 10.7473 7.33563C10.5845 7.15259 10.3603 7.03566 10.117 7.007L10 7C9.73478 7 9.48043 7.10536 9.29289 7.29289C9.10536 7.48043 9 7.73478 9 8V16C9 16.2652 9.10536 16.5196 9.29289 16.7071C9.48043 16.8946 9.73478 17 10 17C10.2652 17 10.5196 16.8946 10.7071 16.7071C10.8946 16.5196 11 16.2652 11 16V13.086L13.152 16.53C13.2819 16.7379 13.4836 16.8909 13.7188 16.9598C13.9541 17.0287 14.2064 17.0089 14.428 16.904L14.53 16.848L14.625 16.78C14.8162 16.6268 14.9445 16.4089 14.9856 16.1674C15.0267 15.9259 14.9777 15.6778 14.848 15.47L12.678 12L14.848 8.53C14.9176 8.41864 14.9646 8.29466 14.9863 8.16514C15.008 8.03562 15.0039 7.9031 14.9744 7.77514C14.9449 7.64718 14.8904 7.52629 14.8142 7.41937C14.7379 7.31245 14.6414 7.2216 14.53 7.152Z" fill="black"/>
</g>
<defs>
<clipPath id="clip0_802_58480">
<rect width="24" height="24" fill="white"/>
</clipPath>
</defs>
</svg>
