<svg width="24" height="24" viewBox="0 0 24 24" fill="none" xmlns="http://www.w3.org/2000/svg">
<g clip-path="url(#clip0_802_78321)">
<path d="M18.9998 17.9994C19.928 17.9994 20.8183 17.6307 21.4746 16.9743C22.131 16.3179 22.4998 15.4277 22.4998 14.4994C22.4998 13.5712 22.131 12.6809 21.4746 12.0246C20.8183 11.3682 19.928 10.9994 18.9998 10.9994H17.9998C18.3968 9.23143 17.7148 7.40643 16.2118 6.21243C14.7088 5.01943 12.6118 4.63743 10.7118 5.21243C8.81176 5.78743 7.39676 7.23143 6.99976 8.99943C4.80076 8.91143 2.84476 10.3254 2.33376 12.3724C1.82176 14.4194 2.89776 16.5264 4.89976 17.3994" stroke="black" stroke-width="2" stroke-linecap="round" stroke-linejoin="round"/>
<path d="M8 16C8 15.7348 8.10536 15.4804 8.29289 15.2929C8.48043 15.1054 8.73478 15 9 15H15C15.2652 15 15.5196 15.1054 15.7071 15.2929C15.8946 15.4804 16 15.7348 16 16V19C16 19.2652 15.8946 19.5196 15.7071 19.7071C15.5196 19.8946 15.2652 20 15 20H9C8.73478 20 8.48043 19.8946 8.29289 19.7071C8.10536 19.5196 8 19.2652 8 19V16Z" stroke="black" stroke-width="2" stroke-linecap="round" stroke-linejoin="round"/>
<path d="M10 14.9991V12.9991C9.99849 12.5575 10.1431 12.1279 10.4114 11.7772C10.6796 11.4265 11.0563 11.1744 11.4829 11.0602C11.9094 10.946 12.3617 10.9762 12.7693 11.1461C13.1769 11.3159 13.5168 11.6158 13.736 11.9991" stroke="black" stroke-width="2" stroke-linecap="round" stroke-linejoin="round"/>
</g>
<defs>
<clipPath id="clip0_802_78321">
<rect width="24" height="24" fill="white"/>
</clipPath>
</defs>
</svg>
