<svg width="24" height="24" viewBox="0 0 24 24" fill="none" xmlns="http://www.w3.org/2000/svg">
<g clip-path="url(#clip0_802_78111)">
<path d="M8 7.99865L8.553 7.72265C8.70542 7.64649 8.87477 7.61053 9.04499 7.6182C9.21521 7.62587 9.38065 7.6769 9.52561 7.76646C9.67056 7.85602 9.79023 7.98113 9.87326 8.12993C9.95628 8.27872 9.99991 8.44626 10 8.61665V14.9987C10 15.5291 10.2107 16.0378 10.5858 16.4129C10.9609 16.7879 11.4696 16.9987 12 16.9987H12.5C13.163 16.9987 13.7989 16.7353 14.2678 16.2664C14.7366 15.7976 15 15.1617 15 14.4987V13.9987H14" stroke="black" stroke-width="2" stroke-linecap="round" stroke-linejoin="round"/>
<path d="M8 11H15" stroke="black" stroke-width="2" stroke-linecap="round" stroke-linejoin="round"/>
<path d="M3 12C3 13.1819 3.23279 14.3522 3.68508 15.4442C4.13738 16.5361 4.80031 17.5282 5.63604 18.364C6.47177 19.1997 7.46392 19.8626 8.55585 20.3149C9.64778 20.7672 10.8181 21 12 21C13.1819 21 14.3522 20.7672 15.4442 20.3149C16.5361 19.8626 17.5282 19.1997 18.364 18.364C19.1997 17.5282 19.8626 16.5361 20.3149 15.4442C20.7672 14.3522 21 13.1819 21 12C21 9.61305 20.0518 7.32387 18.364 5.63604C16.6761 3.94821 14.3869 3 12 3C9.61305 3 7.32387 3.94821 5.63604 5.63604C3.94821 7.32387 3 9.61305 3 12Z" stroke="black" stroke-width="2" stroke-linecap="round" stroke-linejoin="round"/>
</g>
<defs>
<clipPath id="clip0_802_78111">
<rect width="24" height="24" fill="white"/>
</clipPath>
</defs>
</svg>
