<svg width="24" height="24" viewBox="0 0 24 24" fill="none" xmlns="http://www.w3.org/2000/svg">
<g clip-path="url(#clip0_802_75984)">
<path d="M8 9C8 10.3261 8.52678 11.5979 9.46447 12.5355C10.4021 13.4732 11.6739 14 13 14C14.3261 14 15.5979 13.4732 16.5355 12.5355C17.4732 11.5979 18 10.3261 18 9C18 7.67392 17.4732 6.40215 16.5355 5.46447C15.5979 4.52678 14.3261 4 13 4C11.6739 4 10.4021 4.52678 9.46447 5.46447C8.52678 6.40215 8 7.67392 8 9Z" stroke="black" stroke-width="2" stroke-linecap="round" stroke-linejoin="round"/>
<path d="M9 6H5C4.46957 6 3.96086 6.21071 3.58579 6.58579C3.21071 6.96086 3 7.46957 3 8V16C3 16.5304 3.21071 17.0391 3.58579 17.4142C3.96086 17.7893 4.46957 18 5 18H19C19.5304 18 20.0391 17.7893 20.4142 17.4142C20.7893 17.0391 21 16.5304 21 16V8C21 7.46957 20.7893 6.96086 20.4142 6.58579C20.0391 6.21071 19.5304 6 19 6H17" stroke="black" stroke-width="2" stroke-linecap="round" stroke-linejoin="round"/>
<path d="M6 15H7" stroke="black" stroke-width="2" stroke-linecap="round" stroke-linejoin="round"/>
<path d="M7 18L6 20" stroke="black" stroke-width="2" stroke-linecap="round" stroke-linejoin="round"/>
<path d="M18 18L19 20" stroke="black" stroke-width="2" stroke-linecap="round" stroke-linejoin="round"/>
</g>
<defs>
<clipPath id="clip0_802_75984">
<rect width="24" height="24" fill="white"/>
</clipPath>
</defs>
</svg>
