<svg width="24" height="24" viewBox="0 0 24 24" fill="none" xmlns="http://www.w3.org/2000/svg">
<g clip-path="url(#clip0_802_74916)">
<path d="M7 7H6C5.46957 7 4.96086 7.21071 4.58579 7.58579C4.21071 7.96086 4 8.46957 4 9V18C4 18.5304 4.21071 19.0391 4.58579 19.4142C4.96086 19.7893 5.46957 20 6 20H15C15.5304 20 16.0391 19.7893 16.4142 19.4142C16.7893 19.0391 17 18.5304 17 18V17" stroke="black" stroke-width="2" stroke-linecap="round" stroke-linejoin="round"/>
<path d="M10.507 10.4981L9 12.0001V15.0001H12L13.493 13.5021M15.493 11.4921L20.383 6.58511C20.7768 6.19126 20.9981 5.65709 20.9981 5.10011C20.9981 4.54312 20.7768 4.00895 20.383 3.61511C19.9892 3.22126 19.455 3 18.898 3C18.341 3 17.8068 3.22126 17.413 3.61511L12.5 8.51111" stroke="black" stroke-width="2" stroke-linecap="round" stroke-linejoin="round"/>
<path d="M16 5L19 8" stroke="black" stroke-width="2" stroke-linecap="round" stroke-linejoin="round"/>
<path d="M3 3L21 21" stroke="black" stroke-width="2" stroke-linecap="round" stroke-linejoin="round"/>
</g>
<defs>
<clipPath id="clip0_802_74916">
<rect width="24" height="24" fill="white"/>
</clipPath>
</defs>
</svg>
