<svg width="24" height="24" viewBox="0 0 24 24" fill="none" xmlns="http://www.w3.org/2000/svg">
<g clip-path="url(#clip0_802_73568)">
<path d="M12.901 14.7016C12.5749 14.5027 12.2726 14.2672 12 13.9996C11.0654 13.0835 9.80876 12.5703 8.5 12.5703C7.19124 12.5703 5.93464 13.0835 5 13.9996V4.9996C5.93464 4.08346 7.19124 3.57031 8.5 3.57031C9.80876 3.57031 11.0654 4.08346 12 4.9996C12.9346 5.91573 14.1912 6.42888 15.5 6.42888C16.8088 6.42888 18.0654 5.91573 19 4.9996V11.4996" stroke="black" stroke-width="2" stroke-linecap="round" stroke-linejoin="round"/>
<path d="M5 21V14" stroke="black" stroke-width="2" stroke-linecap="round" stroke-linejoin="round"/>
<path d="M17 19C17 19.5304 17.2107 20.0391 17.5858 20.4142C17.9609 20.7893 18.4696 21 19 21C19.5304 21 20.0391 20.7893 20.4142 20.4142C20.7893 20.0391 21 19.5304 21 19C21 18.4696 20.7893 17.9609 20.4142 17.5858C20.0391 17.2107 19.5304 17 19 17C18.4696 17 17.9609 17.2107 17.5858 17.5858C17.2107 17.9609 17 18.4696 17 19Z" stroke="black" stroke-width="2" stroke-linecap="round" stroke-linejoin="round"/>
<path d="M19 15.5V17" stroke="black" stroke-width="2" stroke-linecap="round" stroke-linejoin="round"/>
<path d="M19 21V22.5" stroke="black" stroke-width="2" stroke-linecap="round" stroke-linejoin="round"/>
<path d="M22.0334 17.25L20.7344 18" stroke="black" stroke-width="2" stroke-linecap="round" stroke-linejoin="round"/>
<path d="M17.2688 20L15.9688 20.75" stroke="black" stroke-width="2" stroke-linecap="round" stroke-linejoin="round"/>
<path d="M15.9688 17.25L17.2688 18" stroke="black" stroke-width="2" stroke-linecap="round" stroke-linejoin="round"/>
<path d="M20.7344 20L22.0344 20.75" stroke="black" stroke-width="2" stroke-linecap="round" stroke-linejoin="round"/>
</g>
<defs>
<clipPath id="clip0_802_73568">
<rect width="24" height="24" fill="white"/>
</clipPath>
</defs>
</svg>
