<svg width="24" height="24" viewBox="0 0 24 24" fill="none" xmlns="http://www.w3.org/2000/svg">
<g clip-path="url(#clip0_802_73502)">
<path d="M13.5 14.9996C12.9426 14.7616 12.4341 14.4226 12 13.9996C11.0654 13.0835 9.80876 12.5703 8.5 12.5703C7.19124 12.5703 5.93464 13.0835 5 13.9996V4.9996C5.93464 4.08346 7.19124 3.57031 8.5 3.57031C9.80876 3.57031 11.0654 4.08346 12 4.9996C12.9346 5.91573 14.1912 6.42888 15.5 6.42888C16.8088 6.42888 18.0654 5.91573 19 4.9996V10.9996" stroke="black" stroke-width="2" stroke-linecap="round" stroke-linejoin="round"/>
<path d="M5 21V14" stroke="black" stroke-width="2" stroke-linecap="round" stroke-linejoin="round"/>
<path d="M19 22V22.01" stroke="black" stroke-width="2" stroke-linecap="round" stroke-linejoin="round"/>
<path d="M19 18.9998C19.4483 18.9983 19.8832 18.8466 20.235 18.5687C20.5868 18.2909 20.8352 17.903 20.9406 17.4673C21.0459 17.0315 21.0019 16.5731 20.8158 16.1652C20.6297 15.7574 20.3122 15.4238 19.914 15.2178C19.5162 15.014 19.0611 14.9508 18.6228 15.0385C18.1845 15.1262 17.7888 15.3596 17.5 15.7008" stroke="black" stroke-width="2" stroke-linecap="round" stroke-linejoin="round"/>
</g>
<defs>
<clipPath id="clip0_802_73502">
<rect width="24" height="24" fill="white"/>
</clipPath>
</defs>
</svg>
