<svg width="24" height="24" viewBox="0 0 24 24" fill="none" xmlns="http://www.w3.org/2000/svg">
<g clip-path="url(#clip0_802_73382)">
<path d="M9 12C9 12.7956 9.31607 13.5587 9.87868 14.1213C10.4413 14.6839 11.2044 15 12 15C12.7956 15 13.5587 14.6839 14.1213 14.1213C14.6839 13.5587 15 12.7956 15 12C15 11.2044 14.6839 10.4413 14.1213 9.87868C13.5587 9.31607 12.7956 9 12 9C11.2044 9 10.4413 9.31607 9.87868 9.87868C9.31607 10.4413 9 11.2044 9 12Z" stroke="black" stroke-width="2" stroke-linecap="round" stroke-linejoin="round"/>
<path d="M12.0004 2C12.796 2 13.5591 2.31607 14.1217 2.87868C14.6843 3.44129 15.0004 4.20435 15.0004 5C15.0004 5.562 14.7414 6.442 14.2244 7.64L13.5004 9L15.2604 7.107C15.7594 6.507 16.1824 6.107 16.5304 5.902C16.8693 5.70519 17.2439 5.57747 17.6325 5.52621C18.0211 5.47495 18.416 5.50116 18.7944 5.60334C19.1728 5.70552 19.5272 5.88163 19.8372 6.12152C20.1471 6.36141 20.4065 6.66032 20.6004 7.001C20.9959 7.68975 21.1033 8.50687 20.8991 9.27442C20.6949 10.042 20.1958 10.6978 19.5104 11.099C19.1364 11.316 18.5204 11.495 17.6644 11.634L15.0004 12L17.4004 12.326C18.4004 12.471 19.0984 12.663 19.5104 12.902C20.1958 13.3032 20.6949 13.959 20.8991 14.7266C21.1033 15.4941 20.9959 16.3113 20.6004 17C20.4064 17.3406 20.147 17.6394 19.837 17.8792C19.527 18.119 19.1725 18.295 18.7942 18.3971C18.4158 18.4992 18.0209 18.5253 17.6323 18.474C17.2438 18.4226 16.8693 18.2949 16.5304 18.098C16.1824 17.896 15.7594 17.494 15.2604 16.893L13.5004 15L14.2244 16.36C14.7404 17.559 15.0004 18.439 15.0004 19C15.0004 19.7956 14.6843 20.5587 14.1217 21.1213C13.5591 21.6839 12.796 22 12.0004 22C11.2047 22 10.4416 21.6839 9.87903 21.1213C9.31642 20.5587 9.00035 19.7956 9.00035 19C9.00035 18.438 9.25935 17.558 9.77635 16.36L10.5004 15L8.74035 16.893C8.24135 17.494 7.81835 17.893 7.47035 18.098C7.13145 18.2949 6.75692 18.4226 6.36837 18.474C5.97982 18.5253 5.58496 18.4992 5.20656 18.3971C4.82816 18.295 4.47373 18.119 4.16372 17.8792C3.85371 17.6394 3.59427 17.3406 3.40035 17C3.00483 16.3113 2.89745 15.4941 3.10161 14.7266C3.30577 13.959 3.80492 13.3032 4.49035 12.902C4.86435 12.684 5.48035 12.506 6.33635 12.366L9.00035 12L6.60035 11.675C5.60035 11.53 4.90235 11.338 4.49035 11.099C3.80465 10.6978 3.3053 10.0418 3.10113 9.27399C2.89696 8.5062 3.00452 7.68884 3.40035 7C3.59418 6.65932 3.85357 6.36041 4.16354 6.12052C4.47351 5.88063 4.82793 5.70452 5.20633 5.60234C5.58473 5.50016 5.97963 5.47395 6.36822 5.52521C6.75681 5.57647 7.13139 5.70419 7.47035 5.901C7.81835 6.104 8.24135 6.505 8.74035 7.106L10.5004 9C9.50035 6.708 9.00035 5.375 9.00035 5C9.00035 4.20435 9.31642 3.44129 9.87903 2.87868C10.4416 2.31607 11.2047 2 12.0004 2Z" stroke="black" stroke-width="2" stroke-linecap="round" stroke-linejoin="round"/>
</g>
<defs>
<clipPath id="clip0_802_73382">
<rect width="24" height="24" fill="white"/>
</clipPath>
</defs>
</svg>
