<svg width="24" height="24" viewBox="0 0 24 24" fill="none" xmlns="http://www.w3.org/2000/svg">
<g clip-path="url(#clip0_802_58161)">
<path d="M17 3.33989C18.5083 4.21075 19.7629 5.46042 20.6398 6.96519C21.5167 8.46997 21.9854 10.1777 21.9994 11.9192C22.0135 13.6608 21.5725 15.3758 20.72 16.8946C19.8676 18.4133 18.6332 19.6831 17.1392 20.5782C15.6452 21.4733 13.9434 21.9627 12.2021 21.998C10.4608 22.0332 8.74055 21.6131 7.21155 20.7791C5.68256 19.9452 4.39787 18.7264 3.48467 17.2434C2.57146 15.7604 2.06141 14.0646 2.005 12.3239L2 11.9999L2.005 11.6759C2.061 9.94888 2.56355 8.26585 3.46364 6.79089C4.36373 5.31592 5.63065 4.09934 7.14089 3.25977C8.65113 2.42021 10.3531 1.98629 12.081 2.00033C13.8089 2.01437 15.5036 2.47589 17 3.33989ZM15.707 8.29289C15.5195 8.10542 15.2652 8.00011 15 8.00011C14.7348 8.00011 14.4805 8.10542 14.293 8.29289L8.293 14.2929L8.21 14.3869C8.05459 14.5879 7.98151 14.8405 8.0056 15.0934C8.02969 15.3463 8.14916 15.5806 8.33972 15.7486C8.53029 15.9167 8.77767 16.0059 9.03162 15.9981C9.28557 15.9904 9.52704 15.8862 9.707 15.7069L15.707 9.70689L15.79 9.61289C15.9393 9.42049 16.0132 9.18024 15.9979 8.93721C15.9826 8.69419 15.8792 8.46509 15.707 8.29289Z" fill="black"/>
</g>
<defs>
<clipPath id="clip0_802_58161">
<rect width="24" height="24" fill="white"/>
</clipPath>
</defs>
</svg>
