<svg width="24" height="24" viewBox="0 0 24 24" fill="none" xmlns="http://www.w3.org/2000/svg">
<g clip-path="url(#clip0_802_72785)">
<path d="M4 18C4 18.5304 4.21071 19.0391 4.58579 19.4142C4.96086 19.7893 5.46957 20 6 20C6.53043 20 7.03914 19.7893 7.41421 19.4142C7.78929 19.0391 8 18.5304 8 18C8 17.4696 7.78929 16.9609 7.41421 16.5858C7.03914 16.2107 6.53043 16 6 16C5.46957 16 4.96086 16.2107 4.58579 16.5858C4.21071 16.9609 4 17.4696 4 18Z" stroke="black" stroke-width="2" stroke-linecap="round" stroke-linejoin="round"/>
<path d="M4 6C4 6.53043 4.21071 7.03914 4.58579 7.41421C4.96086 7.78929 5.46957 8 6 8C6.53043 8 7.03914 7.78929 7.41421 7.41421C7.78929 7.03914 8 6.53043 8 6C8 5.46957 7.78929 4.96086 7.41421 4.58579C7.03914 4.21071 6.53043 4 6 4C5.46957 4 4.96086 4.21071 4.58579 4.58579C4.21071 4.96086 4 5.46957 4 6Z" stroke="black" stroke-width="2" stroke-linecap="round" stroke-linejoin="round"/>
<path d="M16 18C16 18.5304 16.2107 19.0391 16.5858 19.4142C16.9609 19.7893 17.4696 20 18 20C18.5304 20 19.0391 19.7893 19.4142 19.4142C19.7893 19.0391 20 18.5304 20 18C20 17.4696 19.7893 16.9609 19.4142 16.5858C19.0391 16.2107 18.5304 16 18 16C17.4696 16 16.9609 16.2107 16.5858 16.5858C16.2107 16.9609 16 17.4696 16 18Z" stroke="black" stroke-width="2" stroke-linecap="round" stroke-linejoin="round"/>
<path d="M6 8V16" stroke="black" stroke-width="2" stroke-linecap="round" stroke-linejoin="round"/>
<path d="M11 6H16C16.5304 6 17.0391 6.21071 17.4142 6.58579C17.7893 6.96086 18 7.46957 18 8V16" stroke="black" stroke-width="2" stroke-linecap="round" stroke-linejoin="round"/>
<path d="M14 9L11 6L14 3" stroke="black" stroke-width="2" stroke-linecap="round" stroke-linejoin="round"/>
</g>
<defs>
<clipPath id="clip0_802_72785">
<rect width="24" height="24" fill="white"/>
</clipPath>
</defs>
</svg>
