<svg width="24" height="24" viewBox="0 0 24 24" fill="none" xmlns="http://www.w3.org/2000/svg">
<g clip-path="url(#clip0_802_72325)">
<path d="M4 14.0016V11.0016C4 9.04858 4.7 7.25958 5.862 5.87158M8.044 4.04658C9.26096 3.35422 10.6383 2.99337 12.0384 3.00009C13.4385 3.00682 14.8124 3.38088 16.0226 4.08491C17.2329 4.78893 18.2372 5.79825 18.9351 7.01201C19.6331 8.22577 20.0003 9.60145 20 11.0016V14.0016" stroke="black" stroke-width="2" stroke-linecap="round" stroke-linejoin="round"/>
<path d="M18 19C18 20.657 15.314 22 12 22" stroke="black" stroke-width="2" stroke-linecap="round" stroke-linejoin="round"/>
<path d="M4 14C4 13.4696 4.21071 12.9609 4.58579 12.5858C4.96086 12.2107 5.46957 12 6 12H7C7.53043 12 8.03914 12.2107 8.41421 12.5858C8.78929 12.9609 9 13.4696 9 14V17C9 17.5304 8.78929 18.0391 8.41421 18.4142C8.03914 18.7893 7.53043 19 7 19H6C5.46957 19 4.96086 18.7893 4.58579 18.4142C4.21071 18.0391 4 17.5304 4 17V14Z" stroke="black" stroke-width="2" stroke-linecap="round" stroke-linejoin="round"/>
<path d="M16.169 12.18C16.422 12.065 16.703 12 17 12H18C18.5304 12 19.0391 12.2107 19.4142 12.5858C19.7893 12.9609 20 13.4696 20 14V16M18.817 18.826C18.567 18.938 18.291 19 18 19H17C16.4696 19 15.9609 18.7893 15.5858 18.4142C15.2107 18.0391 15 17.5304 15 17V15" stroke="black" stroke-width="2" stroke-linecap="round" stroke-linejoin="round"/>
<path d="M3 3L21 21" stroke="black" stroke-width="2" stroke-linecap="round" stroke-linejoin="round"/>
</g>
<defs>
<clipPath id="clip0_802_72325">
<rect width="24" height="24" fill="white"/>
</clipPath>
</defs>
</svg>
