<svg width="24" height="24" viewBox="0 0 24 24" fill="none" xmlns="http://www.w3.org/2000/svg">
<g clip-path="url(#clip0_802_72139)">
<path d="M12.8016 2.16461L18.3766 4.55361C18.8566 4.75961 19.2396 5.14261 19.4466 5.62361L21.8346 11.1976C22.0546 11.7096 22.0546 12.2896 21.8346 12.8016L19.4456 18.3766C19.2396 18.8566 18.8566 19.2396 18.3756 19.4466L12.8016 21.8346C12.2896 22.0546 11.7096 22.0546 11.1976 21.8346L5.62261 19.4456C5.14173 19.2397 4.75857 18.8565 4.55261 18.3756L2.16461 12.8016C2.056 12.5482 2 12.2753 2 11.9996C2 11.7239 2.056 11.451 2.16461 11.1976L4.55361 5.62261C4.75961 5.14261 5.14261 4.75961 5.62361 4.55261L11.1976 2.16461C11.451 2.056 11.7239 2 11.9996 2C12.2753 2 12.5482 2.056 12.8016 2.16461Z" stroke="black" stroke-width="2" stroke-linecap="round" stroke-linejoin="round"/>
<path d="M12 16V16.01" stroke="black" stroke-width="2" stroke-linecap="round" stroke-linejoin="round"/>
<path d="M12 12.9998C12.4498 13.0011 12.8868 12.8508 13.2407 12.5732C13.5945 12.2956 13.8444 11.9068 13.95 11.4696C14.0557 11.0324 14.0109 10.5724 13.8229 10.1638C13.6349 9.75524 13.3147 9.42195 12.914 9.21776C12.5162 9.01397 12.0611 8.95079 11.6228 9.03848C11.1845 9.12618 10.7888 9.3596 10.5 9.70076" stroke="black" stroke-width="2" stroke-linecap="round" stroke-linejoin="round"/>
</g>
<defs>
<clipPath id="clip0_802_72139">
<rect width="24" height="24" fill="white"/>
</clipPath>
</defs>
</svg>
