<svg width="24" height="24" viewBox="0 0 24 24" fill="none" xmlns="http://www.w3.org/2000/svg">
<g clip-path="url(#clip0_802_72119)">
<path d="M3 5C3 4.46957 3.21071 3.96086 3.58579 3.58579C3.96086 3.21071 4.46957 3 5 3H19C19.5304 3 20.0391 3.21071 20.4142 3.58579C20.7893 3.96086 21 4.46957 21 5V19C21 19.5304 20.7893 20.0391 20.4142 20.4142C20.0391 20.7893 19.5304 21 19 21H5C4.46957 21 3.96086 20.7893 3.58579 20.4142C3.21071 20.0391 3 19.5304 3 19V5Z" stroke="black" stroke-width="2" stroke-linecap="round" stroke-linejoin="round"/>
<path d="M12 16V16.01" stroke="black" stroke-width="2" stroke-linecap="round" stroke-linejoin="round"/>
<path d="M12 12.9998C12.4498 13.0011 12.8868 12.8508 13.2407 12.5732C13.5945 12.2956 13.8444 11.9068 13.95 11.4696C14.0557 11.0324 14.0109 10.5724 13.8229 10.1638C13.6349 9.75524 13.3147 9.42195 12.914 9.21776C12.5162 9.01397 12.0611 8.95079 11.6228 9.03848C11.1845 9.12618 10.7888 9.3596 10.5 9.70076" stroke="black" stroke-width="2" stroke-linecap="round" stroke-linejoin="round"/>
</g>
<defs>
<clipPath id="clip0_802_72119">
<rect width="24" height="24" fill="white"/>
</clipPath>
</defs>
</svg>
