<svg width="24" height="24" viewBox="0 0 24 24" fill="none" xmlns="http://www.w3.org/2000/svg">
<g clip-path="url(#clip0_802_72080)">
<path d="M19.875 6.26959C20.2187 6.46505 20.5041 6.74856 20.7018 7.09095C20.8995 7.43333 21.0025 7.82222 21 8.21759V15.5016C21 16.3106 20.557 17.0566 19.842 17.4496L13.092 21.7196C12.7574 21.9033 12.3818 21.9996 12 21.9996C11.6182 21.9996 11.2426 21.9033 10.908 21.7196L4.158 17.4496C3.80817 17.2584 3.51612 16.9768 3.31241 16.6341C3.1087 16.2914 3.0008 15.9003 3 15.5016V8.21659C3 7.40759 3.443 6.66259 4.158 6.26959L10.908 2.28959C11.2525 2.09963 11.6396 2 12.033 2C12.4264 2 12.8135 2.09963 13.158 2.28959L19.908 6.26959H19.875Z" stroke="black" stroke-width="2" stroke-linecap="round" stroke-linejoin="round"/>
<path d="M10 16V10C10 9.46957 10.2107 8.96086 10.5858 8.58579C10.9609 8.21071 11.4696 8 12 8C12.5304 8 13.0391 8.21071 13.4142 8.58579C13.7893 8.96086 14 9.46957 14 10V16" stroke="black" stroke-width="2" stroke-linecap="round" stroke-linejoin="round"/>
<path d="M10 13H14" stroke="black" stroke-width="2" stroke-linecap="round" stroke-linejoin="round"/>
</g>
<defs>
<clipPath id="clip0_802_72080">
<rect width="24" height="24" fill="white"/>
</clipPath>
</defs>
</svg>
