<svg width="24" height="24" viewBox="0 0 24 24" fill="none" xmlns="http://www.w3.org/2000/svg">
<g clip-path="url(#clip0_802_58068)">
<path d="M13.666 1.42714L20.416 5.40714L20.512 5.47014L20.605 5.54814L20.711 5.62214C21.086 5.90309 21.3952 6.26251 21.617 6.67531C21.8388 7.08811 21.9678 7.54434 21.995 8.01214L22 8.21614V15.5001C22 16.6751 21.357 17.7561 20.377 18.2931L13.573 22.5951C12.593 23.1331 11.407 23.1331 10.373 22.5631L3.678 18.3261C3.171 18.0484 2.74784 17.6396 2.45269 17.1425C2.15753 16.6454 2.0012 16.0783 2 15.5001V8.21514C2 7.10914 2.57 6.08714 3.476 5.51014L10.426 1.41214C11.426 0.860144 12.64 0.860144 13.666 1.42714ZM12 6.99814C11.7348 6.99814 11.4804 7.1035 11.2929 7.29104C11.1054 7.47857 11 7.73293 11 7.99814V15.9981C11 16.2634 11.1054 16.5177 11.2929 16.7053C11.4804 16.8928 11.7348 16.9981 12 16.9981C12.2652 16.9981 12.5196 16.8928 12.7071 16.7053C12.8946 16.5177 13 16.2634 13 15.9981V7.99814C13 7.73293 12.8946 7.47857 12.7071 7.29104C12.5196 7.1035 12.2652 6.99814 12 6.99814Z" fill="black"/>
</g>
<defs>
<clipPath id="clip0_802_58068">
<rect width="24" height="24" fill="white"/>
</clipPath>
</defs>
</svg>
