<svg width="24" height="24" viewBox="0 0 24 24" fill="none" xmlns="http://www.w3.org/2000/svg">
<g clip-path="url(#clip0_802_58020)">
<path d="M13.666 1.42714L20.416 5.40714L20.512 5.47014L20.605 5.54814L20.711 5.62214C21.086 5.90309 21.3952 6.26251 21.617 6.67531C21.8388 7.08811 21.9678 7.54434 21.995 8.01214L22 8.21614V15.5001C22 16.6751 21.357 17.7561 20.377 18.2931L13.573 22.5951C12.593 23.1331 11.407 23.1331 10.373 22.5631L3.678 18.3261C3.171 18.0484 2.74784 17.6396 2.45269 17.1425C2.15753 16.6454 2.0012 16.0783 2 15.5001V8.21514C2 7.10914 2.57 6.08714 3.476 5.51014L10.426 1.41214C11.426 0.860144 12.64 0.860144 13.666 1.42714ZM14.371 7.07014C14.2491 7.02135 14.1187 6.99705 13.9874 6.99864C13.8561 7.00022 13.7263 7.02766 13.6056 7.07938C13.4849 7.1311 13.3756 7.2061 13.2838 7.30009C13.1921 7.39407 13.1198 7.50521 13.071 7.62714L12 10.3051L10.928 7.62714C10.8236 7.38983 10.631 7.20236 10.391 7.10428C10.151 7.0062 9.88226 7.00518 9.64151 7.10143C9.40075 7.19768 9.20679 7.38367 9.10054 7.62019C8.99429 7.8567 8.98406 8.12523 9.072 8.36914L11 13.1921V15.9981C11 16.2431 11.09 16.4795 11.2527 16.6625C11.4155 16.8456 11.6397 16.9625 11.883 16.9911L12 16.9981C12.2652 16.9981 12.5196 16.8928 12.7071 16.7053C12.8946 16.5177 13 16.2634 13 15.9981V13.1891L14.928 8.36914C15.019 8.14183 15.0235 7.88901 14.9406 7.65862C14.8576 7.42822 14.693 7.23627 14.478 7.11914L14.371 7.07014Z" fill="black"/>
</g>
<defs>
<clipPath id="clip0_802_58020">
<rect width="24" height="24" fill="white"/>
</clipPath>
</defs>
</svg>
