<svg width="24" height="24" viewBox="0 0 24 24" fill="none" xmlns="http://www.w3.org/2000/svg">
<g clip-path="url(#clip0_802_71296)">
<path d="M5.63606 5.63606C4.80032 6.47179 4.13738 7.46395 3.68509 8.55588C3.23279 9.64782 3 10.8182 3 12.0001C3 13.182 3.23279 14.3523 3.68509 15.4442C4.13738 16.5362 4.80032 17.5283 5.63605 18.3641C6.47179 19.1998 7.46395 19.8627 8.55588 20.315C9.64782 20.7673 10.8182 21.0001 12.0001 21.0001C13.182 21.0001 14.3523 20.7673 15.4442 20.315C16.5362 19.8627 17.5283 19.1998 18.3641 18.3641C20.0519 16.6762 21.0001 14.387 21.0001 12.0001C21.0001 9.61309 20.0519 7.32389 18.3641 5.63606C16.6762 3.94822 14.387 3 12.0001 3C9.61309 3 7.32389 3.94822 5.63606 5.63606Z" stroke="black" stroke-width="2" stroke-linecap="round" stroke-linejoin="round"/>
<path d="M16.2438 7.75772C15.6866 7.20046 15.0252 6.75841 14.2971 6.45682C13.5691 6.15523 12.7888 6 12.0008 6C11.2128 6 10.4325 6.15523 9.70448 6.45682C8.97646 6.75841 8.31498 7.20046 7.75781 7.75772" stroke="black" stroke-width="2" stroke-linecap="round" stroke-linejoin="round"/>
</g>
<defs>
<clipPath id="clip0_802_71296">
<rect width="24" height="24" fill="white"/>
</clipPath>
</defs>
</svg>
