<svg width="24" height="24" viewBox="0 0 24 24" fill="none" xmlns="http://www.w3.org/2000/svg">
<g clip-path="url(#clip0_802_57945)">
<path d="M5.14375 4.71984C9.06375 1.02484 15.2367 1.09484 19.0707 4.92884C22.9757 8.83384 22.9757 15.1658 19.0707 19.0708C15.1657 22.9758 8.83375 22.9758 4.92875 19.0708C1.02375 15.1658 1.02375 8.83384 4.92875 4.92884L5.14375 4.71984ZM8.46375 15.5358C8.3715 15.4403 8.26116 15.3642 8.13915 15.3117C8.01715 15.2593 7.88593 15.2317 7.75315 15.2306C7.62037 15.2294 7.48869 15.2547 7.3658 15.305C7.2429 15.3553 7.13125 15.4296 7.03735 15.5234C6.94346 15.6173 6.86921 15.729 6.81893 15.8519C6.76865 15.9748 6.74335 16.1065 6.7445 16.2392C6.74565 16.372 6.77324 16.5032 6.82565 16.6252C6.87806 16.7473 6.95424 16.8576 7.04975 16.9498C7.69977 17.5999 8.47148 18.1156 9.3208 18.4674C10.1701 18.8193 11.0804 19.0003 11.9998 19.0003C12.9191 19.0003 13.8294 18.8193 14.6787 18.4674C15.528 18.1156 16.2997 17.5999 16.9498 16.9498C17.1319 16.7612 17.2327 16.5086 17.2304 16.2464C17.2281 15.9842 17.123 15.7334 16.9376 15.548C16.7522 15.3626 16.5013 15.2574 16.2392 15.2552C15.977 15.2529 15.7244 15.3537 15.5358 15.5358C15.0714 16.0003 14.5202 16.3687 13.9135 16.62C13.3068 16.8714 12.6565 17.0008 11.9998 17.0008C11.343 17.0008 10.6927 16.8714 10.086 16.62C9.47931 16.3687 8.92806 16.0003 8.46375 15.5358Z" fill="black"/>
</g>
<defs>
<clipPath id="clip0_802_57945">
<rect width="24" height="24" fill="white"/>
</clipPath>
</defs>
</svg>
