<svg width="24" height="24" viewBox="0 0 24 24" fill="none" xmlns="http://www.w3.org/2000/svg">
<g clip-path="url(#clip0_802_57869)">
<path d="M20 3C20.2652 3 20.5196 3.10536 20.7071 3.29289C20.8946 3.48043 21 3.73478 21 4V20C21 20.2652 20.8946 20.5196 20.7071 20.7071C20.5196 20.8946 20.2652 21 20 21C19.7348 21 19.4804 20.8946 19.2929 20.7071C19.1054 20.5196 19 20.2652 19 20V4C19 3.73478 19.1054 3.48043 19.2929 3.29289C19.4804 3.10536 19.7348 3 20 3Z" fill="black"/>
<path d="M14 8C14.7956 8 15.5587 8.31607 16.1213 8.87868C16.6839 9.44129 17 10.2044 17 11V13C17 13.7956 16.6839 14.5587 16.1213 15.1213C15.5587 15.6839 14.7956 16 14 16H6C5.20435 16 4.44129 15.6839 3.87868 15.1213C3.31607 14.5587 3 13.7956 3 13V11C3 10.2044 3.31607 9.44129 3.87868 8.87868C4.44129 8.31607 5.20435 8 6 8H14Z" fill="black"/>
</g>
<defs>
<clipPath id="clip0_802_57869">
<rect width="24" height="24" fill="white"/>
</clipPath>
</defs>
</svg>
