<svg width="24" height="24" viewBox="0 0 24 24" fill="none" xmlns="http://www.w3.org/2000/svg">
<g clip-path="url(#clip0_802_70453)">
<path d="M9.17082 9.172C8.4336 9.92409 8.02273 10.9366 8.02738 11.9897C8.03203 13.0429 8.45183 14.0517 9.19567 14.7972C9.9395 15.5428 10.9474 15.9649 12.0005 15.972C13.0536 15.979 14.067 15.5705 14.8208 14.835M15.9998 12C15.9998 10.9391 15.5784 9.92172 14.8282 9.17157C14.0781 8.42143 13.0607 8 11.9998 8" stroke="black" stroke-width="2" stroke-linecap="round" stroke-linejoin="round"/>
<path d="M5.63993 5.63226C4.79319 6.46565 4.11984 7.45844 3.65871 8.55336C3.19758 9.64828 2.9578 10.8237 2.95319 12.0117C2.94859 13.1998 3.17926 14.377 3.63189 15.4754C4.08452 16.5739 4.75016 17.5719 5.59041 18.4118C6.43067 19.2517 7.4289 19.917 8.52754 20.3692C9.62618 20.8214 10.8035 21.0516 11.9915 21.0465C13.1796 21.0414 14.3549 20.8012 15.4496 20.3396C16.5444 19.8781 17.5369 19.2043 18.3699 18.3573M20.0369 16.0563C20.8915 14.3658 21.1908 12.4487 20.8924 10.5782C20.594 8.7076 19.7129 6.97889 18.3748 5.6382C17.0367 4.29751 15.3096 3.41321 13.4396 3.11122C11.5697 2.80923 9.65206 3.10495 7.95993 3.95626" stroke="black" stroke-width="2" stroke-linecap="round" stroke-linejoin="round"/>
<path d="M15 15L18.35 18.35" stroke="black" stroke-width="2" stroke-linecap="round" stroke-linejoin="round"/>
<path d="M8.99844 15L5.64844 18.35" stroke="black" stroke-width="2" stroke-linecap="round" stroke-linejoin="round"/>
<path d="M5.64844 5.64844L8.99844 8.99844" stroke="black" stroke-width="2" stroke-linecap="round" stroke-linejoin="round"/>
<path d="M18.35 5.64844L15 8.99844" stroke="black" stroke-width="2" stroke-linecap="round" stroke-linejoin="round"/>
<path d="M3 3L21 21" stroke="black" stroke-width="2" stroke-linecap="round" stroke-linejoin="round"/>
</g>
<defs>
<clipPath id="clip0_802_70453">
<rect width="24" height="24" fill="white"/>
</clipPath>
</defs>
</svg>
