<svg width="24" height="24" viewBox="0 0 24 24" fill="none" xmlns="http://www.w3.org/2000/svg">
<g clip-path="url(#clip0_802_68465)">
<path d="M16.909 12.9167C17.8053 12.7509 18.6392 12.3434 19.3207 11.738C20.0021 11.1327 20.5051 10.3526 20.7752 9.48208C21.0454 8.61157 21.0725 7.68377 20.8536 6.79899C20.6346 5.91421 20.178 5.1061 19.533 4.46204C18.8881 3.81798 18.0794 3.36246 17.1943 3.14474C16.3092 2.92702 15.3814 2.95538 14.5113 3.22675C13.6412 3.49812 12.8618 4.00217 12.2574 4.68442C11.6529 5.36667 11.2465 6.20116 11.082 7.09766" stroke="black" stroke-width="2" stroke-linecap="round" stroke-linejoin="round"/>
<path d="M10.1156 10.125L3.58655 17.585C3.21127 17.9599 3.00028 18.4685 3 18.9989C2.99986 19.2616 3.05146 19.5217 3.15184 19.7644C3.25222 20.0071 3.39943 20.2277 3.58505 20.4135C3.77068 20.5993 3.99108 20.7468 4.23369 20.8474C4.47629 20.948 4.73634 20.9999 4.99899 21.0001C5.52944 21.0003 6.03827 20.7899 6.41355 20.415L13.8746 13.886" stroke="black" stroke-width="2" stroke-linecap="round" stroke-linejoin="round"/>
<path d="M3 3L21 21" stroke="black" stroke-width="2" stroke-linecap="round" stroke-linejoin="round"/>
</g>
<defs>
<clipPath id="clip0_802_68465">
<rect width="24" height="24" fill="white"/>
</clipPath>
</defs>
</svg>
