<svg width="24" height="24" viewBox="0 0 24 24" fill="none" xmlns="http://www.w3.org/2000/svg">
<g clip-path="url(#clip0_802_68264)">
<path d="M9 10H9.01" stroke="black" stroke-width="2" stroke-linecap="round" stroke-linejoin="round"/>
<path d="M15 10H15.01" stroke="black" stroke-width="2" stroke-linecap="round" stroke-linejoin="round"/>
<path d="M9.5 15.2497C9.82588 14.9171 10.2148 14.6529 10.6441 14.4725C11.0734 14.2921 11.5344 14.1992 12 14.1992C12.4656 14.1992 12.9266 14.2921 13.3559 14.4725C13.7852 14.6529 14.1741 14.9171 14.5 15.2497" stroke="black" stroke-width="2" stroke-linecap="round" stroke-linejoin="round"/>
<path d="M17.5658 17.606C17.293 17.8867 17.1086 18.2412 17.0353 18.6256C16.9621 19.0101 17.0033 19.4076 17.1537 19.7689C17.3042 20.1302 17.5574 20.4394 17.8819 20.6582C18.2064 20.877 18.5879 20.9958 18.9793 20.9998C19.3706 21.0039 19.7546 20.893 20.0835 20.681C20.4125 20.4689 20.672 20.165 20.8299 19.807C20.9879 19.4489 21.0373 19.0523 20.972 18.6664C20.9067 18.2805 20.7297 17.9222 20.4628 17.636L18.9998 16L17.5658 17.606Z" stroke="black" stroke-width="2" stroke-linecap="round" stroke-linejoin="round"/>
<path d="M20.865 13.517C20.9531 13.0161 20.9983 12.5086 21 12C21 10.22 20.4722 8.47991 19.4832 6.99987C18.4943 5.51983 17.0887 4.36628 15.4442 3.68509C13.7996 3.0039 11.99 2.82567 10.2442 3.17294C8.49836 3.5202 6.89472 4.37737 5.63604 5.63604C4.37737 6.89472 3.5202 8.49836 3.17294 10.2442C2.82567 11.99 3.0039 13.7996 3.68509 15.4442C4.36628 17.0887 5.51983 18.4943 6.99987 19.4832C8.47991 20.4722 10.22 21 12 21C12.69 21 13.36 20.924 14 20.778" stroke="black" stroke-width="2" stroke-linecap="round" stroke-linejoin="round"/>
</g>
<defs>
<clipPath id="clip0_802_68264">
<rect width="24" height="24" fill="white"/>
</clipPath>
</defs>
</svg>
