<svg width="24" height="24" viewBox="0 0 24 24" fill="none" xmlns="http://www.w3.org/2000/svg">
<g clip-path="url(#clip0_802_68151)">
<path d="M20.9845 12.5281C21.0916 10.7059 20.6421 8.89425 19.6957 7.33345C18.7492 5.77266 17.3506 4.53654 15.6853 3.78911C14.02 3.04169 12.1668 2.81828 10.3716 3.14855C8.57638 3.47882 6.92403 4.34714 5.63379 5.6383C4.34354 6.92947 3.47639 8.58243 3.1474 10.3779C2.8184 12.1733 3.04312 14.0263 3.79173 15.6911C4.54034 17.3559 5.77745 18.7536 7.33892 19.699C8.90038 20.6443 10.7124 21.0925 12.5345 20.9841" stroke="black" stroke-width="2" stroke-linecap="round" stroke-linejoin="round"/>
<path d="M16 19H22" stroke="black" stroke-width="2" stroke-linecap="round" stroke-linejoin="round"/>
<path d="M19 16V22" stroke="black" stroke-width="2" stroke-linecap="round" stroke-linejoin="round"/>
<path d="M9 10H9.01" stroke="black" stroke-width="2" stroke-linecap="round" stroke-linejoin="round"/>
<path d="M15 10H15.01" stroke="black" stroke-width="2" stroke-linecap="round" stroke-linejoin="round"/>
<path d="M9.5 15C10.158 15.64 11.06 16 12 16C12.94 16 13.842 15.64 14.5 15" stroke="black" stroke-width="2" stroke-linecap="round" stroke-linejoin="round"/>
</g>
<defs>
<clipPath id="clip0_802_68151">
<rect width="24" height="24" fill="white"/>
</clipPath>
</defs>
</svg>
