<svg width="24" height="24" viewBox="0 0 24 24" fill="none" xmlns="http://www.w3.org/2000/svg">
<g clip-path="url(#clip0_802_68305)">
<path d="M16.9994 4.5C18.0065 5.17149 18.8677 6.03921 19.5316 7.05125C20.1956 8.06329 20.6485 9.19885 20.8634 10.39C21.2377 10.632 21.5404 10.9696 21.7403 11.3679C21.9402 11.7661 22.03 12.2106 22.0005 12.6553C21.9709 13.0999 21.823 13.5286 21.5721 13.8969C21.3212 14.2652 20.9764 14.5597 20.5734 14.75C19.9905 16.5642 18.8467 18.1466 17.3068 19.2692C15.767 20.3918 13.9106 20.9967 12.0049 20.9967C10.0993 20.9967 8.2429 20.3918 6.70305 19.2692C5.1632 18.1466 4.01942 16.5642 3.43644 14.75C3.03347 14.5597 2.68869 14.2652 2.43779 13.8969C2.18689 13.5286 2.03899 13.0999 2.00942 12.6553C1.97984 12.2106 2.06966 11.7661 2.26957 11.3679C2.46948 10.9696 2.77222 10.632 3.14644 10.39C3.35708 9.22247 3.79648 8.1081 4.43936 7.11099C5.08225 6.11389 5.91592 5.25374 6.89244 4.58" stroke="black" stroke-width="2" stroke-linecap="round" stroke-linejoin="round"/>
<path d="M9.5 16C9.82588 16.3326 10.2148 16.5968 10.6441 16.7772C11.0734 16.9576 11.5344 17.0505 12 17.0505C12.4656 17.0505 12.9266 16.9576 13.3559 16.7772C13.7852 16.5968 14.1741 16.3326 14.5 16" stroke="black" stroke-width="2" stroke-linecap="round" stroke-linejoin="round"/>
<path d="M8.5 2C10 3 11 5.5 11 7" stroke="black" stroke-width="2" stroke-linecap="round" stroke-linejoin="round"/>
<path d="M12.5 2C14 4 14.5 5.5 14.5 7" stroke="black" stroke-width="2" stroke-linecap="round" stroke-linejoin="round"/>
<path d="M9 12H9.01" stroke="black" stroke-width="2" stroke-linecap="round" stroke-linejoin="round"/>
<path d="M15 12H15.01" stroke="black" stroke-width="2" stroke-linecap="round" stroke-linejoin="round"/>
</g>
<defs>
<clipPath id="clip0_802_68305">
<rect width="24" height="24" fill="white"/>
</clipPath>
</defs>
</svg>
