<svg width="24" height="24" viewBox="0 0 24 24" fill="none" xmlns="http://www.w3.org/2000/svg">
<g clip-path="url(#clip0_802_67491)">
<path d="M8 4H17C17.5304 4 18.0391 4.21071 18.4142 4.58579C18.7893 4.96086 19 5.46957 19 6V15M18.821 18.828C18.662 19.1776 18.4058 19.474 18.0828 19.6818C17.7599 19.8896 17.384 20.0001 17 20H6C5.73478 20 5.48043 19.8946 5.29289 19.7071C5.10536 19.5196 5 19.2652 5 19V5M9 4V5M9 9V22" stroke="black" stroke-width="2" stroke-linecap="round" stroke-linejoin="round"/>
<path d="M13 8H15" stroke="black" stroke-width="2" stroke-linecap="round" stroke-linejoin="round"/>
<path d="M3 3L21 21" stroke="black" stroke-width="2" stroke-linecap="round" stroke-linejoin="round"/>
</g>
<defs>
<clipPath id="clip0_802_67491">
<rect width="24" height="24" fill="white"/>
</clipPath>
</defs>
</svg>
