<svg width="24" height="24" viewBox="0 0 24 24" fill="none" xmlns="http://www.w3.org/2000/svg">
<g clip-path="url(#clip0_802_57630)">
<path d="M3 5.0003V19.0003C2.99995 19.1763 3.04632 19.3491 3.13444 19.5014C3.22256 19.6537 3.3493 19.7801 3.50188 19.8677C3.65445 19.9553 3.82744 20.0012 4.00339 20.0006C4.17935 20 4.35203 19.953 4.504 19.8643L16.504 12.8643C16.6551 12.7763 16.7804 12.6502 16.8675 12.4985C16.9547 12.3469 17.0005 12.1751 17.0005 12.0003C17.0005 11.8254 16.9547 11.6536 16.8675 11.502C16.7804 11.3504 16.6551 11.2243 16.504 11.1363L4.504 4.1363C4.35203 4.04762 4.17935 4.0006 4.00339 4.00001C3.82744 3.99941 3.65445 4.04525 3.50188 4.13289C3.3493 4.22054 3.22256 4.34689 3.13444 4.49919C3.04632 4.65149 2.99995 4.82434 3 5.0003Z" fill="black"/>
<path d="M20 4C20.2449 4.00003 20.4813 4.08996 20.6644 4.25272C20.8474 4.41547 20.9643 4.63975 20.993 4.883L21 5V19C20.9997 19.2549 20.9021 19.5 20.7272 19.6854C20.5522 19.8707 20.313 19.9822 20.0586 19.9972C19.8042 20.0121 19.5536 19.9293 19.3582 19.7657C19.1627 19.6021 19.0371 19.3701 19.007 19.117L19 19V5C19 4.73478 19.1054 4.48043 19.2929 4.29289C19.4804 4.10536 19.7348 4 20 4Z" fill="black"/>
</g>
<defs>
<clipPath id="clip0_802_57630">
<rect width="24" height="24" fill="white"/>
</clipPath>
</defs>
</svg>
