<svg width="24" height="24" viewBox="0 0 24 24" fill="none" xmlns="http://www.w3.org/2000/svg">
<g clip-path="url(#clip0_802_65849)">
<path d="M2 20.0005C2.22717 20.317 2.52797 20.5735 2.87642 20.7477C3.22488 20.9219 3.6105 21.0087 4 21.0005C4.3895 21.0087 4.77512 20.9219 5.12358 20.7477C5.47203 20.5735 5.77283 20.317 6 20.0005C6.22717 19.684 6.52797 19.4276 6.87642 19.2534C7.22488 19.0791 7.6105 18.9924 8 19.0005C8.3895 18.9924 8.77512 19.0791 9.12358 19.2534C9.47203 19.4276 9.77283 19.684 10 20.0005C10.2272 20.317 10.528 20.5735 10.8764 20.7477C11.2249 20.9219 11.6105 21.0087 12 21.0005C12.3895 21.0087 12.7751 20.9219 13.1236 20.7477C13.472 20.5735 13.7728 20.317 14 20.0005C14.2272 19.684 14.528 19.4276 14.8764 19.2534C15.2249 19.0791 15.6105 18.9924 16 19.0005C16.3895 18.9924 16.7751 19.0791 17.1236 19.2534C17.472 19.4276 17.7728 19.684 18 20.0005C18.2272 20.317 18.528 20.5735 18.8764 20.7477C19.2249 20.9219 19.6105 21.0087 20 21.0005C20.3895 21.0087 20.7751 20.9219 21.1236 20.7477C21.472 20.5735 21.7728 20.317 22 20.0005" stroke="black" stroke-width="2" stroke-linecap="round" stroke-linejoin="round"/>
<path d="M2 16.0005C2.22717 16.317 2.52797 16.5735 2.87642 16.7477C3.22488 16.9219 3.6105 17.0087 4 17.0005C4.3895 17.0087 4.77512 16.9219 5.12358 16.7477C5.47203 16.5735 5.77283 16.317 6 16.0005C6.22717 15.684 6.52797 15.4276 6.87642 15.2534C7.22488 15.0791 7.6105 14.9924 8 15.0005C8.3895 14.9924 8.77512 15.0791 9.12358 15.2534C9.47203 15.4276 9.77283 15.684 10 16.0005C10.2272 16.317 10.528 16.5735 10.8764 16.7477C11.2249 16.9219 11.6105 17.0087 12 17.0005C12.3895 17.0087 12.7751 16.9219 13.1236 16.7477C13.472 16.5735 13.7728 16.317 14 16.0005C14.2272 15.684 14.528 15.4276 14.8764 15.2534C15.2249 15.0791 15.6105 14.9924 16 15.0005C16.3895 14.9924 16.7751 15.0791 17.1236 15.2534C17.472 15.4276 17.7728 15.684 18 16.0005C18.2272 16.317 18.528 16.5735 18.8764 16.7477C19.2249 16.9219 19.6105 17.0087 20 17.0005C20.3895 17.0087 20.7751 16.9219 21.1236 16.7477C21.472 16.5735 21.7728 16.317 22 16.0005" stroke="black" stroke-width="2" stroke-linecap="round" stroke-linejoin="round"/>
<path d="M15 12V4.5C15 4.10218 15.158 3.72064 15.4393 3.43934C15.7206 3.15804 16.1022 3 16.5 3C16.8978 3 17.2794 3.15804 17.5607 3.43934C17.842 3.72064 18 4.10218 18 4.5" stroke="black" stroke-width="2" stroke-linecap="round" stroke-linejoin="round"/>
<path d="M9 12V4.5C9 4.10218 8.84196 3.72064 8.56066 3.43934C8.27936 3.15804 7.89782 3 7.5 3C7.10218 3 6.72064 3.15804 6.43934 3.43934C6.15804 3.72064 6 4.10218 6 4.5" stroke="black" stroke-width="2" stroke-linecap="round" stroke-linejoin="round"/>
<path d="M15 5H9" stroke="black" stroke-width="2" stroke-linecap="round" stroke-linejoin="round"/>
<path d="M9 10H15" stroke="black" stroke-width="2" stroke-linecap="round" stroke-linejoin="round"/>
</g>
<defs>
<clipPath id="clip0_802_65849">
<rect width="24" height="24" fill="white"/>
</clipPath>
</defs>
</svg>
