<svg width="24" height="24" viewBox="0 0 24 24" fill="none" xmlns="http://www.w3.org/2000/svg">
<g clip-path="url(#clip0_802_65685)">
<path d="M10.4463 10.4336C10.0581 10.6686 9.72831 10.9886 9.48171 11.3695C9.23511 11.7504 9.07812 12.1823 9.02257 12.6326C8.96702 13.0829 9.01434 13.54 9.16099 13.9694C9.30763 14.3988 9.54978 14.7894 9.86919 15.1117C10.1886 15.434 10.577 15.6796 11.005 15.8301C11.4331 15.9806 11.8897 16.032 12.3406 15.9805C12.7914 15.929 13.2246 15.7759 13.6077 15.5327C13.9908 15.2895 14.3138 14.9626 14.5523 14.5766" stroke="black" stroke-width="2" stroke-linecap="round" stroke-linejoin="round"/>
<path d="M14.2715 10.272C14.9315 8.813 15.3295 7.384 15.4695 5.986C15.6895 4.356 14.7075 3 11.9995 3C10.0595 3 8.99953 3.696 8.64453 4.69M9.34153 9.343C9.48653 9.727 9.65053 10.113 9.83253 10.5" stroke="black" stroke-width="2" stroke-linecap="round" stroke-linejoin="round"/>
<path d="M13.168 16.7494C14.138 18.1444 15.225 19.2724 16.425 20.1354C17.445 20.9244 18.69 20.9884 19.833 19.8474M21.312 17.3544C21.804 15.7204 21.122 14.6284 19.896 14.1254C19.076 13.7554 18.193 13.4714 17.246 13.2734" stroke="black" stroke-width="2" stroke-linecap="round" stroke-linejoin="round"/>
<path d="M8.6622 13C6.9692 13.143 5.4492 13.52 4.1022 14.128C2.5802 14.751 1.8962 16.281 3.2502 18.626C4.6042 20.971 6.2702 21.143 7.5712 20.138C8.7712 19.275 9.8582 18.147 10.8292 16.752" stroke="black" stroke-width="2" stroke-linecap="round" stroke-linejoin="round"/>
<path d="M3 3L21 21" stroke="black" stroke-width="2" stroke-linecap="round" stroke-linejoin="round"/>
</g>
<defs>
<clipPath id="clip0_802_65685">
<rect width="24" height="24" fill="white"/>
</clipPath>
</defs>
</svg>
