<svg width="24" height="24" viewBox="0 0 24 24" fill="none" xmlns="http://www.w3.org/2000/svg">
<g clip-path="url(#clip0_802_65127)">
<path d="M17 9L20 6L17 3" stroke="black" stroke-width="2" stroke-linecap="round" stroke-linejoin="round"/>
<path d="M8 17.918C6.60133 17.6822 5.33151 16.9582 4.4161 15.8748C3.50069 14.7913 2.99895 13.4184 3 12C3 10.4087 3.63214 8.88258 4.75736 7.75736C5.88258 6.63214 7.4087 6 9 6H20" stroke="black" stroke-width="2" stroke-linecap="round" stroke-linejoin="round"/>
<path d="M12 14V20" stroke="black" stroke-width="2" stroke-linecap="round" stroke-linejoin="round"/>
<path d="M15 15.5V18.5C15 18.8978 15.158 19.2794 15.4393 19.5607C15.7206 19.842 16.1022 20 16.5 20C16.8978 20 17.2794 19.842 17.5607 19.5607C17.842 19.2794 18 18.8978 18 18.5V15.5C18 15.1022 17.842 14.7206 17.5607 14.4393C17.2794 14.158 16.8978 14 16.5 14C16.1022 14 15.7206 14.158 15.4393 14.4393C15.158 14.7206 15 15.1022 15 15.5Z" stroke="black" stroke-width="2" stroke-linecap="round" stroke-linejoin="round"/>
</g>
<defs>
<clipPath id="clip0_802_65127">
<rect width="24" height="24" fill="white"/>
</clipPath>
</defs>
</svg>
