<svg width="24" height="24" viewBox="0 0 24 24" fill="none" xmlns="http://www.w3.org/2000/svg">
<g clip-path="url(#clip0_802_57569)">
<path d="M12.0104 2.01172C12.7882 2.01177 13.5393 2.29509 14.1234 2.80872L14.2774 2.95372L14.9754 3.65172C15.167 3.84203 15.4171 3.96217 15.6854 3.99272L15.8204 4.00072H16.8204C17.6376 4.00067 18.4239 4.31329 19.018 4.87446C19.6121 5.43563 19.9689 6.20282 20.0154 7.01872L20.0204 7.20072V8.20072C20.0204 8.47072 20.1124 8.73372 20.2784 8.94372L20.3684 9.04372L21.0654 9.74172C21.6431 10.3162 21.98 11.0893 22.0073 11.9036C22.0346 12.7178 21.7503 13.5118 21.2124 14.1237L21.0674 14.2777L20.3694 14.9757C20.1791 15.1673 20.059 15.4174 20.0284 15.6857L20.0204 15.8207V16.8207C20.0205 17.6379 19.7078 18.4242 19.1467 19.0183C18.5855 19.6124 17.8183 19.9692 17.0024 20.0157L16.8204 20.0207H15.8204C15.5508 20.0208 15.2891 20.1117 15.0774 20.2787L14.9774 20.3687L14.2794 21.0657C13.705 21.6434 12.9318 21.9803 12.1175 22.0076C11.3033 22.0349 10.5093 21.7506 9.89741 21.2127L9.74341 21.0677L9.04541 20.3697C8.85385 20.1794 8.6037 20.0593 8.33541 20.0287L8.20041 20.0207H7.20041C6.38319 20.0208 5.59693 19.7082 5.00284 19.147C4.40876 18.5858 4.05189 17.8186 4.00541 17.0027L4.00041 16.8207V15.8207C4.00032 15.5511 3.90944 15.2894 3.74241 15.0777L3.65241 14.9777L2.95541 14.2797C2.37769 13.7053 2.04083 12.9321 2.01352 12.1179C1.9862 11.3036 2.27049 10.5096 2.80841 9.89772L2.95341 9.74372L3.65141 9.04572C3.84172 8.85416 3.96187 8.60401 3.99241 8.33572L4.00041 8.20072V7.20072L4.00541 7.01872C4.05006 6.23416 4.38184 5.49347 4.9375 4.93781C5.49316 4.38215 6.23386 4.05037 7.01841 4.00572L7.20041 4.00072H8.20041C8.47003 4.00063 8.73176 3.90975 8.94341 3.74272L9.04341 3.65272L9.74141 2.95572C10.0387 2.65661 10.3923 2.41922 10.7817 2.25722C11.1711 2.09521 11.5887 2.01178 12.0104 2.01172Z" fill="black"/>
</g>
<defs>
<clipPath id="clip0_802_57569">
<rect width="24" height="24" fill="white"/>
</clipPath>
</defs>
</svg>
