<svg width="24" height="24" viewBox="0 0 24 24" fill="none" xmlns="http://www.w3.org/2000/svg">
<g clip-path="url(#clip0_802_64617)">
<path d="M5.5 5.5C4.83696 5.5 4.20107 5.76339 3.73223 6.23223C3.26339 6.70107 3 7.33696 3 8C3 15.18 8.82 21 16 21C16.663 21 17.2989 20.7366 17.7678 20.2678C18.2366 19.7989 18.5 19.163 18.5 18.5C18.5 17.837 18.2366 17.2011 17.7678 16.7322C17.2989 16.2634 16.663 16 16 16C13.8783 16 11.8434 15.1571 10.3431 13.6569C8.84285 12.1566 8 10.1217 8 8C8 7.33696 7.73661 6.70107 7.26777 6.23223C6.79893 5.76339 6.16304 5.5 5.5 5.5Z" stroke="black" stroke-width="2" stroke-linecap="round" stroke-linejoin="round"/>
<path d="M5.19578 5.519L3.95278 3.53C3.85818 3.37863 3.80581 3.20469 3.80113 3.02625C3.79644 2.8478 3.83961 2.67136 3.92614 2.51523C4.01267 2.3591 4.13942 2.22898 4.29322 2.13838C4.44703 2.04778 4.62228 2 4.80078 2H6.19278C6.37129 2 6.54654 2.04778 6.70034 2.13838C6.85415 2.22898 6.98089 2.3591 7.06743 2.51523C7.15396 2.67136 7.19713 2.8478 7.19244 3.02625C7.18776 3.20469 7.13539 3.37863 7.04078 3.53L5.79578 5.52" stroke="black" stroke-width="2" stroke-linecap="round" stroke-linejoin="round"/>
<path d="M18.4825 18.2231L20.4715 16.9801C20.6228 16.8855 20.7968 16.8332 20.9752 16.8285C21.1537 16.8238 21.3301 16.8669 21.4862 16.9535C21.6424 17.04 21.7725 17.1668 21.8631 17.3206C21.9537 17.4744 22.0015 17.6496 22.0015 17.8281V19.2201C22.0015 19.3986 21.9537 19.5739 21.8631 19.7277C21.7725 19.8815 21.6424 20.0082 21.4862 20.0948C21.3301 20.1813 21.1537 20.2245 20.9752 20.2198C20.7968 20.2151 20.6228 20.1627 20.4715 20.0681L18.4805 18.8231" stroke="black" stroke-width="2" stroke-linecap="round" stroke-linejoin="round"/>
</g>
<defs>
<clipPath id="clip0_802_64617">
<rect width="24" height="24" fill="white"/>
</clipPath>
</defs>
</svg>
