<svg width="24" height="24" viewBox="0 0 24 24" fill="none" xmlns="http://www.w3.org/2000/svg">
<g clip-path="url(#clip0_802_64444)">
<path d="M10.9991 7H15.9991C16.2643 7 16.5187 7.10536 16.7062 7.29289C16.8937 7.48043 16.9991 7.73478 16.9991 8V12.5C16.9991 12.654 16.9851 12.804 16.9591 12.95M14.9591 14.957C14.8091 14.985 14.6541 15 14.4961 15H13.9961C13.4657 15 12.957 14.7893 12.5819 14.4142C12.2068 14.0391 11.9961 13.5304 11.9961 13C11.9961 12.4696 11.7854 11.9609 11.4103 11.5858C11.0352 11.2107 10.5265 11 9.99609 11C9.46566 11 8.95695 11.2107 8.58188 11.5858C8.20681 11.9609 7.99609 12.4696 7.99609 13C7.99609 13.5304 7.78538 14.0391 7.41031 14.4142C7.03523 14.7893 6.52653 15 5.99609 15H5.49609C4.83305 15 4.19717 14.7366 3.72833 14.2678C3.25949 13.7989 2.99609 13.163 2.99609 12.5V8C2.99609 7.73478 3.10145 7.48043 3.28899 7.29289C3.47652 7.10536 3.73088 7 3.99609 7H6.99609" stroke="black" stroke-width="2" stroke-linecap="round" stroke-linejoin="round"/>
<path d="M10 17C10 17.5304 10.2107 18.0391 10.5858 18.4142C10.9609 18.7893 11.4696 19 12 19H15.5C16.4713 19.0017 17.4256 18.7449 18.265 18.256M20.265 16.256C20.735 15.446 21.004 14.504 21.004 13.5V4" stroke="black" stroke-width="2" stroke-linecap="round" stroke-linejoin="round"/>
<path d="M3 3L21 21" stroke="black" stroke-width="2" stroke-linecap="round" stroke-linejoin="round"/>
</g>
<defs>
<clipPath id="clip0_802_64444">
<rect width="24" height="24" fill="white"/>
</clipPath>
</defs>
</svg>
