<svg width="24" height="24" viewBox="0 0 24 24" fill="none" xmlns="http://www.w3.org/2000/svg">
<g clip-path="url(#clip0_802_64091)">
<path d="M3 12C3 12.7956 3.31607 13.5587 3.87868 14.1213C4.44129 14.6839 5.20435 15 6 15C6.79565 15 7.55871 14.6839 8.12132 14.1213C8.68393 13.5587 9 12.7956 9 12C9 11.2044 8.68393 10.4413 8.12132 9.87868C7.55871 9.31607 6.79565 9 6 9C5.20435 9 4.44129 9.31607 3.87868 9.87868C3.31607 10.4413 3 11.2044 3 12Z" stroke="black" stroke-width="2" stroke-linecap="round" stroke-linejoin="round"/>
<path d="M15 6C15 6.79565 15.3161 7.55871 15.8787 8.12132C16.4413 8.68393 17.2044 9 18 9C18.7956 9 19.5587 8.68393 20.1213 8.12132C20.6839 7.55871 21 6.79565 21 6C21 5.20435 20.6839 4.44129 20.1213 3.87868C19.5587 3.31607 18.7956 3 18 3C17.2044 3 16.4413 3.31607 15.8787 3.87868C15.3161 4.44129 15 5.20435 15 6Z" stroke="black" stroke-width="2" stroke-linecap="round" stroke-linejoin="round"/>
<path d="M15.8623 15.897C15.3084 16.4637 15.0013 17.2266 15.0079 18.019C15.0146 18.8114 15.3345 19.569 15.8978 20.1264C16.4611 20.6837 17.222 20.9956 18.0145 20.9938C18.8069 20.9921 19.5664 20.6768 20.1273 20.117M20.7053 16.7C20.3922 16.0522 19.8577 15.5378 19.1983 15.25" stroke="black" stroke-width="2" stroke-linecap="round" stroke-linejoin="round"/>
<path d="M8.69922 10.7008L10.0352 10.0128M12.6592 8.66078L15.2992 7.30078" stroke="black" stroke-width="2" stroke-linecap="round" stroke-linejoin="round"/>
<path d="M8.69922 13.3008L15.2992 16.7008" stroke="black" stroke-width="2" stroke-linecap="round" stroke-linejoin="round"/>
<path d="M3 3L21 21" stroke="black" stroke-width="2" stroke-linecap="round" stroke-linejoin="round"/>
</g>
<defs>
<clipPath id="clip0_802_64091">
<rect width="24" height="24" fill="white"/>
</clipPath>
</defs>
</svg>
