<svg width="24" height="24" viewBox="0 0 24 24" fill="none" xmlns="http://www.w3.org/2000/svg">
<g clip-path="url(#clip0_802_63997)">
<path d="M12.5959 20.829C12.3984 20.8911 12.1993 20.9482 11.9989 21C10.4421 20.5962 8.98234 19.8836 7.7064 18.9045C6.43047 17.9254 5.36437 16.6998 4.57145 15.3005C3.77854 13.9013 3.27499 12.3569 3.09073 10.7592C2.90647 9.16147 3.04527 7.54302 3.49886 6C6.61439 6.14257 9.66303 5.06658 11.9989 3C14.3347 5.06658 17.3833 6.14257 20.4989 6C21.0049 7.72 21.1129 9.512 20.8409 11.248" stroke="black" stroke-width="2" stroke-linecap="round" stroke-linejoin="round"/>
<path d="M21.121 20.1216C21.5406 19.7021 21.8265 19.1676 21.9423 18.5856C22.0581 18.0036 21.9988 17.4004 21.7717 16.8522C21.5447 16.3039 21.1602 15.8353 20.6668 15.5057C20.1734 15.176 19.5934 15 19 15C18.4066 15 17.8266 15.176 17.3332 15.5057C16.8398 15.8353 16.4553 16.3039 16.2283 16.8522C16.0012 17.4004 15.9419 18.0036 16.0577 18.5856C16.1735 19.1676 16.4594 19.7021 16.879 20.1216C17.297 20.5406 18.004 21.1666 19 22.0006C20.051 21.1106 20.759 20.4846 21.121 20.1216Z" stroke="black" stroke-width="2" stroke-linecap="round" stroke-linejoin="round"/>
<path d="M19 18V18.01" stroke="black" stroke-width="2" stroke-linecap="round" stroke-linejoin="round"/>
</g>
<defs>
<clipPath id="clip0_802_63997">
<rect width="24" height="24" fill="white"/>
</clipPath>
</defs>
</svg>
