<svg width="24" height="24" viewBox="0 0 24 24" fill="none" xmlns="http://www.w3.org/2000/svg">
<g clip-path="url(#clip0_802_63791)">
<path d="M4 19C4 19.5304 4.21071 20.0391 4.58579 20.4142C4.96086 20.7893 5.46957 21 6 21C6.53043 21 7.03914 20.7893 7.41421 20.4142C7.78929 20.0391 8 19.5304 8 19C8 18.4696 7.78929 17.9609 7.41421 17.5858C7.03914 17.2107 6.53043 17 6 17C5.46957 17 4.96086 17.2107 4.58579 17.5858C4.21071 17.9609 4 18.4696 4 19Z" stroke="black" stroke-width="2" stroke-linecap="round" stroke-linejoin="round"/>
<path d="M10 17H6V3H4" stroke="black" stroke-width="2" stroke-linecap="round" stroke-linejoin="round"/>
<path d="M6 5L20 6L19.283 11.016M11.5 13H6" stroke="black" stroke-width="2" stroke-linecap="round" stroke-linejoin="round"/>
<path d="M18.0001 21.9996L21.3501 18.7156C21.5556 18.5163 21.719 18.2778 21.8307 18.0142C21.9425 17.7507 22.0003 17.4674 22.0007 17.1812C22.0012 16.8949 21.9443 16.6115 21.8334 16.3476C21.7225 16.0837 21.5599 15.8446 21.3551 15.6446C20.9373 15.236 20.3763 15.0066 19.7918 15.0055C19.2074 15.0044 18.6455 15.2316 18.2261 15.6386L18.0021 15.8586L17.7791 15.6386C17.3613 15.2303 16.8006 15.0011 16.2163 15C15.6321 14.9989 15.0705 15.2259 14.6511 15.6326C14.4456 15.8319 14.2821 16.0703 14.1703 16.3338C14.0585 16.5974 14.0006 16.8806 14 17.1669C13.9994 17.4531 14.0562 17.7366 14.167 18.0005C14.2778 18.2645 14.4404 18.5035 14.6451 18.7036L18.0001 21.9996Z" stroke="black" stroke-width="2" stroke-linecap="round" stroke-linejoin="round"/>
</g>
<defs>
<clipPath id="clip0_802_63791">
<rect width="24" height="24" fill="white"/>
</clipPath>
</defs>
</svg>
