<svg width="24" height="24" viewBox="0 0 24 24" fill="none" xmlns="http://www.w3.org/2000/svg">
<g clip-path="url(#clip0_802_63897)">
<path d="M11.5013 21H8.57527C7.85867 21 7.16575 20.7434 6.6219 20.2768C6.07805 19.8102 5.71919 19.1643 5.61027 18.456L4.35527 10.304C4.31144 10.019 4.32976 9.72786 4.40898 9.45059C4.48819 9.17331 4.62643 8.91645 4.81422 8.6976C5.002 8.47876 5.23489 8.30311 5.49691 8.1827C5.75894 8.06229 6.0439 7.99997 6.33227 8H17.6713C17.9596 7.99997 18.2446 8.06229 18.5066 8.1827C18.7687 8.30311 19.0015 8.47876 19.1893 8.6976C19.3771 8.91645 19.5153 9.17331 19.5946 9.45059C19.6738 9.72786 19.6921 10.019 19.6483 10.304C19.5913 10.672 19.5483 10.948 19.5213 11.132" stroke="black" stroke-width="2" stroke-linecap="round" stroke-linejoin="round"/>
<path d="M9 11V6C9 5.20435 9.31607 4.44129 9.87868 3.87868C10.4413 3.31607 11.2044 3 12 3C12.7956 3 13.5587 3.31607 14.1213 3.87868C14.6839 4.44129 15 5.20435 15 6V11" stroke="black" stroke-width="2" stroke-linecap="round" stroke-linejoin="round"/>
<path d="M18.0001 21.9996L21.3501 18.7156C21.5556 18.5163 21.719 18.2778 21.8307 18.0142C21.9425 17.7507 22.0003 17.4674 22.0007 17.1812C22.0012 16.8949 21.9443 16.6115 21.8334 16.3476C21.7225 16.0837 21.5599 15.8446 21.3551 15.6446C20.9373 15.236 20.3763 15.0066 19.7918 15.0055C19.2074 15.0044 18.6455 15.2316 18.2261 15.6386L18.0021 15.8586L17.7791 15.6386C17.3613 15.2303 16.8006 15.0011 16.2163 15C15.6321 14.9989 15.0705 15.2259 14.6511 15.6326C14.4456 15.8319 14.2821 16.0703 14.1703 16.3338C14.0585 16.5974 14.0006 16.8806 14 17.1669C13.9994 17.4531 14.0562 17.7366 14.167 18.0005C14.2778 18.2645 14.4404 18.5035 14.6451 18.7036L18.0001 21.9996Z" stroke="black" stroke-width="2" stroke-linecap="round" stroke-linejoin="round"/>
</g>
<defs>
<clipPath id="clip0_802_63897">
<rect width="24" height="24" fill="white"/>
</clipPath>
</defs>
</svg>
