<svg width="24" height="24" viewBox="0 0 24 24" fill="none" xmlns="http://www.w3.org/2000/svg">
<g clip-path="url(#clip0_802_57200)">
<path d="M11.999 2L12.641 2.005L13.257 2.022L13.556 2.035L14.135 2.069L14.688 2.115C19.375 2.57 21.338 4.448 21.854 9.021L21.884 9.311L21.93 9.864L21.971 10.591L21.977 10.741L21.994 11.358L21.999 12L21.994 12.642L21.977 13.258L21.964 13.557L21.93 14.136L21.884 14.689C21.429 19.376 19.551 21.339 14.978 21.855L14.688 21.885L14.135 21.931L13.408 21.972L13.258 21.978L12.641 21.995L11.999 22L11.357 21.995L10.741 21.978L10.442 21.965L9.863 21.931L9.31 21.885C4.623 21.43 2.66 19.552 2.144 14.979L2.114 14.689L2.068 14.136L2.027 13.409L2.021 13.259L2.004 12.642L2 12.324V11.676L2.004 11.358L2.021 10.742L2.034 10.443L2.068 9.864L2.114 9.311C2.569 4.624 4.447 2.661 9.02 2.145L9.31 2.115L9.863 2.069L10.59 2.028L10.74 2.022L11.357 2.005C11.567 2.002 11.781 2 11.999 2ZM13.999 7H9.999L9.882 7.007C9.65878 7.03332 9.45094 7.13408 9.29201 7.29301C9.13308 7.45194 9.03232 7.65978 9.006 7.883L8.999 8L9.006 8.117C9.03232 8.34022 9.13308 8.54806 9.29201 8.70699C9.45094 8.86592 9.65878 8.96668 9.882 8.993L9.999 9H12.717L11.029 15.757L11.007 15.872C10.9757 16.115 11.0346 16.3611 11.1727 16.5635C11.3108 16.7659 11.5184 16.9106 11.7561 16.97C11.9938 17.0295 12.2451 16.9996 12.4622 16.886C12.6794 16.7725 12.8472 16.5832 12.934 16.354L12.969 16.243L14.969 8.243L14.99 8.131C15.0075 7.99929 14.9985 7.86543 14.9637 7.73722C14.9288 7.60902 14.8687 7.48904 14.787 7.38431C14.7053 7.27957 14.6035 7.19217 14.4876 7.12722C14.3717 7.06226 14.244 7.02106 14.112 7.006L13.999 7Z" fill="black"/>
</g>
<defs>
<clipPath id="clip0_802_57200">
<rect width="24" height="24" fill="white"/>
</clipPath>
</defs>
</svg>
