<svg width="24" height="24" viewBox="0 0 24 24" fill="none" xmlns="http://www.w3.org/2000/svg">
<g clip-path="url(#clip0_802_57407)">
<path d="M19 2C19.7956 2 20.5587 2.31607 21.1213 2.87868C21.6839 3.44129 22 4.20435 22 5V19C22 19.7956 21.6839 20.5587 21.1213 21.1213C20.5587 21.6839 19.7956 22 19 22H5C4.20435 22 3.44129 21.6839 2.87868 21.1213C2.31607 20.5587 2 19.7956 2 19V5C2 4.20435 2.31607 3.44129 2.87868 2.87868C3.44129 2.31607 4.20435 2 5 2H19ZM16 8C16 6.986 14.664 6.616 14.143 7.486L12 11.056L9.857 7.486C9.336 6.616 8 6.986 8 8V16C8 16.2652 8.10536 16.5196 8.29289 16.7071C8.48043 16.8946 8.73478 17 9 17L9.117 16.993C9.36025 16.9643 9.58453 16.8474 9.74728 16.6644C9.91004 16.4813 9.99997 16.2449 10 16V11.61L11.143 13.514L11.217 13.622C11.3176 13.7484 11.4473 13.8486 11.595 13.9139C11.7427 13.9793 11.9041 14.0079 12.0653 13.9973C12.2265 13.9866 12.3827 13.9371 12.5206 13.853C12.6584 13.7688 12.7739 13.6525 12.857 13.514L14 11.61V16C14 16.2652 14.1054 16.5196 14.2929 16.7071C14.4804 16.8946 14.7348 17 15 17C15.2652 17 15.5196 16.8946 15.7071 16.7071C15.8946 16.5196 16 16.2652 16 16V8Z" fill="black"/>
</g>
<defs>
<clipPath id="clip0_802_57407">
<rect width="24" height="24" fill="white"/>
</clipPath>
</defs>
</svg>
