<svg width="24" height="24" viewBox="0 0 24 24" fill="none" xmlns="http://www.w3.org/2000/svg">
<g clip-path="url(#clip0_802_57185)">
<path d="M11.999 2L12.641 2.005L13.257 2.022L13.556 2.035L14.135 2.069L14.688 2.115C19.375 2.57 21.338 4.448 21.854 9.021L21.884 9.311L21.93 9.864L21.971 10.591L21.977 10.741L21.994 11.358L21.999 12L21.994 12.642L21.977 13.258L21.964 13.557L21.93 14.136L21.884 14.689C21.429 19.376 19.551 21.339 14.978 21.855L14.688 21.885L14.135 21.931L13.408 21.972L13.258 21.978L12.641 21.995L11.999 22L11.357 21.995L10.741 21.978L10.442 21.965L9.863 21.931L9.31 21.885C4.623 21.43 2.66 19.552 2.144 14.979L2.114 14.689L2.068 14.136L2.027 13.409L2.021 13.259L2.004 12.642L2 12.324V11.676L2.004 11.358L2.021 10.742L2.034 10.443L2.068 9.864L2.114 9.311C2.569 4.624 4.447 2.661 9.02 2.145L9.31 2.115L9.863 2.069L10.59 2.028L10.74 2.022L11.357 2.005C11.567 2.002 11.781 2 11.999 2ZM12.999 7H10.999L10.849 7.005C10.3458 7.04284 9.87559 7.26947 9.5325 7.63945C9.18941 8.00943 8.99884 8.49542 8.999 9C8.99815 9.24577 9.08783 9.48325 9.25094 9.66711C9.41404 9.85096 9.63914 9.96831 9.88326 9.99676C10.1274 10.0252 10.3734 9.96275 10.5744 9.82132C10.7754 9.67989 10.9173 9.46939 10.973 9.23L10.993 9.117L10.999 9H12.999V11H10.999L10.866 11.007C9.755 11.127 9.712 12.737 10.738 12.972L10.866 12.993L10.999 13H12.999V15H10.999L10.992 14.883C10.9619 14.6299 10.8363 14.3979 10.6408 14.2343C10.4454 14.0707 10.1948 13.9879 9.94039 14.0028C9.68595 14.0178 9.44682 14.1293 9.27185 14.3146C9.09688 14.5 8.99928 14.7451 8.999 15C8.99884 15.5046 9.18941 15.9906 9.5325 16.3605C9.87559 16.7305 10.3458 16.9572 10.849 16.995L10.999 17H12.999L13.149 16.995C13.6252 16.9592 14.0728 16.7542 14.411 16.4171C14.7492 16.08 14.9557 15.6331 14.993 15.157L14.999 15V13L14.994 12.85C14.9765 12.6195 14.919 12.3938 14.824 12.183L14.749 12.031L14.73 11.999L14.75 11.969C14.8852 11.7238 14.9676 11.453 14.992 11.174L14.999 11V9L14.994 8.85C14.9582 8.37383 14.7532 7.92617 14.4161 7.58797C14.079 7.24977 13.6321 7.04334 13.156 7.006L12.999 7Z" fill="black"/>
</g>
<defs>
<clipPath id="clip0_802_57185">
<rect width="24" height="24" fill="white"/>
</clipPath>
</defs>
</svg>
