<svg width="24" height="24" viewBox="0 0 24 24" fill="none" xmlns="http://www.w3.org/2000/svg">
<g clip-path="url(#clip0_802_57389)">
<path d="M19 2C19.7956 2 20.5587 2.31607 21.1213 2.87868C21.6839 3.44129 22 4.20435 22 5V19C22 19.7956 21.6839 20.5587 21.1213 21.1213C20.5587 21.6839 19.7956 22 19 22H5C4.20435 22 3.44129 21.6839 2.87868 21.1213C2.31607 20.5587 2 19.7956 2 19V5C2 4.20435 2.31607 3.44129 2.87868 2.87868C3.44129 2.31607 4.20435 2 5 2H19ZM13 7H11C10.4696 7 9.96086 7.21071 9.58579 7.58579C9.21071 7.96086 9 8.46957 9 9V11C9 11.5304 9.21071 12.0391 9.58579 12.4142C9.96086 12.7893 10.4696 13 11 13H13V15H11C11 14.7348 10.8946 14.4804 10.7071 14.2929C10.5196 14.1054 10.2652 14 10 14C9.73478 14 9.48043 14.1054 9.29289 14.2929C9.10536 14.4804 9 14.7348 9 15C9 15.5304 9.21071 16.0391 9.58579 16.4142C9.96086 16.7893 10.4696 17 11 17H13C13.5304 17 14.0391 16.7893 14.4142 16.4142C14.7893 16.0391 15 15.5304 15 15V13C15 12.4696 14.7893 11.9609 14.4142 11.5858C14.0391 11.2107 13.5304 11 13 11H11V9H13L13.007 9.117C13.0371 9.3701 13.1627 9.60215 13.3582 9.76574C13.5536 9.92933 13.8042 10.0121 14.0586 9.99717C14.313 9.98224 14.5522 9.8707 14.7272 9.68537C14.9021 9.50003 14.9997 9.25488 15 9C15 8.46957 14.7893 7.96086 14.4142 7.58579C14.0391 7.21071 13.5304 7 13 7Z" fill="black"/>
</g>
<defs>
<clipPath id="clip0_802_57389">
<rect width="24" height="24" fill="white"/>
</clipPath>
</defs>
</svg>
