<svg width="24" height="24" viewBox="0 0 24 24" fill="none" xmlns="http://www.w3.org/2000/svg">
<g clip-path="url(#clip0_802_57206)">
<path d="M11.999 2L12.641 2.005L13.257 2.022L13.556 2.035L14.135 2.069L14.688 2.115C19.375 2.57 21.338 4.448 21.854 9.021L21.884 9.311L21.93 9.864L21.971 10.591L21.977 10.741L21.994 11.358L21.999 12L21.994 12.642L21.977 13.258L21.964 13.557L21.93 14.136L21.884 14.689C21.429 19.376 19.551 21.339 14.978 21.855L14.688 21.885L14.135 21.931L13.408 21.972L13.258 21.978L12.641 21.995L11.999 22L11.357 21.995L10.741 21.978L10.442 21.965L9.863 21.931L9.31 21.885C4.623 21.43 2.66 19.552 2.144 14.979L2.114 14.689L2.068 14.136L2.027 13.409L2.021 13.259L2.004 12.642L2 12.324V11.676L2.004 11.358L2.021 10.742L2.034 10.443L2.068 9.864L2.114 9.311C2.569 4.624 4.447 2.661 9.02 2.145L9.31 2.115L9.863 2.069L10.59 2.028L10.74 2.022L11.357 2.005C11.567 2.002 11.781 2 11.999 2ZM12.993 7.886C12.91 7.109 11.985 6.726 11.376 7.216L11.292 7.293L9.292 9.293L9.209 9.387C9.07293 9.56237 8.99908 9.77803 8.99908 10C8.99908 10.222 9.07293 10.4376 9.209 10.613L9.292 10.707L9.386 10.79C9.56137 10.9261 9.77703 10.9999 9.999 10.9999C10.221 10.9999 10.4366 10.9261 10.612 10.79L10.706 10.707L10.999 10.414V16L11.006 16.117C11.0349 16.3601 11.152 16.5841 11.335 16.7466C11.518 16.9091 11.7542 16.9989 11.999 16.9989C12.2438 16.9989 12.48 16.9091 12.663 16.7466C12.846 16.5841 12.9631 16.3601 12.992 16.117L12.999 16V8L12.993 7.886Z" fill="black"/>
</g>
<defs>
<clipPath id="clip0_802_57206">
<rect width="24" height="24" fill="white"/>
</clipPath>
</defs>
</svg>
