<svg width="24" height="24" viewBox="0 0 24 24" fill="none" xmlns="http://www.w3.org/2000/svg">
<g clip-path="url(#clip0_802_57157)">
<path d="M20.8929 15.553C21.0114 15.7901 21.0308 16.0646 20.947 16.316C20.8632 16.5675 20.6829 16.7754 20.4459 16.894L12.4459 20.894C12.3071 20.9634 12.1541 20.9995 11.9989 20.9995C11.8438 20.9995 11.6907 20.9634 11.5519 20.894L3.55193 16.894C3.3232 16.7707 3.15147 16.5631 3.07312 16.3153C2.99476 16.0676 3.01593 15.799 3.13215 15.5666C3.24836 15.3342 3.45049 15.1561 3.69572 15.0701C3.94095 14.9842 4.21002 14.997 4.44593 15.106L11.9989 18.88L19.5529 15.105C19.7901 14.9866 20.0645 14.9671 20.3159 15.051C20.5674 15.1348 20.7753 15.315 20.8939 15.552M20.8939 11.552C21.0124 11.7891 21.0318 12.0636 20.948 12.315C20.8642 12.5665 20.6839 12.7744 20.4469 12.893L12.4469 16.893C12.3081 16.9624 12.1551 16.9985 11.9999 16.9985C11.8448 16.9985 11.6917 16.9624 11.5529 16.893L3.55293 12.893C3.3242 12.7697 3.15247 12.5621 3.07412 12.3144C2.99576 12.0666 3.01693 11.798 3.13315 11.5656C3.24936 11.3332 3.45149 11.1551 3.69672 11.0691C3.94195 10.9832 4.21102 10.996 4.44693 11.105L11.9989 14.88L19.5529 11.105C19.7901 10.9866 20.0645 10.9671 20.3159 11.051C20.5674 11.1348 20.7753 11.315 20.8939 11.552ZM12.0069 3C12.0443 3 12.0813 3.00233 12.1179 3.007L12.2289 3.027L12.3149 3.051L12.3269 3.057L12.3389 3.059L12.3679 3.073L12.4179 3.092L12.4339 3.101L12.4459 3.106L20.4459 7.106C20.6118 7.18914 20.7513 7.31679 20.8488 7.47467C20.9462 7.63256 20.9979 7.81445 20.9979 8C20.9979 8.18555 20.9462 8.36744 20.8488 8.52532C20.7513 8.68321 20.6118 8.81086 20.4459 8.894L12.4459 12.894C12.3071 12.9634 12.1541 12.9995 11.9989 12.9995C11.8438 12.9995 11.6907 12.9634 11.5519 12.894L3.55193 8.894C3.38605 8.81086 3.24657 8.68321 3.1491 8.52532C3.05162 8.36744 3 8.18555 3 8C3 7.81445 3.05162 7.63256 3.1491 7.47467C3.24657 7.31679 3.38605 7.18914 3.55193 7.106L11.5519 3.106L11.5629 3.101L11.5809 3.091L11.6589 3.059L11.6699 3.057L11.6829 3.051L11.7689 3.027L11.8789 3.007L11.9349 3.002L12.0069 3Z" fill="black"/>
</g>
<defs>
<clipPath id="clip0_802_57157">
<rect width="24" height="24" fill="white"/>
</clipPath>
</defs>
</svg>
