<svg width="24" height="24" viewBox="0 0 24 24" fill="none" xmlns="http://www.w3.org/2000/svg">
<g clip-path="url(#clip0_802_62466)">
<path d="M17.3713 13.3715L17.4473 13.2175C17.4798 13.1521 17.5298 13.0972 17.5918 13.0588C17.6538 13.0204 17.7253 13 17.7983 13C17.8712 13 17.9427 13.0204 18.0047 13.0588C18.0667 13.0972 18.1168 13.1521 18.1493 13.2175L19.0563 15.0485M19.4233 15.4385C19.9213 15.5095 20.6683 15.6185 21.6633 15.7625C21.7353 15.7728 21.803 15.8031 21.8587 15.85C21.9144 15.8968 21.9559 15.9583 21.9785 16.0275C22.0011 16.0967 22.0039 16.1708 21.9865 16.2415C21.9691 16.3122 21.9323 16.3766 21.8803 16.4275C21.5543 16.7435 21.3103 16.9805 21.1483 17.1395M20.5373 20.5445C20.5497 20.6163 20.5417 20.6902 20.5143 20.7578C20.4868 20.8254 20.4409 20.8839 20.3819 20.9267C20.3228 20.9695 20.253 20.9949 20.1802 21C20.1074 21.005 20.0347 20.9896 19.9703 20.9555L17.7983 19.8175L15.6263 20.9555C15.5618 20.989 15.4893 21.004 15.4168 20.9987C15.3444 20.9934 15.2748 20.9681 15.2159 20.9256C15.157 20.8831 15.111 20.825 15.0832 20.7579C15.0554 20.6907 15.0467 20.6172 15.0583 20.5455L15.4733 18.1345L13.7163 16.4275C13.6638 16.3768 13.6267 16.3123 13.6091 16.2416C13.5915 16.1708 13.5942 16.0965 13.6168 16.0271C13.6395 15.9578 13.6811 15.8962 13.7371 15.8494C13.7931 15.8026 13.861 15.7725 13.9333 15.7625L15.5343 15.5305" stroke="black" stroke-width="2" stroke-linecap="round" stroke-linejoin="round"/>
<path d="M6.20063 19.8175L4.02863 20.9555C3.96417 20.989 3.89166 21.004 3.81919 20.9987C3.74672 20.9934 3.67714 20.9681 3.61822 20.9256C3.5593 20.8831 3.51336 20.825 3.48554 20.7579C3.45771 20.6907 3.44908 20.6172 3.46063 20.5455L3.87563 18.1345L2.11863 16.4275C2.06619 16.3768 2.02905 16.3123 2.01147 16.2416C1.99389 16.1708 1.99656 16.0965 2.01919 16.0271C2.04182 15.9578 2.08349 15.8962 2.13944 15.8494C2.19539 15.8026 2.26338 15.7725 2.33563 15.7625L4.76363 15.4105L5.84963 13.2175C5.88211 13.1521 5.93217 13.0972 5.99418 13.0588C6.05618 13.0204 6.12768 13 6.20063 13C6.27357 13 6.34507 13.0204 6.40708 13.0588C6.46909 13.0972 6.51915 13.1521 6.55163 13.2175L7.63763 15.4105L10.0656 15.7625C10.1377 15.7728 10.2054 15.8031 10.2611 15.85C10.3168 15.8968 10.3583 15.9583 10.3809 16.0275C10.4034 16.0967 10.4062 16.1708 10.3888 16.2415C10.3715 16.3122 10.3347 16.3766 10.2826 16.4275L8.52563 18.1345L8.93963 20.5445C8.95205 20.6163 8.94408 20.6902 8.91661 20.7578C8.88914 20.8254 8.84327 20.8839 8.78422 20.9267C8.72517 20.9695 8.6553 20.9949 8.58254 21C8.50979 21.005 8.43706 20.9896 8.37263 20.9555L6.20063 19.8175Z" stroke="black" stroke-width="2" stroke-linecap="round" stroke-linejoin="round"/>
<path d="M9.55798 5.55646L10.558 5.41046L11.644 3.21746C11.6765 3.15215 11.7265 3.09719 11.7885 3.05877C11.8505 3.02035 11.922 3 11.995 3C12.0679 3 12.1394 3.02035 12.2014 3.05877C12.2634 3.09719 12.3135 3.15215 12.346 3.21746L13.432 5.41046L15.86 5.76246C15.932 5.77283 15.9997 5.80314 16.0554 5.84998C16.1111 5.89682 16.1526 5.95831 16.1752 6.0275C16.1978 6.0967 16.2006 6.17083 16.1832 6.24151C16.1658 6.31219 16.129 6.3766 16.077 6.42746L14.32 8.13446L14.734 10.5445C14.7446 10.607 14.7398 10.6712 14.72 10.7315M10.567 10.5655L9.82298 10.9555C9.75852 10.989 9.68601 11.004 9.61354 10.9987C9.54107 10.9934 9.47149 10.9681 9.41257 10.9256C9.35365 10.8831 9.30771 10.825 9.27989 10.7579C9.25206 10.6907 9.24343 10.6172 9.25498 10.5455L9.44298 9.45246" stroke="black" stroke-width="2" stroke-linecap="round" stroke-linejoin="round"/>
<path d="M3 3L21 21" stroke="black" stroke-width="2" stroke-linecap="round" stroke-linejoin="round"/>
</g>
<defs>
<clipPath id="clip0_802_62466">
<rect width="24" height="24" fill="white"/>
</clipPath>
</defs>
</svg>
