<svg width="24" height="24" viewBox="0 0 24 24" fill="none" xmlns="http://www.w3.org/2000/svg">
<g clip-path="url(#clip0_802_61984)">
<path d="M10.2895 3H13.7095C14.2019 2.99997 14.677 3.18155 15.0438 3.50999C15.4106 3.83842 15.6434 4.29062 15.6975 4.78L17.2525 18.78C17.2834 19.0595 17.2551 19.3424 17.1693 19.6102C17.0835 19.878 16.9422 20.1247 16.7546 20.3342C16.567 20.5437 16.3373 20.7113 16.0805 20.826C15.8238 20.9407 15.5457 21 15.2645 21H8.73451C8.45329 21 8.17524 20.9407 7.91848 20.826C7.66173 20.7113 7.43206 20.5437 7.24445 20.3342C7.05685 20.1247 6.91554 19.878 6.82974 19.6102C6.74394 19.3424 6.71558 19.0595 6.74651 18.78L8.30151 4.78C8.35567 4.29062 8.58845 3.83842 8.95526 3.50999C9.32207 3.18155 9.79715 2.99997 10.2895 3Z" stroke="black" stroke-width="2" stroke-linecap="round" stroke-linejoin="round"/>
<path d="M7.47083 12.5L3.21383 7.48101C3.10247 7.34992 3.03106 7.18964 3.00807 7.01918C2.98508 6.84872 3.01146 6.67525 3.0841 6.51934C3.15674 6.36343 3.27258 6.23163 3.41788 6.13958C3.56318 6.04753 3.73183 5.99909 3.90383 6.00001H16.9938C17.3884 5.99909 17.7792 6.07601 18.144 6.22636C18.5088 6.37671 18.8404 6.59755 19.1197 6.87621C19.399 7.15488 19.6206 7.48591 19.7718 7.85034C19.923 8.21478 20.0008 8.60546 20.0008 9.00001V12C20.0008 13.657 18.6548 15 16.9938 15" stroke="black" stroke-width="2" stroke-linecap="round" stroke-linejoin="round"/>
<path d="M7 17H17" stroke="black" stroke-width="2" stroke-linecap="round" stroke-linejoin="round"/>
</g>
<defs>
<clipPath id="clip0_802_61984">
<rect width="24" height="24" fill="white"/>
</clipPath>
</defs>
</svg>
