<svg width="24" height="24" viewBox="0 0 24 24" fill="none" xmlns="http://www.w3.org/2000/svg">
<g clip-path="url(#clip0_802_61569)">
<path d="M3 12V12.01" stroke="black" stroke-width="2" stroke-linecap="round" stroke-linejoin="round"/>
<path d="M7.5 19.8008V19.8108" stroke="black" stroke-width="2" stroke-linecap="round" stroke-linejoin="round"/>
<path d="M4.19922 16.5V16.51" stroke="black" stroke-width="2" stroke-linecap="round" stroke-linejoin="round"/>
<path d="M4.19922 7.5V7.51" stroke="black" stroke-width="2" stroke-linecap="round" stroke-linejoin="round"/>
<path d="M12 21C13.1815 21.0003 14.3514 20.7679 15.4431 20.3159C16.5347 19.864 17.5265 19.2014 18.362 18.366M20.047 16.03C20.7341 14.6579 21.059 13.1328 20.9908 11.5998C20.9226 10.0667 20.4635 8.57661 19.6571 7.27096C18.8508 5.96532 17.724 4.88753 16.3838 4.14001C15.0436 3.39248 13.5346 3.00005 12 3" stroke="black" stroke-width="2" stroke-linecap="round" stroke-linejoin="round"/>
<path d="M3 3L21 21" stroke="black" stroke-width="2" stroke-linecap="round" stroke-linejoin="round"/>
</g>
<defs>
<clipPath id="clip0_802_61569">
<rect width="24" height="24" fill="white"/>
</clipPath>
</defs>
</svg>
