<svg width="24" height="24" viewBox="0 0 24 24" fill="none" xmlns="http://www.w3.org/2000/svg">
<g clip-path="url(#clip0_802_61470)">
<path d="M14.386 10.409C14.916 8.129 16.152 5.717 19 3V15M15 15H14C14 14.687 14 14.373 14 14.059" stroke="black" stroke-width="2" stroke-linecap="round" stroke-linejoin="round"/>
<path d="M19 19V21H18V18" stroke="black" stroke-width="2" stroke-linecap="round" stroke-linejoin="round"/>
<path d="M8 8V21" stroke="black" stroke-width="2" stroke-linecap="round" stroke-linejoin="round"/>
<path d="M5 5V7C4.99982 7.53122 5.1407 8.05297 5.40823 8.51191C5.67577 8.97085 6.06038 9.35051 6.52273 9.6121C6.98508 9.87369 7.50861 10.0078 8.03979 10.0008C8.57096 9.99372 9.09075 9.84576 9.546 9.572M11 7V4" stroke="black" stroke-width="2" stroke-linecap="round" stroke-linejoin="round"/>
<path d="M3 3L21 21" stroke="black" stroke-width="2" stroke-linecap="round" stroke-linejoin="round"/>
</g>
<defs>
<clipPath id="clip0_802_61470">
<rect width="24" height="24" fill="white"/>
</clipPath>
</defs>
</svg>
