<svg width="24" height="24" viewBox="0 0 24 24" fill="none" xmlns="http://www.w3.org/2000/svg">
<g clip-path="url(#clip0_802_61136)">
<path d="M21 12H15H16C16.7956 12 17.5587 12.3161 18.1213 12.8787C18.6839 13.4413 19 14.2044 19 15C19 15.7956 18.6839 16.5587 18.1213 17.1213C17.5587 17.6839 16.7956 18 16 18H15L18 21" stroke="black" stroke-width="2" stroke-linecap="round" stroke-linejoin="round"/>
<path d="M15 15H21" stroke="black" stroke-width="2" stroke-linecap="round" stroke-linejoin="round"/>
<path d="M3 5C3 5.53043 3.21071 6.03914 3.58579 6.41421C3.96086 6.78929 4.46957 7 5 7C5.53043 7 6.03914 6.78929 6.41421 6.41421C6.78929 6.03914 7 5.53043 7 5C7 4.46957 6.78929 3.96086 6.41421 3.58579C6.03914 3.21071 5.53043 3 5 3C4.46957 3 3.96086 3.21071 3.58579 3.58579C3.21071 3.96086 3 4.46957 3 5Z" stroke="black" stroke-width="2" stroke-linecap="round" stroke-linejoin="round"/>
<path d="M15 5C15 5.53043 15.2107 6.03914 15.5858 6.41421C15.9609 6.78929 16.4696 7 17 7C17.5304 7 18.0391 6.78929 18.4142 6.41421C18.7893 6.03914 19 5.53043 19 5C19 4.46957 18.7893 3.96086 18.4142 3.58579C18.0391 3.21071 17.5304 3 17 3C16.4696 3 15.9609 3.21071 15.5858 3.58579C15.2107 3.96086 15 4.46957 15 5Z" stroke="black" stroke-width="2" stroke-linecap="round" stroke-linejoin="round"/>
<path d="M7 5H15" stroke="black" stroke-width="2" stroke-linecap="round" stroke-linejoin="round"/>
<path d="M7 5V13C7 13.7956 7.31607 14.5587 7.87868 15.1213C8.44129 15.6839 9.20435 16 10 16H11" stroke="black" stroke-width="2" stroke-linecap="round" stroke-linejoin="round"/>
</g>
<defs>
<clipPath id="clip0_802_61136">
<rect width="24" height="24" fill="white"/>
</clipPath>
</defs>
</svg>
