<svg width="24" height="24" viewBox="0 0 24 24" fill="none" xmlns="http://www.w3.org/2000/svg">
<g clip-path="url(#clip0_802_57080)">
<path d="M19.9989 6C20.2538 6.00028 20.4989 6.09788 20.6843 6.27285C20.8696 6.44782 20.9811 6.68695 20.9961 6.94139C21.011 7.19584 20.9282 7.44638 20.7646 7.64183C20.601 7.83729 20.369 7.9629 20.1159 7.993L19.9989 8H19.9179L18.9989 19C18.9989 19.7652 18.7066 20.5015 18.1816 21.0583C17.6566 21.615 16.9388 21.9501 16.1749 21.995L15.9989 22H7.99889C6.40089 22 5.09489 20.751 5.00689 19.25L5.00189 19.083L4.07889 8H3.99889C3.74401 7.99972 3.49886 7.90212 3.31352 7.72715C3.12819 7.55218 3.01666 7.31305 3.00172 7.05861C2.98678 6.80416 3.06957 6.55362 3.23316 6.35817C3.39675 6.16271 3.6288 6.0371 3.88189 6.007L3.99889 6H19.9989Z" fill="black"/>
<path d="M14 2C14.5304 2 15.0391 2.21071 15.4142 2.58579C15.7893 2.96086 16 3.46957 16 4C15.9997 4.25488 15.9021 4.50003 15.7272 4.68537C15.5522 4.8707 15.313 4.98223 15.0586 4.99717C14.8042 5.01211 14.5536 4.92933 14.3582 4.76574C14.1627 4.60214 14.0371 4.3701 14.007 4.117L14 4H10L9.993 4.117C9.9629 4.3701 9.83729 4.60214 9.64183 4.76574C9.44638 4.92933 9.19584 5.01211 8.94139 4.99717C8.68695 4.98223 8.44782 4.8707 8.27285 4.68537C8.09788 4.50003 8.00028 4.25488 8 4C7.99984 3.49542 8.19041 3.00943 8.5335 2.63945C8.87659 2.26947 9.34685 2.04284 9.85 2.005L10 2H14Z" fill="black"/>
</g>
<defs>
<clipPath id="clip0_802_57080">
<rect width="24" height="24" fill="white"/>
</clipPath>
</defs>
</svg>
