<svg width="24" height="24" viewBox="0 0 24 24" fill="none" xmlns="http://www.w3.org/2000/svg">
<g clip-path="url(#clip0_802_59952)">
<path d="M20.116 20.127C19.8379 20.4044 19.5079 20.6242 19.1448 20.774C18.7818 20.9238 18.3928 21.0006 18 21H6C5.20435 21 4.44129 20.6839 3.87868 20.1213C3.31607 19.5587 3 18.7956 3 18V6C3 5.173 3.335 4.424 3.877 3.88M7 3H18C18.7956 3 19.5587 3.31607 20.1213 3.87868C20.6839 4.44129 21 5.20435 21 6V17" stroke="black" stroke-width="2" stroke-linecap="round" stroke-linejoin="round"/>
<path d="M17.7443 13.7411C18.0597 12.7012 18.0867 11.5951 17.8224 10.541C17.5582 9.48696 17.0126 8.52443 16.244 7.75623C15.4754 6.98802 14.5126 6.44298 13.4584 6.1793C12.4041 5.91563 11.2981 5.94321 10.2583 6.25911M7.75932 7.75611C7.19442 8.31126 6.74501 8.97276 6.43703 9.70246C6.12905 10.4322 5.96859 11.2156 5.96491 12.0076C5.96123 12.7997 6.11439 13.5846 6.41557 14.3171C6.71675 15.0497 7.15998 15.7153 7.7197 16.2757C8.27942 16.8361 8.94456 17.2801 9.67673 17.5821C10.4089 17.8842 11.1936 18.0383 11.9857 18.0355C12.7777 18.0328 13.5613 17.8732 14.2914 17.5661C15.0215 17.259 15.6835 16.8104 16.2393 16.2461" stroke="black" stroke-width="2" stroke-linecap="round" stroke-linejoin="round"/>
<path d="M3 3L21 21" stroke="black" stroke-width="2" stroke-linecap="round" stroke-linejoin="round"/>
</g>
<defs>
<clipPath id="clip0_802_59952">
<rect width="24" height="24" fill="white"/>
</clipPath>
</defs>
</svg>
