<svg width="24" height="24" viewBox="0 0 24 24" fill="none" xmlns="http://www.w3.org/2000/svg">
<g clip-path="url(#clip0_802_59839)">
<path d="M5 7.99954H8M12 7.99954H13.5C13.9644 8.00843 14.4222 7.88775 14.8218 7.65103C15.2215 7.41431 15.5473 7.07092 15.7627 6.65937C15.9782 6.24783 16.0747 5.7844 16.0414 5.32108C16.0082 4.85775 15.8465 4.41285 15.5745 4.03627C15.3026 3.6597 14.931 3.36635 14.5017 3.18912C14.0723 3.01189 13.602 2.95779 13.1436 3.03289C12.6852 3.108 12.2568 3.30933 11.9064 3.61432C11.5561 3.9193 11.2976 4.31587 11.16 4.75954" stroke="black" stroke-width="2" stroke-linecap="round" stroke-linejoin="round"/>
<path d="M3 12H12" stroke="black" stroke-width="2" stroke-linecap="round" stroke-linejoin="round"/>
<path d="M16 12.0005H18.5C19.0002 11.9908 19.4918 12.1315 19.9112 12.4044C20.3306 12.6772 20.6585 13.0696 20.8525 13.5307C21.0465 13.9919 21.0976 14.5007 20.9993 14.9913C20.901 15.4819 20.6577 15.9316 20.301 16.2825" stroke="black" stroke-width="2" stroke-linecap="round" stroke-linejoin="round"/>
<path d="M4 16.0005H9.5C9.96443 15.9916 10.4222 16.1123 10.8218 16.349C11.2215 16.5857 11.5473 16.9291 11.7627 17.3406C11.9782 17.7522 12.0747 18.2156 12.0414 18.6789C12.0082 19.1423 11.8465 19.5872 11.5745 19.9637C11.3026 20.3403 10.931 20.6337 10.5017 20.8109C10.0723 20.9881 9.60203 21.0422 9.14362 20.9671C8.68522 20.892 8.2568 20.6907 7.90643 20.3857C7.55605 20.0807 7.29758 19.6841 7.16 19.2405" stroke="black" stroke-width="2" stroke-linecap="round" stroke-linejoin="round"/>
<path d="M3 3L21 21" stroke="black" stroke-width="2" stroke-linecap="round" stroke-linejoin="round"/>
</g>
<defs>
<clipPath id="clip0_802_59839">
<rect width="24" height="24" fill="white"/>
</clipPath>
</defs>
</svg>
