<svg width="24" height="24" viewBox="0 0 24 24" fill="none" xmlns="http://www.w3.org/2000/svg">
<g clip-path="url(#clip0_802_59780)">
<path d="M11 20C11 20.2652 11.1054 20.5196 11.2929 20.7071C11.4804 20.8946 11.7348 21 12 21C12.2652 21 12.5196 20.8946 12.7071 20.7071C12.8946 20.5196 13 20.2652 13 20C13 19.7348 12.8946 19.4804 12.7071 19.2929C12.5196 19.1054 12.2652 19 12 19C11.7348 19 11.4804 19.1054 11.2929 19.2929C11.1054 19.4804 11 19.7348 11 20Z" stroke="black" stroke-width="2" stroke-linecap="round" stroke-linejoin="round"/>
<path d="M3 11.0002L8.5 16.5002C9.43464 15.5841 10.6912 15.071 12 15.071C13.3088 15.071 14.5654 15.5841 15.5 16.5002L21 11.0002C19.8739 9.72337 18.489 8.70072 16.9373 8.00025C15.3855 7.29977 13.7025 6.9375 12 6.9375C10.2975 6.9375 8.61447 7.29977 7.06275 8.00025C5.51102 8.70072 4.1261 9.72337 3 11.0002Z" stroke="black" stroke-width="2" stroke-linecap="round" stroke-linejoin="round"/>
<path d="M12 20V6" stroke="black" stroke-width="2" stroke-linecap="round" stroke-linejoin="round"/>
<path d="M4.00039 5.99922C3.99172 5.37626 4.12869 4.75988 4.40039 4.19922" stroke="black" stroke-width="2" stroke-linecap="round" stroke-linejoin="round"/>
<path d="M7 2.09967C7.65591 1.93032 8.34409 1.93032 9 2.09967" stroke="black" stroke-width="2" stroke-linecap="round" stroke-linejoin="round"/>
<path d="M12.0016 5.99922C12.0102 5.37626 11.8733 4.75988 11.6016 4.19922" stroke="black" stroke-width="2" stroke-linecap="round" stroke-linejoin="round"/>
<path d="M12.0004 5.99922C11.9917 5.37626 12.1287 4.75988 12.4004 4.19922" stroke="black" stroke-width="2" stroke-linecap="round" stroke-linejoin="round"/>
<path d="M15 2.09967C15.6559 1.93032 16.3441 1.93032 17 2.09967" stroke="black" stroke-width="2" stroke-linecap="round" stroke-linejoin="round"/>
<path d="M20.0016 5.99922C20.0102 5.37626 19.8733 4.75988 19.6016 4.19922" stroke="black" stroke-width="2" stroke-linecap="round" stroke-linejoin="round"/>
</g>
<defs>
<clipPath id="clip0_802_59780">
<rect width="24" height="24" fill="white"/>
</clipPath>
</defs>
</svg>
