<svg width="24" height="24" viewBox="0 0 24 24" fill="none" xmlns="http://www.w3.org/2000/svg">
<g clip-path="url(#clip0_802_59589)">
<path d="M21 12C21 10.22 20.4722 8.47991 19.4832 6.99987C18.4943 5.51983 17.0887 4.36628 15.4442 3.68509C13.7996 3.0039 11.99 2.82567 10.2442 3.17294C8.49836 3.5202 6.89472 4.37737 5.63604 5.63604C4.37737 6.89472 3.5202 8.49836 3.17294 10.2442C2.82567 11.99 3.0039 13.7996 3.68509 15.4442C4.36628 17.0887 5.51983 18.4943 6.99987 19.4832C8.47991 20.4722 10.22 21 12 21" stroke="black" stroke-width="2" stroke-linecap="round" stroke-linejoin="round"/>
<path d="M3.60156 9H20.4016" stroke="black" stroke-width="2" stroke-linecap="round" stroke-linejoin="round"/>
<path d="M3.60156 15H11.5016" stroke="black" stroke-width="2" stroke-linecap="round" stroke-linejoin="round"/>
<path d="M11.4997 3C9.81501 5.69961 8.92188 8.81787 8.92188 12C8.92188 15.1821 9.81501 18.3004 11.4997 21" stroke="black" stroke-width="2" stroke-linecap="round" stroke-linejoin="round"/>
<path d="M12.5 3C14.1172 5.58974 15.0064 8.56754 15.074 11.62" stroke="black" stroke-width="2" stroke-linecap="round" stroke-linejoin="round"/>
<path d="M15 18C15 18.7956 15.3161 19.5587 15.8787 20.1213C16.4413 20.6839 17.2044 21 18 21C18.7956 21 19.5587 20.6839 20.1213 20.1213C20.6839 19.5587 21 18.7956 21 18C21 17.2044 20.6839 16.4413 20.1213 15.8787C19.5587 15.3161 18.7956 15 18 15C17.2044 15 16.4413 15.3161 15.8787 15.8787C15.3161 16.4413 15 17.2044 15 18Z" stroke="black" stroke-width="2" stroke-linecap="round" stroke-linejoin="round"/>
<path d="M20.1992 20.1992L21.9992 21.9992" stroke="black" stroke-width="2" stroke-linecap="round" stroke-linejoin="round"/>
</g>
<defs>
<clipPath id="clip0_802_59589">
<rect width="24" height="24" fill="white"/>
</clipPath>
</defs>
</svg>
