<svg width="24" height="24" viewBox="0 0 24 24" fill="none" xmlns="http://www.w3.org/2000/svg">
<g clip-path="url(#clip0_802_59425)">
<path d="M3 12C3 12.7956 3.31607 13.5587 3.87868 14.1213C4.44129 14.6839 5.20435 15 6 15C6.79565 15 7.55871 14.6839 8.12132 14.1213C8.68393 13.5587 9 12.7956 9 12C9 11.2044 8.68393 10.4413 8.12132 9.87868C7.55871 9.31607 6.79565 9 6 9C5.20435 9 4.44129 9.31607 3.87868 9.87868C3.31607 10.4413 3 11.2044 3 12Z" stroke="black" stroke-width="2" stroke-linecap="round" stroke-linejoin="round"/>
<path d="M15 12C15 12.7956 15.3161 13.5587 15.8787 14.1213C16.4413 14.6839 17.2044 15 18 15C18.7956 15 19.5587 14.6839 20.1213 14.1213C20.6839 13.5587 21 12.7956 21 12C21 11.2044 20.6839 10.4413 20.1213 9.87868C19.5587 9.31607 18.7956 9 18 9C17.2044 9 16.4413 9.31607 15.8787 9.87868C15.3161 10.4413 15 11.2044 15 12Z" stroke="black" stroke-width="2" stroke-linecap="round" stroke-linejoin="round"/>
<path d="M3.0011 11.9983C2.85342 10.8741 3.15852 9.74417 3.88641 8.71981C4.6143 7.69544 5.73989 6.81189 7.15246 6.15605C8.56504 5.50021 10.2159 5.09468 11.9428 4.97935C13.6696 4.86403 15.4129 5.04288 17.0011 5.49831" stroke="black" stroke-width="2" stroke-linecap="round" stroke-linejoin="round"/>
<path d="M21 12C21.1477 13.1243 20.8426 14.2541 20.1147 15.2785C19.3868 16.3029 18.2612 17.1864 16.8486 17.8423C15.4361 18.4981 13.7852 18.9036 12.0583 19.019C10.3315 19.1343 8.58823 18.9554 7 18.5" stroke="black" stroke-width="2" stroke-linecap="round" stroke-linejoin="round"/>
</g>
<defs>
<clipPath id="clip0_802_59425">
<rect width="24" height="24" fill="white"/>
</clipPath>
</defs>
</svg>
