<svg width="24" height="24" viewBox="0 0 24 24" fill="none" xmlns="http://www.w3.org/2000/svg">
<g clip-path="url(#clip0_802_57016)">
<path d="M14 3.07185C14.9895 3.64306 15.8453 4.41962 16.5095 5.34926C17.1738 6.27889 17.6313 7.34004 17.8511 8.46127C18.0709 9.58251 18.048 10.7378 17.7839 11.8495C17.5198 12.9611 17.0206 14.0033 16.32 14.9058L21.707 20.2928C21.8892 20.4814 21.99 20.734 21.9877 20.9962C21.9854 21.2584 21.8802 21.5093 21.6948 21.6947C21.5094 21.8801 21.2586 21.9852 20.9964 21.9875C20.7342 21.9898 20.4816 21.889 20.293 21.7068L14.905 16.3198C13.7224 17.2376 12.3061 17.8053 10.817 17.9581C9.32791 18.111 7.82579 17.843 6.48143 17.1846C5.13706 16.5263 4.00438 15.5039 3.21217 14.2338C2.41995 12.9637 1.99998 11.4968 2 9.99985L2.005 9.71485C2.05419 8.33559 2.45937 6.99253 3.18115 5.81618C3.90292 4.63983 4.91675 3.67022 6.12409 3.00157C7.33143 2.33293 8.69122 1.98801 10.0713 2.00032C11.4514 2.01263 12.8048 2.38177 14 3.07185ZM10 11.9998C9.73478 11.9998 9.48043 12.1052 9.29289 12.2927C9.10536 12.4803 9 12.7346 9 12.9998L9.007 13.1268C9.0371 13.3799 9.16271 13.612 9.35817 13.7756C9.55362 13.9392 9.80416 14.022 10.0586 14.007C10.313 13.9921 10.5522 13.8806 10.7272 13.6952C10.9021 13.5099 10.9997 13.2647 11 13.0098L10.993 12.8828C10.9643 12.6396 10.8474 12.4153 10.6644 12.2526C10.4813 12.0898 10.2449 11.9999 10 11.9998ZM10 5.99985C9.73478 5.99985 9.48043 6.1052 9.29289 6.29274C9.10536 6.48027 9 6.73463 9 6.99985V9.99985C9 10.2651 9.10536 10.5194 9.29289 10.707C9.48043 10.8945 9.73478 10.9998 10 10.9998C10.2652 10.9998 10.5196 10.8945 10.7071 10.707C10.8946 10.5194 11 10.2651 11 9.99985V6.99985C11 6.73463 10.8946 6.48027 10.7071 6.29274C10.5196 6.1052 10.2652 5.99985 10 5.99985Z" fill="black"/>
</g>
<defs>
<clipPath id="clip0_802_57016">
<rect width="24" height="24" fill="white"/>
</clipPath>
</defs>
</svg>
