<svg width="24" height="24" viewBox="0 0 24 24" fill="none" xmlns="http://www.w3.org/2000/svg">
<g clip-path="url(#clip0_802_56979)">
<path d="M4 15C4.26522 15 4.51957 15.1054 4.70711 15.2929C4.89464 15.4804 5 15.7348 5 16V18C5 18.2652 5.10536 18.5196 5.29289 18.7071C5.48043 18.8946 5.73478 19 6 19H8C8.26522 19 8.51957 19.1054 8.70711 19.2929C8.89464 19.4804 9 19.7348 9 20C9 20.2652 8.89464 20.5196 8.70711 20.7071C8.51957 20.8946 8.26522 21 8 21H6C5.20435 21 4.44129 20.6839 3.87868 20.1213C3.31607 19.5587 3 18.7956 3 18V16C3 15.7348 3.10536 15.4804 3.29289 15.2929C3.48043 15.1054 3.73478 15 4 15Z" fill="black"/>
<path d="M20 15C20.2652 15 20.5196 15.1054 20.7071 15.2929C20.8946 15.4804 21 15.7348 21 16V18C21 18.7956 20.6839 19.5587 20.1213 20.1213C19.5587 20.6839 18.7956 21 18 21H16C15.7348 21 15.4804 20.8946 15.2929 20.7071C15.1054 20.5196 15 20.2652 15 20C15 19.7348 15.1054 19.4804 15.2929 19.2929C15.4804 19.1054 15.7348 19 16 19H18C18.2652 19 18.5196 18.8946 18.7071 18.7071C18.8946 18.5196 19 18.2652 19 18V16C19 15.7348 19.1054 15.4804 19.2929 15.2929C19.4804 15.1054 19.7348 15 20 15Z" fill="black"/>
<path d="M11 7C11.7052 7 12.3978 7.18644 13.0078 7.5404C13.6177 7.89437 14.1232 8.40328 14.473 9.01557C14.8229 9.62786 15.0046 10.3217 14.9999 11.0269C14.9951 11.7321 14.8041 12.4235 14.446 13.031L16.707 15.293C16.8892 15.4816 16.99 15.7342 16.9877 15.9964C16.9854 16.2586 16.8802 16.5094 16.6948 16.6948C16.5094 16.8802 16.2586 16.9854 15.9964 16.9877C15.7342 16.99 15.4816 16.8892 15.293 16.707L13.031 14.447L13 14.464C12.3919 14.8151 11.7022 14.9999 11 14.9999C10.2979 14.9999 9.60812 14.8151 9.00004 14.464C8.39197 14.113 7.88702 13.608 7.53594 13C7.18486 12.3919 7.00002 11.7021 7 11L7.005 10.8C7.05631 9.77504 7.4996 8.80901 8.24319 8.10172C8.98677 7.39444 9.97376 7 11 7Z" fill="black"/>
<path d="M8 3C8.26522 3 8.51957 3.10536 8.70711 3.29289C8.89464 3.48043 9 3.73478 9 4C9 4.26522 8.89464 4.51957 8.70711 4.70711C8.51957 4.89464 8.26522 5 8 5H6C5.73478 5 5.48043 5.10536 5.29289 5.29289C5.10536 5.48043 5 5.73478 5 6V8C5 8.26522 4.89464 8.51957 4.70711 8.70711C4.51957 8.89464 4.26522 9 4 9C3.73478 9 3.48043 8.89464 3.29289 8.70711C3.10536 8.51957 3 8.26522 3 8V6C3 5.20435 3.31607 4.44129 3.87868 3.87868C4.44129 3.31607 5.20435 3 6 3H8Z" fill="black"/>
<path d="M18 3C18.7956 3 19.5587 3.31607 20.1213 3.87868C20.6839 4.44129 21 5.20435 21 6V8C21 8.26522 20.8946 8.51957 20.7071 8.70711C20.5196 8.89464 20.2652 9 20 9C19.7348 9 19.4804 8.89464 19.2929 8.70711C19.1054 8.51957 19 8.26522 19 8V6C19 5.73478 18.8946 5.48043 18.7071 5.29289C18.5196 5.10536 18.2652 5 18 5H16C15.7348 5 15.4804 4.89464 15.2929 4.70711C15.1054 4.51957 15 4.26522 15 4C15 3.73478 15.1054 3.48043 15.2929 3.29289C15.4804 3.10536 15.7348 3 16 3H18Z" fill="black"/>
</g>
<defs>
<clipPath id="clip0_802_56979">
<rect width="24" height="24" fill="white"/>
</clipPath>
</defs>
</svg>
