<svg width="24" height="24" viewBox="0 0 24 24" fill="none" xmlns="http://www.w3.org/2000/svg">
<g clip-path="url(#clip0_802_86591)">
<path d="M3 16V10.5C3 9.83696 3.26339 9.20107 3.73223 8.73223C4.20107 8.26339 4.83696 8 5.5 8C6.16304 8 6.79893 8.26339 7.26777 8.73223C7.73661 9.20107 8 9.83696 8 10.5V16M8 12H3" stroke="black" stroke-width="2" stroke-linecap="round" stroke-linejoin="round"/>
<path d="M12 6V18" stroke="black" stroke-width="2" stroke-linecap="round" stroke-linejoin="round"/>
<path d="M19 12C19.5304 12 20.0391 11.7893 20.4142 11.4142C20.7893 11.0391 21 10.5304 21 10C21 9.46957 20.7893 8.96086 20.4142 8.58579C20.0391 8.21071 19.5304 8 19 8H16V16H19C19.5304 16 20.0391 15.7893 20.4142 15.4142C20.7893 15.0391 21 14.5304 21 14C21 13.4696 20.7893 12.9609 20.4142 12.5858C20.0391 12.2107 19.5304 12 19 12ZM19 12H16" stroke="black" stroke-width="2" stroke-linecap="round" stroke-linejoin="round"/>
</g>
<defs>
<clipPath id="clip0_802_86591">
<rect width="24" height="24" fill="white"/>
</clipPath>
</defs>
</svg>
