<svg width="24" height="24" viewBox="0 0 24 24" fill="none" xmlns="http://www.w3.org/2000/svg">
<g clip-path="url(#clip0_802_86412)">
<path d="M4 10C4 10.5304 4.21071 11.0391 4.58579 11.4142C4.96086 11.7893 5.46957 12 6 12C6.53043 12 7.03914 11.7893 7.41421 11.4142C7.78929 11.0391 8 10.5304 8 10C8 9.46957 7.78929 8.96086 7.41421 8.58579C7.03914 8.21071 6.53043 8 6 8C5.46957 8 4.96086 8.21071 4.58579 8.58579C4.21071 8.96086 4 9.46957 4 10Z" stroke="black" stroke-width="2" stroke-linecap="round" stroke-linejoin="round"/>
<path d="M6 4V8" stroke="black" stroke-width="2" stroke-linecap="round" stroke-linejoin="round"/>
<path d="M6 12V20" stroke="black" stroke-width="2" stroke-linecap="round" stroke-linejoin="round"/>
<path d="M13.5572 14.745C13.3452 14.4818 13.0698 14.2767 12.757 14.1488C12.4442 14.0209 12.1041 13.9743 11.7684 14.0135C11.4327 14.0526 11.1124 14.1762 10.8374 14.3727C10.5624 14.5691 10.3416 14.8321 10.1958 15.137C10.0499 15.4419 9.98375 15.7787 10.0034 16.1161C10.023 16.4535 10.1278 16.7805 10.308 17.0664C10.4882 17.3523 10.7379 17.5879 11.0339 17.7512C11.3298 17.9144 11.6623 18 12.0002 18" stroke="black" stroke-width="2" stroke-linecap="round" stroke-linejoin="round"/>
<path d="M12 4V14" stroke="black" stroke-width="2" stroke-linecap="round" stroke-linejoin="round"/>
<path d="M12 18V20" stroke="black" stroke-width="2" stroke-linecap="round" stroke-linejoin="round"/>
<path d="M16 7C16 7.53043 16.2107 8.03914 16.5858 8.41421C16.9609 8.78929 17.4696 9 18 9C18.5304 9 19.0391 8.78929 19.4142 8.41421C19.7893 8.03914 20 7.53043 20 7C20 6.46957 19.7893 5.96086 19.4142 5.58579C19.0391 5.21071 18.5304 5 18 5C17.4696 5 16.9609 5.21071 16.5858 5.58579C16.2107 5.96086 16 6.46957 16 7Z" stroke="black" stroke-width="2" stroke-linecap="round" stroke-linejoin="round"/>
<path d="M18 4V5" stroke="black" stroke-width="2" stroke-linecap="round" stroke-linejoin="round"/>
<path d="M18 9V13" stroke="black" stroke-width="2" stroke-linecap="round" stroke-linejoin="round"/>
<path d="M20 21L22 19L20 17" stroke="black" stroke-width="2" stroke-linecap="round" stroke-linejoin="round"/>
<path d="M17 17L15 19L17 21" stroke="black" stroke-width="2" stroke-linecap="round" stroke-linejoin="round"/>
</g>
<defs>
<clipPath id="clip0_802_86412">
<rect width="24" height="24" fill="white"/>
</clipPath>
</defs>
</svg>
