<svg width="24" height="24" viewBox="0 0 24 24" fill="none" xmlns="http://www.w3.org/2000/svg">
<g clip-path="url(#clip0_802_59253)">
<path d="M18.5 3.00018C18.8676 3.00029 19.2306 3.08144 19.5632 3.23787C19.8958 3.39429 20.1898 3.62213 20.4244 3.90517C20.6589 4.18821 20.8281 4.51947 20.9199 4.87537C21.0118 5.23127 21.0241 5.60304 20.9558 5.96422C20.8876 6.3254 20.7406 6.66708 20.5252 6.96495C20.3099 7.26281 20.0315 7.50953 19.7099 7.68752C19.3883 7.86551 19.0314 7.97039 18.6646 7.99471C18.2979 8.01902 17.9303 7.96216 17.588 7.82818L13.032 12.3832C13.781 13.4681 14.1133 14.7869 13.968 16.0972L16.592 16.8842C16.9634 16.4461 17.4743 16.1492 18.0388 16.0435C18.6033 15.9378 19.187 16.0296 19.6918 16.3036C20.1965 16.5777 20.5915 17.0171 20.8104 17.5481C21.0292 18.0791 21.0586 18.6693 20.8935 19.2194C20.7284 19.7695 20.379 20.2459 19.9039 20.5687C19.4288 20.8914 18.8571 21.0408 18.2849 20.9916C17.7127 20.9424 17.1748 20.6977 16.7618 20.2986C16.3488 19.8995 16.0858 19.3704 16.017 18.8002L13.394 18.0122C12.8395 19.0938 11.9424 19.9613 10.8427 20.4791C9.74303 20.9969 8.50281 21.1359 7.31583 20.8742C6.12884 20.6126 5.06195 19.9652 4.28185 19.0331C3.50176 18.101 3.0524 16.9367 3.004 15.7222L3 15.5002L3.004 15.2792C3.04297 14.3058 3.33979 13.3602 3.86408 12.5392C4.38837 11.7181 5.12133 11.051 5.988 10.6062L5.2 7.98218C4.62353 7.91297 4.08917 7.6451 3.68877 7.22463C3.28837 6.80416 3.04695 6.25735 3.006 5.67818L3 5.50018L3.005 5.33618C3.03206 4.92417 3.16074 4.52527 3.37956 4.17512C3.59838 3.82497 3.90052 3.53446 4.25899 3.32956C4.61746 3.12466 5.0211 3.01173 5.43386 3.00087C5.84662 2.99 6.25564 3.08154 6.62439 3.26731C6.99314 3.45308 7.31014 3.72728 7.54707 4.06544C7.78401 4.4036 7.93349 4.79518 7.98218 5.2052C8.03087 5.61522 7.97725 6.03091 7.8261 6.41515C7.67496 6.7994 7.43099 7.14022 7.116 7.40718L7.903 10.0322C9.21331 9.88685 10.5321 10.2192 11.617 10.9682L16.172 6.41218C16.078 6.17297 16.0217 5.92065 16.005 5.66418L16 5.50018L16.005 5.33618C16.0466 4.70283 16.3276 4.10903 16.791 3.67522C17.2543 3.24141 17.8653 3.00008 18.5 3.00018Z" fill="black"/>
</g>
<defs>
<clipPath id="clip0_802_59253">
<rect width="24" height="24" fill="white"/>
</clipPath>
</defs>
</svg>
