<svg width="24" height="24" viewBox="0 0 24 24" fill="none" xmlns="http://www.w3.org/2000/svg">
<g clip-path="url(#clip0_802_59243)">
<path d="M16 6.07185C17.2057 6.76797 18.2088 7.76668 18.9103 8.96927C19.6118 10.1719 19.9872 11.5367 19.9996 12.9288C20.012 14.321 19.6609 15.6923 18.9809 16.9072C18.301 18.1221 17.3157 19.1385 16.1226 19.8559C14.9295 20.5734 13.5698 20.967 12.1779 20.998C10.7861 21.029 9.41021 20.6962 8.18636 20.0326C6.96251 19.3689 5.93304 18.3973 5.19971 17.2139C4.46637 16.0305 4.05457 14.6762 4.005 13.2848L4 12.9998L4.005 12.7148C4.05419 11.3356 4.45937 9.99253 5.18115 8.81618C5.90292 7.63983 6.91675 6.67022 8.12409 6.00157C9.33143 5.33293 10.6912 4.98801 12.0713 5.00032C13.4514 5.01263 14.8048 5.38177 16 6.07185ZM12 9.99985C11.7348 9.99985 11.4804 10.1052 11.2929 10.2927C11.1054 10.4803 11 10.7346 11 10.9998V11.9998H10L9.883 12.0068C9.6299 12.0369 9.39785 12.1626 9.23426 12.358C9.07067 12.5535 8.98789 12.804 9.00283 13.0584C9.01776 13.3129 9.1293 13.552 9.31463 13.727C9.49997 13.902 9.74512 13.9996 10 13.9998H11V14.9998L11.007 15.1168C11.0371 15.3699 11.1627 15.602 11.3582 15.7656C11.5536 15.9292 11.8042 16.012 12.0586 15.997C12.313 15.9821 12.5522 15.8705 12.7272 15.6852C12.9021 15.4999 12.9997 15.2547 13 14.9998V13.9998H14L14.117 13.9928C14.3701 13.9627 14.6021 13.8371 14.7657 13.6417C14.9293 13.4462 15.0121 13.1957 14.9972 12.9412C14.9822 12.6868 14.8707 12.4477 14.6854 12.2727C14.5 12.0977 14.2549 12.0001 14 11.9998H13V10.9998L12.993 10.8828C12.9643 10.6396 12.8474 10.4153 12.6644 10.2526C12.4813 10.0898 12.2449 9.99988 12 9.99985Z" fill="black"/>
<path d="M6.41069 3.18934C6.61634 3.03662 6.87276 2.96865 7.12707 2.99944C7.38137 3.03023 7.61416 3.15743 7.77743 3.35482C7.94069 3.5522 8.02199 3.80472 8.00455 4.06028C7.98711 4.31584 7.87226 4.55497 7.68369 4.72834L7.58669 4.80834L4.83669 6.80834C4.6311 6.96346 4.3736 7.03328 4.11782 7.00326C3.86204 6.97325 3.6277 6.84571 3.46362 6.64721C3.29953 6.44871 3.21836 6.19456 3.237 5.9377C3.25564 5.68084 3.37266 5.44107 3.56369 5.26834L3.66069 5.18834L6.41069 3.18934Z" fill="black"/>
<path d="M16.1905 3.41193C16.3337 3.21496 16.5439 3.07702 16.7816 3.02399C17.0193 2.97097 17.2682 3.0065 17.4815 3.12393L17.5875 3.19093L20.3375 5.19093C20.5432 5.34052 20.6841 5.56284 20.7317 5.81266C20.7792 6.06249 20.7298 6.32104 20.5935 6.53573C20.4572 6.75041 20.2442 6.90509 19.9978 6.96829C19.7515 7.03149 19.4903 6.99847 19.2675 6.87593L19.1615 6.80893L16.4115 4.80893C16.3053 4.73165 16.2154 4.63421 16.1469 4.52218C16.0784 4.41015 16.0326 4.28572 16.0122 4.156C15.9917 4.02627 15.9971 3.8938 16.0278 3.76613C16.0586 3.63846 16.1132 3.51811 16.1905 3.41193Z" fill="black"/>
</g>
<defs>
<clipPath id="clip0_802_59243">
<rect width="24" height="24" fill="white"/>
</clipPath>
</defs>
</svg>
