<svg width="24" height="24" viewBox="0 0 24 24" fill="none" xmlns="http://www.w3.org/2000/svg">
<g clip-path="url(#clip0_802_86087)">
<path d="M18.36 18.3856L13.092 21.7186C12.7574 21.9023 12.3818 21.9986 12 21.9986C11.6182 21.9986 11.2426 21.9023 10.908 21.7186L4.158 17.4486C3.80817 17.2574 3.51612 16.9758 3.31241 16.6331C3.1087 16.2904 3.0008 15.8993 3 15.5006V8.21559C3 7.40659 3.443 6.66159 4.158 6.26859L5.475 5.49159M8.01 3.99859L10.908 2.28959C11.2525 2.09963 11.6396 2 12.033 2C12.4264 2 12.8135 2.09963 13.158 2.28959L19.908 6.26959H19.875C20.575 6.66759 21.005 7.41259 21 8.21759V15.5016C21 15.9156 20.884 16.3136 20.674 16.6566" stroke="black" stroke-width="2" stroke-linecap="round" stroke-linejoin="round"/>
<path d="M12 7V8" stroke="black" stroke-width="2" stroke-linecap="round" stroke-linejoin="round"/>
<path d="M12 8V8.01" stroke="black" stroke-width="2" stroke-linecap="round" stroke-linejoin="round"/>
<path d="M3 3L21 21" stroke="black" stroke-width="2" stroke-linecap="round" stroke-linejoin="round"/>
<path d="M12 16H12.01" stroke="black" stroke-width="2" stroke-linecap="round" stroke-linejoin="round"/>
</g>
<defs>
<clipPath id="clip0_802_86087">
<rect width="24" height="24" fill="white"/>
</clipPath>
</defs>
</svg>
