<svg width="24" height="24" viewBox="0 0 24 24" fill="none" xmlns="http://www.w3.org/2000/svg">
<g clip-path="url(#clip0_802_85507)">
<path d="M19.9998 14.9998H11.9998V18.5858C11.9998 18.7836 11.9411 18.9769 11.8313 19.1413C11.7214 19.3057 11.5652 19.4339 11.3825 19.5095C11.1998 19.5852 10.9988 19.605 10.8048 19.5664C10.6109 19.5279 10.4327 19.4327 10.2928 19.2928L3.70685 12.7068C3.51938 12.5193 3.41406 12.265 3.41406 11.9998C3.41406 11.7347 3.51938 11.4804 3.70685 11.2928L10.2928 4.70685C10.4327 4.56704 10.6109 4.47183 10.8048 4.43327C10.9988 4.3947 11.1998 4.4145 11.3825 4.49017C11.5652 4.56584 11.7214 4.69398 11.8313 4.85839C11.9411 5.0228 11.9998 5.2161 11.9998 5.41385V8.99985H19.9998C20.2651 8.99985 20.5194 9.10521 20.707 9.29274C20.8945 9.48028 20.9998 9.73463 20.9998 9.99985V13.9998C20.9998 14.2651 20.8945 14.5194 20.707 14.707C20.5194 14.8945 20.2651 14.9998 19.9998 14.9998Z" stroke="black" stroke-width="2" stroke-linecap="round" stroke-linejoin="round"/>
</g>
<defs>
<clipPath id="clip0_802_85507">
<rect width="24" height="24" fill="white"/>
</clipPath>
</defs>
</svg>
