<svg width="24" height="24" viewBox="0 0 24 24" fill="none" xmlns="http://www.w3.org/2000/svg">
<g clip-path="url(#clip0_802_59109)">
<path d="M12.089 3.63429C11.7612 3.802 11.4861 4.05694 11.294 4.37101C11.1018 4.68509 11.0001 5.04611 11 5.41429L10.999 8.00029H6C5.73478 8.00029 5.48043 8.10565 5.29289 8.29319C5.10536 8.48072 5 8.73508 5 9.00029V15.0003L5.007 15.1173C5.03566 15.3605 5.15259 15.5848 5.33563 15.7476C5.51866 15.9103 5.75507 16.0003 6 16.0003L10.999 15.9993L11 18.5863C11.0001 18.9818 11.1174 19.3684 11.3372 19.6972C11.557 20.026 11.8693 20.2823 12.2347 20.4336C12.6001 20.585 13.0022 20.6246 13.3901 20.5475C13.778 20.4703 14.1343 20.2799 14.414 20.0003L21 13.4143C21.3749 13.0392 21.5856 12.5306 21.5856 12.0003C21.5856 11.47 21.3749 10.9613 21 10.5863L14.414 4.00029C14.1343 3.72043 13.7779 3.52981 13.3898 3.45256C13.0018 3.3753 12.5995 3.41488 12.234 3.56629L12.089 3.63429Z" fill="black"/>
<path d="M3 8C3.24493 8.00003 3.48134 8.08996 3.66437 8.25272C3.84741 8.41547 3.96434 8.63975 3.993 8.883L4 9V15C3.99972 15.2549 3.90212 15.5 3.72715 15.6854C3.55218 15.8707 3.31305 15.9822 3.05861 15.9972C2.80416 16.0121 2.55362 15.9293 2.35817 15.7657C2.16271 15.6021 2.0371 15.3701 2.007 15.117L2 15V9C2 8.73478 2.10536 8.48043 2.29289 8.29289C2.48043 8.10536 2.73478 8 3 8Z" fill="black"/>
</g>
<defs>
<clipPath id="clip0_802_59109">
<rect width="24" height="24" fill="white"/>
</clipPath>
</defs>
</svg>
