<svg width="24" height="24" viewBox="0 0 24 24" fill="none" xmlns="http://www.w3.org/2000/svg">
<g clip-path="url(#clip0_802_59150)">
<path d="M6.707 3.29279C6.87918 3.46498 6.98261 3.69408 6.99789 3.93711C7.01317 4.18013 6.93925 4.42038 6.79 4.61279L6.707 4.70679L5.415 5.99979H10C10.2549 6.00007 10.5 6.09767 10.6854 6.27263C10.8707 6.4476 10.9822 6.68674 10.9972 6.94118C11.0121 7.19562 10.9293 7.44617 10.7657 7.64162C10.6021 7.83707 10.3701 7.96268 10.117 7.99279L10 7.99979H5.415L6.707 9.29279C6.87918 9.46498 6.98261 9.69408 6.99789 9.93711C7.01317 10.1801 6.93925 10.4204 6.79 10.6128L6.707 10.7068C6.53481 10.879 6.30571 10.9824 6.06268 10.9977C5.81966 11.013 5.5794 10.939 5.387 10.7898L5.293 10.7068L2.293 7.70679C2.25796 7.67188 2.22554 7.63445 2.196 7.59479L2.125 7.48479L2.071 7.37079L2.036 7.26579L2.011 7.14779L2.004 7.08979L2 6.99979L2.003 6.92479L2.02 6.79879L2.05 6.68779L2.094 6.57679L2.146 6.47879L2.21 6.38679L2.293 6.29279L5.293 3.29279C5.48053 3.10532 5.73484 3 6 3C6.26516 3 6.51947 3.10532 6.707 3.29279Z" fill="black"/>
<path d="M18.6119 3.20986L18.7059 3.29286L21.7059 6.29286C21.7412 6.32755 21.7736 6.365 21.8029 6.40486L21.8739 6.51486L21.9279 6.62886L21.9629 6.73386L21.9929 6.88186L21.9989 6.99986L21.9959 7.07486L21.9789 7.20086L21.9489 7.31186L21.9049 7.42286L21.8529 7.52086L21.7789 7.62486L21.7059 7.70686L18.7059 10.7069C18.5259 10.8862 18.2845 10.9903 18.0305 10.9981C17.7766 11.0058 17.5292 10.9166 17.3386 10.7486C17.148 10.5806 17.0286 10.3463 17.0045 10.0934C16.9804 9.84046 17.0535 9.58785 17.2089 9.38686L17.2919 9.29286L18.5839 7.99986H13.9989C13.744 7.99958 13.4989 7.90198 13.3135 7.72701C13.1282 7.55204 13.0167 7.31291 13.0017 7.05847C12.9868 6.80402 13.0696 6.55348 13.2332 6.35803C13.3967 6.16258 13.6288 6.03696 13.8819 6.00686L13.9989 5.99986H18.5839L17.2919 4.70686C17.1197 4.53467 17.0163 4.30557 17.001 4.06254C16.9857 3.81952 17.0596 3.57927 17.2089 3.38686L17.2919 3.29286C17.4641 3.12068 17.6932 3.01725 17.9362 3.00197C18.1792 2.98669 18.4195 3.06061 18.6119 3.20986Z" fill="black"/>
<path d="M18 13H6C5.20435 13 4.44129 13.3161 3.87868 13.8787C3.31607 14.4413 3 15.2044 3 16V18C3 18.7956 3.31607 19.5587 3.87868 20.1213C4.44129 20.6839 5.20435 21 6 21H18C18.7956 21 19.5587 20.6839 20.1213 20.1213C20.6839 19.5587 21 18.7956 21 18V16C21 15.2044 20.6839 14.4413 20.1213 13.8787C19.5587 13.3161 18.7956 13 18 13Z" fill="black"/>
</g>
<defs>
<clipPath id="clip0_802_59150">
<rect width="24" height="24" fill="white"/>
</clipPath>
</defs>
</svg>
