<svg width="24" height="24" viewBox="0 0 24 24" fill="none" xmlns="http://www.w3.org/2000/svg">
<g clip-path="url(#clip0_802_59052)">
<path d="M19.4964 13.9844L21.4624 17.3904C21.5433 17.5306 21.589 17.6884 21.5955 17.8502C21.6021 18.0119 21.5693 18.1729 21.5 18.3192C21.4306 18.4655 21.3269 18.5928 21.1975 18.6902C21.0682 18.7876 20.9172 18.8522 20.7574 18.8784L20.6444 18.8894L20.5324 18.8884L17.5994 18.6984L16.2964 21.3344C16.2257 21.4771 16.1219 21.6009 15.9937 21.6955C15.8655 21.79 15.7166 21.8526 15.5593 21.878C15.402 21.9035 15.241 21.891 15.0895 21.8417C14.938 21.7923 14.8005 21.7075 14.6884 21.5944L14.6064 21.5004L14.5344 21.3904L12.5664 17.9834C13.9518 17.8968 15.2983 17.4907 16.5006 16.7969C17.7028 16.1031 18.7282 15.1405 19.4964 13.9844Z" fill="black"/>
<path d="M11.4306 17.9805L9.46459 21.3885C9.38493 21.5265 9.27344 21.6436 9.13941 21.7299C9.00538 21.8162 8.85268 21.8692 8.69401 21.8845C8.53535 21.8999 8.37531 21.8771 8.22722 21.8182C8.07913 21.7592 7.94726 21.6657 7.8426 21.5455L7.76659 21.4455L7.7026 21.3315L6.39859 18.6965L3.4676 18.8865C3.30614 18.8969 3.14458 18.8679 2.99674 18.8022C2.84891 18.7365 2.7192 18.6359 2.61874 18.5091C2.51827 18.3823 2.45004 18.2331 2.41988 18.0741C2.38973 17.9152 2.39855 17.7513 2.4456 17.5965L2.48559 17.4895L2.5356 17.3895L4.50359 13.9805C5.27127 15.1366 6.29607 16.0994 7.49779 16.7935C8.69952 17.4876 10.0456 17.8932 11.4306 17.9805Z" fill="black"/>
<path d="M12 2L12.24 2.004C14.0539 2.06623 15.7727 2.83056 17.0339 4.13577C18.2951 5.44098 19 7.18502 19 9L18.997 9.193L18.99 9.385L18.972 9.63L18.946 9.872L18.922 10.05C18.8562 10.4816 18.7501 10.9062 18.605 11.318L18.489 11.626L18.336 11.974C17.7699 13.18 16.8714 14.1994 15.7461 14.9125C14.6208 15.6257 13.3153 16.0029 11.9831 16C10.6508 15.9971 9.34708 15.614 8.22492 14.896C7.10276 14.1779 6.2088 13.1545 5.648 11.946L5.518 11.649L5.466 11.516L5.386 11.299L5.291 11.005C5.25707 10.8911 5.22606 10.7764 5.198 10.661L5.138 10.39L5.089 10.119L5.069 9.98L5.03 9.657L5.006 9.292L5 9C4.99997 7.18502 5.70489 5.44098 6.96607 4.13577C8.22726 2.83056 9.94609 2.06623 11.76 2.004L12 2Z" fill="black"/>
</g>
<defs>
<clipPath id="clip0_802_59052">
<rect width="24" height="24" fill="white"/>
</clipPath>
</defs>
</svg>
