<svg width="24" height="24" viewBox="0 0 24 24" fill="none" xmlns="http://www.w3.org/2000/svg">
<g clip-path="url(#clip0_802_84177)">
<path d="M17 10L15 4" stroke="black" stroke-width="2" stroke-linecap="round" stroke-linejoin="round"/>
<path d="M7 10L9 4" stroke="black" stroke-width="2" stroke-linecap="round" stroke-linejoin="round"/>
<path d="M12.4992 20H7.24324C6.52664 20 5.83372 19.7434 5.28987 19.2768C4.74602 18.8102 4.38716 18.1643 4.27824 17.456L3.02324 10.304C2.97941 10.019 2.99773 9.72786 3.07694 9.45059C3.15616 9.17331 3.2944 8.91645 3.48218 8.6976C3.66997 8.47876 3.90286 8.30311 4.16488 8.1827C4.42691 8.06229 4.71187 7.99997 5.00024 8H18.9992C19.2876 7.99997 19.5726 8.06229 19.8346 8.1827C20.0966 8.30311 20.3295 8.47876 20.5173 8.6976C20.7051 8.91645 20.8433 9.17331 20.9225 9.45059C21.0017 9.72786 21.0201 10.019 20.9762 10.304L20.5822 12.552" stroke="black" stroke-width="2" stroke-linecap="round" stroke-linejoin="round"/>
<path d="M13.8557 13.254C13.7202 12.9172 13.4957 12.6235 13.2061 12.4046C12.9165 12.1856 12.5727 12.0497 12.2117 12.0112C11.8507 11.9728 11.4861 12.0334 11.1568 12.1864C10.8276 12.3395 10.5463 12.5793 10.343 12.88C10.1397 13.1808 10.0221 13.5313 10.0028 13.8938C9.98355 14.2564 10.0633 14.6173 10.2336 14.938C10.4038 15.2586 10.6582 15.5269 10.9693 15.714C11.2804 15.9011 11.6366 15.9999 11.9997 16" stroke="black" stroke-width="2" stroke-linecap="round" stroke-linejoin="round"/>
<path d="M16 21L21 16" stroke="black" stroke-width="2" stroke-linecap="round" stroke-linejoin="round"/>
<path d="M21 21V21.01" stroke="black" stroke-width="2" stroke-linecap="round" stroke-linejoin="round"/>
<path d="M16 16V16.01" stroke="black" stroke-width="2" stroke-linecap="round" stroke-linejoin="round"/>
</g>
<defs>
<clipPath id="clip0_802_84177">
<rect width="24" height="24" fill="white"/>
</clipPath>
</defs>
</svg>
