<svg width="24" height="24" viewBox="0 0 24 24" fill="none" xmlns="http://www.w3.org/2000/svg">
<g clip-path="url(#clip0_802_83729)">
<path d="M10.5866 10.5859C10.3962 10.771 10.2446 10.9921 10.1405 11.2364C10.0364 11.4807 9.98203 11.7432 9.9805 12.0088C9.97898 12.2743 10.0303 12.5375 10.1316 12.7829C10.2329 13.0284 10.382 13.2512 10.5703 13.4385C10.7585 13.6257 10.9822 13.7735 11.2283 13.8734C11.4743 13.9733 11.7378 14.0232 12.0033 14.0201C12.2688 14.0171 12.531 13.9612 12.7747 13.8558C13.0184 13.7503 13.2387 13.5974 13.4226 13.4059" stroke="black" stroke-width="2" stroke-linecap="round" stroke-linejoin="round"/>
<path d="M11.9401 14C11.9401 14.173 11.9881 14.351 11.9961 14.533V14.75C11.9961 15.9722 11.525 17.1474 10.6807 18.0311C9.83644 18.9149 8.68402 19.4392 7.46309 19.495H7.24609" stroke="black" stroke-width="2" stroke-linecap="round" stroke-linejoin="round"/>
<path d="M2.49609 14.7458C2.49615 13.8489 2.75011 12.9704 3.22861 12.2119C3.70711 11.4533 4.39058 10.8457 5.19997 10.4594C6.00936 10.073 6.91159 9.92375 7.80229 10.0288C8.69299 10.1338 9.53575 10.4888 10.2331 11.0528" stroke="black" stroke-width="2" stroke-linecap="round" stroke-linejoin="round"/>
<path d="M16.7462 19.4952C16.0587 19.4952 15.3794 19.346 14.7552 19.0578C14.131 18.7697 13.5769 18.3495 13.1309 17.8263C12.685 17.303 12.358 16.6892 12.1724 16.0273C11.9868 15.3653 11.9472 14.671 12.0562 13.9922H11.9962" stroke="black" stroke-width="2" stroke-linecap="round" stroke-linejoin="round"/>
<path d="M14.5312 10.5386C15.2389 10.1663 16.0292 9.97856 16.8287 9.99296C17.6282 10.0074 18.4112 10.2234 19.105 10.621C19.7988 11.0186 20.381 11.5849 20.7976 12.2675C21.2142 12.9501 21.4518 13.7268 21.4882 14.5256V14.7426" stroke="black" stroke-width="2" stroke-linecap="round" stroke-linejoin="round"/>
<path d="M10.2966 10.9288C9.52509 10.6342 8.84373 10.1435 8.31974 9.50518C7.79575 8.86685 7.44724 8.10294 7.30859 7.28881M7.96859 3.96481C8.11573 3.73068 8.28303 3.50984 8.46859 3.30481L8.63259 3.13281" stroke="black" stroke-width="2" stroke-linecap="round" stroke-linejoin="round"/>
<path d="M15.3477 3.13281C15.8529 3.63771 16.2377 4.25004 16.4735 4.92423C16.7094 5.59842 16.7901 6.31711 16.7098 7.02682C16.6294 7.73653 16.3901 8.41898 16.0095 9.02339C15.629 9.62781 15.117 10.1386 14.5117 10.5178" stroke="black" stroke-width="2" stroke-linecap="round" stroke-linejoin="round"/>
<path d="M3 3L21 21" stroke="black" stroke-width="2" stroke-linecap="round" stroke-linejoin="round"/>
</g>
<defs>
<clipPath id="clip0_802_83729">
<rect width="24" height="24" fill="white"/>
</clipPath>
</defs>
</svg>
