<svg width="24" height="24" viewBox="0 0 24 24" fill="none" xmlns="http://www.w3.org/2000/svg">
<g clip-path="url(#clip0_802_58816)">
<path d="M18.9961 3.00391H13.9961C13.7309 3.00391 13.4765 3.10926 13.289 3.2968C13.1015 3.48434 12.9961 3.73869 12.9961 4.00391V20.0039C12.9961 20.2691 13.1015 20.5235 13.289 20.711C13.4765 20.8985 13.7309 21.0039 13.9961 21.0039H18.9961C19.5265 21.0039 20.0352 20.7932 20.4103 20.4181C20.7854 20.043 20.9961 19.5343 20.9961 19.0039V5.00391C20.9961 4.47347 20.7854 3.96477 20.4103 3.58969C20.0352 3.21462 19.5265 3.00391 18.9961 3.00391Z" fill="black"/>
<path d="M9.00889 19.0039C9.26377 19.0042 9.50892 19.1018 9.69426 19.2768C9.8796 19.4517 9.99113 19.6909 10.0061 19.9453C10.021 20.1997 9.93822 20.4503 9.77463 20.6457C9.61104 20.8412 9.37899 20.9668 9.12589 20.9969L8.99889 21.0039C8.74401 21.0036 8.49886 20.906 8.31352 20.7311C8.12819 20.5561 8.01666 20.317 8.00172 20.0625C7.98678 19.8081 8.06957 19.5575 8.23316 19.3621C8.39675 19.1666 8.6288 19.041 8.88189 19.0109L9.00889 19.0039Z" fill="black"/>
<path d="M4.00989 19.0039C4.26477 19.0042 4.50992 19.1018 4.69526 19.2768C4.8806 19.4517 4.99213 19.6909 5.00706 19.9453C5.022 20.1997 4.93922 20.4503 4.77563 20.6457C4.61204 20.8412 4.37999 20.9668 4.12689 20.9969L3.99889 21.0039C3.74401 21.0036 3.49886 20.906 3.31352 20.7311C3.12819 20.5561 3.01666 20.317 3.00172 20.0625C2.98678 19.8081 3.06957 19.5575 3.23316 19.3621C3.39675 19.1666 3.6288 19.041 3.88189 19.0109L4.00989 19.0039Z" fill="black"/>
<path d="M4.00989 14.0039C4.26477 14.0042 4.50992 14.1018 4.69526 14.2768C4.8806 14.4517 4.99213 14.6909 5.00706 14.9453C5.022 15.1997 4.93922 15.4503 4.77563 15.6457C4.61204 15.8412 4.37999 15.9668 4.12689 15.9969L3.99889 16.0039C3.74401 16.0036 3.49886 15.906 3.31352 15.7311C3.12819 15.5561 3.01666 15.317 3.00172 15.0625C2.98678 14.8081 3.06957 14.5575 3.23316 14.3621C3.39675 14.1666 3.6288 14.041 3.88189 14.0109L4.00989 14.0039Z" fill="black"/>
<path d="M4.00989 8.00391C4.26477 8.00419 4.50992 8.10179 4.69526 8.27675C4.8806 8.45172 4.99213 8.69086 5.00706 8.9453C5.022 9.19974 4.93922 9.45029 4.77563 9.64574C4.61204 9.84119 4.37999 9.9668 4.12689 9.99691L3.99889 10.0039C3.74401 10.0036 3.49886 9.90603 3.31352 9.73106C3.12819 9.55609 3.01666 9.31695 3.00172 9.06251C2.98678 8.80807 3.06957 8.55753 3.23316 8.36207C3.39675 8.16662 3.6288 8.04101 3.88189 8.01091L4.00989 8.00391Z" fill="black"/>
<path d="M4.00989 3.00391C4.26477 3.00419 4.50992 3.10179 4.69526 3.27675C4.8806 3.45172 4.99213 3.69086 5.00706 3.9453C5.022 4.19974 4.93922 4.45029 4.77563 4.64574C4.61204 4.84119 4.37999 4.9668 4.12689 4.99691L3.99889 5.00391C3.74401 5.00362 3.49886 4.90603 3.31352 4.73106C3.12819 4.55609 3.01666 4.31695 3.00172 4.06251C2.98678 3.80807 3.06957 3.55753 3.23316 3.36207C3.39675 3.16662 3.6288 3.04101 3.88189 3.01091L4.00989 3.00391Z" fill="black"/>
<path d="M9.00889 3.00391C9.26377 3.00419 9.50892 3.10179 9.69426 3.27675C9.8796 3.45172 9.99113 3.69086 10.0061 3.9453C10.021 4.19974 9.93822 4.45029 9.77463 4.64574C9.61104 4.84119 9.37899 4.9668 9.12589 4.99691L8.99889 5.00391C8.74401 5.00362 8.49886 4.90603 8.31352 4.73106C8.12819 4.55609 8.01666 4.31695 8.00172 4.06251C7.98678 3.80807 8.06957 3.55753 8.23316 3.36207C8.39675 3.16662 8.6288 3.04101 8.88189 3.01091L9.00889 3.00391Z" fill="black"/>
</g>
<defs>
<clipPath id="clip0_802_58816">
<rect width="24" height="24" fill="white"/>
</clipPath>
</defs>
</svg>
