<svg width="24" height="24" viewBox="0 0 24 24" fill="none" xmlns="http://www.w3.org/2000/svg">
<g clip-path="url(#clip0_802_58825)">
<path d="M10.0039 3.00391H5.00391C4.47347 3.00391 3.96477 3.21462 3.58969 3.58969C3.21462 3.96477 3.00391 4.47347 3.00391 5.00391V19.0039C3.00391 19.5343 3.21462 20.043 3.58969 20.4181C3.96477 20.7932 4.47347 21.0039 5.00391 21.0039H10.0039C10.2691 21.0039 10.5235 20.8985 10.711 20.711C10.8985 20.5235 11.0039 20.2691 11.0039 20.0039V4.00391C11.0039 3.73869 10.8985 3.48434 10.711 3.2968C10.5235 3.10926 10.2691 3.00391 10.0039 3.00391Z" fill="black"/>
<path d="M15.0011 19.0039C15.256 19.0042 15.5011 19.1018 15.6864 19.2768C15.8718 19.4517 15.9833 19.6909 15.9983 19.9453C16.0132 20.1997 15.9304 20.4503 15.7668 20.6457C15.6032 20.8412 15.3712 20.9668 15.1181 20.9969L14.9911 21.0039C14.7362 21.0036 14.491 20.906 14.3057 20.7311C14.1204 20.5561 14.0088 20.317 13.9939 20.0625C13.979 19.8081 14.0618 19.5575 14.2253 19.3621C14.3889 19.1666 14.621 19.041 14.8741 19.0109L15.0011 19.0039Z" fill="black"/>
<path d="M20.0021 19.0039C20.257 19.0042 20.5021 19.1018 20.6874 19.2768C20.8728 19.4517 20.9843 19.6909 20.9993 19.9453C21.0142 20.1997 20.9314 20.4503 20.7678 20.6457C20.6042 20.8412 20.3722 20.9668 20.1191 20.9969L19.9911 21.0039C19.7362 21.0036 19.491 20.906 19.3057 20.7311C19.1204 20.5561 19.0088 20.317 18.9939 20.0625C18.979 19.8081 19.0618 19.5575 19.2253 19.3621C19.3889 19.1666 19.621 19.041 19.8741 19.0109L20.0021 19.0039Z" fill="black"/>
<path d="M20.0021 14.0039C20.257 14.0042 20.5021 14.1018 20.6874 14.2768C20.8728 14.4517 20.9843 14.6909 20.9993 14.9453C21.0142 15.1997 20.9314 15.4503 20.7678 15.6457C20.6042 15.8412 20.3722 15.9668 20.1191 15.9969L19.9911 16.0039C19.7362 16.0036 19.491 15.906 19.3057 15.7311C19.1204 15.5561 19.0088 15.317 18.9939 15.0625C18.979 14.8081 19.0618 14.5575 19.2253 14.3621C19.3889 14.1666 19.621 14.041 19.8741 14.0109L20.0021 14.0039Z" fill="black"/>
<path d="M20.0021 8.00391C20.257 8.00419 20.5021 8.10179 20.6874 8.27675C20.8728 8.45172 20.9843 8.69086 20.9993 8.9453C21.0142 9.19974 20.9314 9.45029 20.7678 9.64574C20.6042 9.84119 20.3722 9.9668 20.1191 9.99691L19.9911 10.0039C19.7362 10.0036 19.491 9.90603 19.3057 9.73106C19.1204 9.55609 19.0088 9.31695 18.9939 9.06251C18.979 8.80807 19.0618 8.55753 19.2253 8.36207C19.3889 8.16662 19.621 8.04101 19.8741 8.01091L20.0021 8.00391Z" fill="black"/>
<path d="M20.0021 3.00391C20.257 3.00419 20.5021 3.10179 20.6874 3.27675C20.8728 3.45172 20.9843 3.69086 20.9993 3.9453C21.0142 4.19974 20.9314 4.45029 20.7678 4.64574C20.6042 4.84119 20.3722 4.9668 20.1191 4.99691L19.9911 5.00391C19.7362 5.00362 19.491 4.90603 19.3057 4.73106C19.1204 4.55609 19.0088 4.31695 18.9939 4.06251C18.979 3.80807 19.0618 3.55753 19.2253 3.36207C19.3889 3.16662 19.621 3.04101 19.8741 3.01091L20.0021 3.00391Z" fill="black"/>
<path d="M15.0011 3.00391C15.256 3.00419 15.5011 3.10179 15.6864 3.27675C15.8718 3.45172 15.9833 3.69086 15.9983 3.9453C16.0132 4.19974 15.9304 4.45029 15.7668 4.64574C15.6032 4.84119 15.3712 4.9668 15.1181 4.99691L14.9911 5.00391C14.7362 5.00362 14.491 4.90603 14.3057 4.73106C14.1204 4.55609 14.0088 4.31695 13.9939 4.06251C13.979 3.80807 14.0618 3.55753 14.2253 3.36207C14.3889 3.16662 14.621 3.04101 14.8741 3.01091L15.0011 3.00391Z" fill="black"/>
</g>
<defs>
<clipPath id="clip0_802_58825">
<rect width="24" height="24" fill="white"/>
</clipPath>
</defs>
</svg>
