<svg width="24" height="24" viewBox="0 0 24 24" fill="none" xmlns="http://www.w3.org/2000/svg">
<g clip-path="url(#clip0_802_82546)">
<path d="M18 12H22" stroke="black" stroke-width="2" stroke-linecap="round" stroke-linejoin="round"/>
<path d="M20 10V14" stroke="black" stroke-width="2" stroke-linecap="round" stroke-linejoin="round"/>
<path d="M11 12H15" stroke="black" stroke-width="2" stroke-linecap="round" stroke-linejoin="round"/>
<path d="M13 10V14" stroke="black" stroke-width="2" stroke-linecap="round" stroke-linejoin="round"/>
<path d="M9 9C9 8.20435 8.68393 7.44129 8.12132 6.87868C7.55871 6.31607 6.79565 6 6 6H5.5C4.57174 6 3.6815 6.36875 3.02513 7.02513C2.36875 7.6815 2 8.57174 2 9.5V14.5C2 15.4283 2.36875 16.3185 3.02513 16.9749C3.6815 17.6313 4.57174 18 5.5 18H6C6.79565 18 7.55871 17.6839 8.12132 17.1213C8.68393 16.5587 9 15.7956 9 15" stroke="black" stroke-width="2" stroke-linecap="round" stroke-linejoin="round"/>
</g>
<defs>
<clipPath id="clip0_802_82546">
<rect width="24" height="24" fill="white"/>
</clipPath>
</defs>
</svg>
