<svg width="24" height="24" viewBox="0 0 24 24" fill="none" xmlns="http://www.w3.org/2000/svg">
<g clip-path="url(#clip0_802_58755)">
<path d="M17 3.33989C18.5202 4.21758 19.7826 5.47997 20.6603 7.00017C21.538 8.52038 22 10.2448 22 12.0002C22 13.7556 21.5379 15.48 20.6602 17.0002C19.7825 18.5204 18.5201 19.7828 16.9999 20.6605C15.4797 21.5381 13.7552 22.0002 11.9998 22.0001C10.2445 22.0001 8.52002 21.538 6.99984 20.6603C5.47965 19.7826 4.21729 18.5202 3.33963 17C2.46198 15.4797 1.99996 13.7553 2 11.9999L2.005 11.6759C2.061 9.94888 2.56355 8.26585 3.46364 6.79089C4.36373 5.31592 5.63065 4.09934 7.14089 3.25977C8.65113 2.42021 10.3531 1.98629 12.081 2.00033C13.8089 2.01437 15.5036 2.47589 17 3.33989ZM14.832 14.9449C13.547 13.0179 10.478 12.8129 8.445 14.1679C8.22434 14.3151 8.07119 14.5439 8.01924 14.804C7.9673 15.0641 8.0208 15.3342 8.168 15.5549C8.3152 15.7756 8.54402 15.9287 8.80413 15.9806C9.06424 16.0326 9.33434 15.9791 9.555 15.8319C10.75 15.0349 12.569 15.1569 13.168 16.0549C13.2409 16.1642 13.3346 16.258 13.4437 16.331C13.5529 16.4041 13.6753 16.4549 13.8041 16.4806C13.9329 16.5064 14.0655 16.5065 14.1944 16.4809C14.3232 16.4554 14.4457 16.4048 14.555 16.3319C14.6643 16.259 14.7581 16.1653 14.8311 16.0562C14.9042 15.947 14.955 15.8246 14.9808 15.6958C15.0065 15.567 15.0066 15.4344 14.9811 15.3055C14.9555 15.1767 14.9049 15.0542 14.832 14.9449ZM16.1 11.6999C13.631 9.84789 10.205 9.51289 7.492 11.1109C7.26338 11.2456 7.09765 11.4657 7.03126 11.7226C6.96488 11.9795 7.00327 12.2523 7.138 12.4809C7.27273 12.7095 7.49276 12.8752 7.74968 12.9416C8.00661 13.008 8.27938 12.9696 8.508 12.8349C10.494 11.6639 13.052 11.9149 14.9 13.2999C15.1122 13.459 15.3789 13.5273 15.6414 13.4898C15.904 13.4523 16.1409 13.3121 16.3 13.0999C16.4591 12.8877 16.5275 12.621 16.49 12.3585C16.4524 12.0959 16.3122 11.859 16.1 11.6999ZM17.53 8.65189C13.853 6.35389 9.764 6.49989 6.553 8.10589C6.32427 8.22924 6.15254 8.43677 6.07418 8.68454C5.99583 8.93231 6.017 9.20086 6.13321 9.43329C6.24943 9.66572 6.45156 9.84378 6.69679 9.92976C6.94202 10.0157 7.21109 10.0029 7.447 9.89389C10.082 8.57689 13.444 8.45689 16.47 10.3479C16.6949 10.4885 16.9664 10.5339 17.2249 10.4743C17.4833 10.4146 17.7074 10.2548 17.848 10.0299C17.9886 9.80499 18.034 9.53346 17.9744 9.27503C17.9148 9.01661 17.7549 8.79246 17.53 8.65189Z" fill="black"/>
</g>
<defs>
<clipPath id="clip0_802_58755">
<rect width="24" height="24" fill="white"/>
</clipPath>
</defs>
</svg>
