<svg width="24" height="24" viewBox="0 0 24 24" fill="none" xmlns="http://www.w3.org/2000/svg">
<g clip-path="url(#clip0_802_82417)">
<path d="M3 6C3 5.20435 3.31607 4.44129 3.87868 3.87868C4.44129 3.31607 5.20435 3 6 3H18C18.7956 3 19.5587 3.31607 20.1213 3.87868C20.6839 4.44129 21 5.20435 21 6V18C21 18.7956 20.6839 19.5587 20.1213 20.1213C19.5587 20.6839 18.7956 21 18 21H6C5.20435 21 4.44129 20.6839 3.87868 20.1213C3.31607 19.5587 3 18.7956 3 18V6Z" stroke="black" stroke-width="2" stroke-linecap="round" stroke-linejoin="round"/>
<path d="M12.0015 7V15.5L9.98645 15.701C9.60865 15.7395 9.22697 15.6983 8.86607 15.5801C8.50517 15.4619 8.17308 15.2694 7.89126 15.0148C7.60943 14.7602 7.38415 14.4494 7.22996 14.1024C7.07576 13.7553 6.99609 13.3798 6.99609 13C6.99609 12.6202 7.07576 12.2447 7.22996 11.8976C7.38415 11.5506 7.60943 11.2398 7.89126 10.9852C8.17308 10.7306 8.50517 10.5381 8.86607 10.4199C9.22697 10.3017 9.60865 10.2605 9.98645 10.299L12.0015 10.5" stroke="black" stroke-width="2" stroke-linecap="round" stroke-linejoin="round"/>
<path d="M16 7V7.01" stroke="black" stroke-width="2" stroke-linecap="round" stroke-linejoin="round"/>
<path d="M16 10V15.586C16 16.491 15.64 17.36 15 18" stroke="black" stroke-width="2" stroke-linecap="round" stroke-linejoin="round"/>
</g>
<defs>
<clipPath id="clip0_802_82417">
<rect width="24" height="24" fill="white"/>
</clipPath>
</defs>
</svg>
