<svg width="24" height="24" viewBox="0 0 24 24" fill="none" xmlns="http://www.w3.org/2000/svg">
<g clip-path="url(#clip0_802_81983)">
<path d="M17 11.9996C17 12.53 17.2107 13.0387 17.5858 13.4138C17.9609 13.7889 18.4696 13.9996 19 13.9996C19.5304 13.9996 20.0391 13.7889 20.4142 13.4138C20.7893 13.0387 21 12.53 21 11.9996C20.9999 9.93814 20.2921 7.93922 18.995 6.33702C17.698 4.73483 15.8902 3.62647 13.8739 3.19726C11.8577 2.76804 9.75516 3.044 7.91797 3.97898C6.08077 4.91396 4.62022 6.4513 3.78052 8.33395C2.94081 10.2166 2.77286 12.3305 3.30472 14.3221C3.83659 16.3137 5.03605 18.0624 6.70254 19.2758C8.36904 20.4892 10.4016 21.0937 12.4603 20.9882C14.519 20.8828 16.4792 20.0738 18.013 18.6966" stroke="black" stroke-width="2" stroke-linecap="round" stroke-linejoin="round"/>
<path d="M7 12C7 13.3261 7.52678 14.5979 8.46447 15.5355C9.40215 16.4732 10.6739 17 12 17C13.3261 17 14.5979 16.4732 15.5355 15.5355C16.4732 14.5979 17 13.3261 17 12C17 10.6739 16.4732 9.40215 15.5355 8.46447C14.5979 7.52678 13.3261 7 12 7C10.6739 7 9.40215 7.52678 8.46447 8.46447C7.52678 9.40215 7 10.6739 7 12Z" stroke="black" stroke-width="2" stroke-linecap="round" stroke-linejoin="round"/>
<path d="M11 12C11 12.2652 11.1054 12.5196 11.2929 12.7071C11.4804 12.8946 11.7348 13 12 13C12.2652 13 12.5196 12.8946 12.7071 12.7071C12.8946 12.5196 13 12.2652 13 12C13 11.7348 12.8946 11.4804 12.7071 11.2929C12.5196 11.1054 12.2652 11 12 11C11.7348 11 11.4804 11.1054 11.2929 11.2929C11.1054 11.4804 11 11.7348 11 12Z" stroke="black" stroke-width="2" stroke-linecap="round" stroke-linejoin="round"/>
<path d="M11 12C11 12.2652 11.1054 12.5196 11.2929 12.7071C11.4804 12.8946 11.7348 13 12 13C12.2652 13 12.5196 12.8946 12.7071 12.7071C12.8946 12.5196 13 12.2652 13 12C13 11.7348 12.8946 11.4804 12.7071 11.2929C12.5196 11.1054 12.2652 11 12 11C11.7348 11 11.4804 11.1054 11.2929 11.2929C11.1054 11.4804 11 11.7348 11 12Z" stroke="black" stroke-width="2" stroke-linecap="round" stroke-linejoin="round"/>
</g>
<defs>
<clipPath id="clip0_802_81983">
<rect width="24" height="24" fill="white"/>
</clipPath>
</defs>
</svg>
