<svg width="24" height="24" viewBox="0 0 24 24" fill="none" xmlns="http://www.w3.org/2000/svg">
<g clip-path="url(#clip0_802_81802)">
<path d="M8.5 6C6.77609 6 5.12279 6.68482 3.90381 7.90381C2.68482 9.12279 2 10.7761 2 12.5C2 14.2239 2.68482 15.8772 3.90381 17.0962C5.12279 18.3152 6.77609 19 8.5 19C10.2239 19 11.8772 18.3152 13.0962 17.0962C14.3152 15.8772 15 14.2239 15 12.5C15 10.7761 14.3152 9.12279 13.0962 7.90381C11.8772 6.68482 10.2239 6 8.5 6Z" stroke="black" stroke-width="2" stroke-linecap="round" stroke-linejoin="round"/>
<path d="M8.5 15C7.83696 15 7.20107 14.7366 6.73223 14.2678C6.26339 13.7989 6 13.163 6 12.5C6 11.837 6.26339 11.2011 6.73223 10.7322C7.20107 10.2634 7.83696 10 8.5 10C9.16304 10 9.79893 10.2634 10.2678 10.7322C10.7366 11.2011 11 11.837 11 12.5C11 13.163 10.7366 13.7989 10.2678 14.2678C9.79893 14.7366 9.16304 15 8.5 15Z" stroke="black" stroke-width="2" stroke-linecap="round" stroke-linejoin="round"/>
<path d="M14 15.9991C16.5 15.9991 20.42 14.5321 21 11.9991H15C18 10.9991 21.44 8.4661 22 5.9991H18C14.97 5.9991 14.236 5.8031 13 7.4991" stroke="black" stroke-width="2" stroke-linecap="round" stroke-linejoin="round"/>
</g>
<defs>
<clipPath id="clip0_802_81802">
<rect width="24" height="24" fill="white"/>
</clipPath>
</defs>
</svg>
