<svg width="24" height="24" viewBox="0 0 24 24" fill="none" xmlns="http://www.w3.org/2000/svg">
<g clip-path="url(#clip0_802_58767)">
<path d="M5.31529 2.09939C6.10629 1.98639 7.21529 2.24439 8.64829 3.06539L8.92029 3.22639L9.08029 3.32639L9.47729 3.24339C10.9911 2.95088 12.5442 2.92381 14.0673 3.16339L14.5233 3.24339L14.9193 3.32639L15.0803 3.22639C16.4653 2.38639 17.5673 2.05639 18.4023 2.07839L18.5663 2.08639L18.7133 2.10339L18.7893 2.11739L18.8393 2.12839L18.9833 2.17539C19.2191 2.27285 19.4087 2.45673 19.5133 2.68939C19.9225 3.60109 20.0603 4.6114 19.9103 5.59939L19.8633 5.86639L19.8173 6.06239L19.9403 6.22539C20.5143 7.02039 20.8703 7.95339 20.9703 8.93239L20.9933 9.22739L21.0003 9.49939C21.0003 13.3544 19.3413 15.3824 16.3563 16.1794L16.1113 16.2404L15.9793 16.2694L15.9933 16.4304L16.0013 16.5874L16.0053 16.9524L16.0033 17.1654L16.0003 20.9994C16.0003 21.2443 15.9103 21.4807 15.7476 21.6638C15.5848 21.8468 15.3605 21.9637 15.1173 21.9924L15.0003 21.9994H9.00029C8.75536 21.9994 8.51896 21.9094 8.33592 21.7467C8.15289 21.5839 8.03595 21.3596 8.00729 21.1164L8.00029 20.9994V20.2654C6.18229 20.5254 4.97029 19.8414 3.89029 18.3874L3.35529 17.6214C3.07529 17.2254 2.90029 17.0424 2.76629 16.9774L2.71829 16.9584C2.47071 16.8779 2.26425 16.7041 2.14281 16.4738C2.02137 16.2435 1.99452 15.975 2.06796 15.7252C2.14141 15.4755 2.30936 15.2642 2.53611 15.1363C2.76287 15.0084 3.03056 14.974 3.28229 15.0404C3.92429 15.2284 4.35629 15.6084 4.85229 16.2794L5.39029 17.0484C6.15029 18.1274 6.75029 18.5074 7.99929 18.2394L8.00029 17.5614L7.98229 17.3934C7.95276 17.1198 7.94574 16.8442 7.96129 16.5694L7.97829 16.3844L7.99729 16.2644L7.88929 16.2404C4.91329 15.5304 3.18629 13.6674 3.01429 10.1014L3.00429 9.79139L3.00029 9.49939C3.00145 8.41597 3.31686 7.35614 3.90829 6.44839L4.06029 6.22639L4.18229 6.06339L4.13729 5.86739C3.95701 4.98895 4.00696 4.07882 4.28229 3.22539L4.38229 2.94339L4.48829 2.69039C4.59269 2.45791 4.78191 2.27406 5.01729 2.17639L5.16129 2.12939L5.31529 2.09939Z" fill="black"/>
</g>
<defs>
<clipPath id="clip0_802_58767">
<rect width="24" height="24" fill="white"/>
</clipPath>
</defs>
</svg>
