<svg width="24" height="24" viewBox="0 0 24 24" fill="none" xmlns="http://www.w3.org/2000/svg">
<g clip-path="url(#clip0_802_81109)">
<path d="M17.845 19.3064C16.577 20.1204 15.435 20.5604 14 20.9984C13.824 21.2084 13.355 21.5424 13.088 21.5864C11.597 21.8034 10.0956 21.9409 8.59 21.9984C7.778 22.0044 7.28 21.7844 7.143 21.4444C7.028 21.1654 7.479 19.3904 7.441 19.4804C7.284 19.8724 6.866 20.7674 6.444 21.2004C5.865 21.8004 4.77 21.6004 4.122 21.2514C3.412 20.8654 4.052 19.9714 3.776 19.9844C3.5 19.9984 3 18.4984 3 17.7484C3 16.9204 3.622 16.0744 4.235 15.5374C4.13847 14.4681 4.29609 13.3911 4.695 12.3944C5.21698 11.3624 5.97313 10.4669 6.903 9.77936C6.903 9.77936 5.55 8.24536 6.054 6.86736C6.382 5.96536 6.514 5.97236 6.621 5.93236C7.001 5.81236 7.348 5.60236 7.634 5.32036C8.414 4.44036 9.594 3.88236 10.75 3.99836C10.75 3.99836 11.531 1.56836 12.283 2.06236C12.698 2.71536 12.954 3.28036 13.25 3.99836C13.25 3.99836 14.4 3.29836 14.5 3.49836C15.014 4.89636 14.987 6.70236 14.711 8.16836C14.387 9.57636 13.871 10.8594 13 11.9984C12.906 12.1584 13.98 12.7034 14.722 14.8104C15.408 16.7384 15 17.2484 15 17.4984C15 17.7484 15.716 17.6424 17.296 16.6434C18.165 15.992 19.1983 15.5955 20.28 15.4984C21.015 15.4324 21.268 15.4634 21.5 16.4984C21.732 17.5334 21.154 17.9044 20.756 18.0044C20.756 18.0044 18.666 18.6794 17.845 19.3064Z" stroke="black" stroke-width="2" stroke-linecap="round" stroke-linejoin="round"/>
</g>
<defs>
<clipPath id="clip0_802_81109">
<rect width="24" height="24" fill="white"/>
</clipPath>
</defs>
</svg>
