<svg width="24" height="24" viewBox="0 0 24 24" fill="none" xmlns="http://www.w3.org/2000/svg">
<g clip-path="url(#clip0_802_82302)">
<path d="M4.02948 7.81844C3.21818 9.36552 2.87465 11.1153 3.04081 12.8543C3.20696 14.5933 3.87562 16.2463 4.96521 17.6118C6.0548 18.9772 7.51822 19.9961 9.17697 20.544C10.8357 21.092 12.6181 21.1454 14.3066 20.6976C15.9952 20.2499 17.517 19.3205 18.6863 18.0226C19.8556 16.7248 20.622 15.1147 20.8919 13.3888C21.1618 11.6629 20.9236 9.89571 20.2064 8.30285C19.4891 6.70999 18.3237 5.36031 16.8525 4.41844C15.2165 3.39844 13.7885 3.39844 12.0015 3.39844H10.3545" stroke="black" stroke-width="2" stroke-linecap="round" stroke-linejoin="round"/>
<path d="M4.91355 9.48405C3.15755 7.91505 4.10855 4.10405 5.02255 3.31405C5.10855 4.21005 5.60755 4.52205 6.13355 4.99905C7.01355 4.72405 7.44655 4.71705 8.00055 4.99905C8.82055 4.08905 9.69455 2.64505 10.6285 2.90605C9.54655 4.64705 10.5585 6.63905 11.9995 7.07905C11.8295 8.05405 10.5155 8.99205 9.23955 9.76505C7.94355 10.7031 8.51755 11.6151 9.23955 11.9991C10.1885 12.5051 12.8505 10.9991 13.7845 12.3531C12.0865 12.4551 12.2485 15.4601 9.80155 15.0801C12.3245 16.0371 14.1466 15.5421 15.2596 14.7401C17.2246 13.2201 18.1385 11.1981 18.1385 9.18305C18.1245 7.78505 18.3325 6.48805 16.8785 4.43305" stroke="black" stroke-width="2" stroke-linecap="round" stroke-linejoin="round"/>
</g>
<defs>
<clipPath id="clip0_802_82302">
<rect width="24" height="24" fill="white"/>
</clipPath>
</defs>
</svg>
