<svg width="24" height="24" viewBox="0 0 24 24" fill="none" xmlns="http://www.w3.org/2000/svg">
<g clip-path="url(#clip0_802_80609)">
<path d="M12.0009 18.176C11.9718 18.6705 11.8208 19.15 11.5612 19.5719C11.3017 19.9937 10.9417 20.3448 10.5134 20.5936C10.0852 20.8425 9.60196 20.9814 9.10693 20.9981C8.6119 21.0147 8.12044 20.9085 7.67644 20.689C7.23244 20.4695 6.8497 20.1434 6.56239 19.7399C6.27508 19.3365 6.09214 18.8681 6.0299 18.3768C5.96766 17.8854 6.02806 17.3862 6.2057 16.9239C6.38334 16.4615 6.6727 16.0503 7.04794 15.727L7.02294 15.75C6.02064 15.3983 5.17499 14.7034 4.63553 13.7884C4.09606 12.8733 3.89753 11.797 4.07503 10.7497C4.25253 9.7024 4.79463 8.7516 5.60549 8.0654C6.41634 7.37921 7.44371 7.00184 8.50594 7C9.91994 7 11.1809 7.652 12.0059 8.671C12.4438 8.12999 13.0013 7.69794 13.6344 7.40881C14.2675 7.11967 14.9591 6.98134 15.6547 7.00469C16.3503 7.02804 17.0311 7.21243 17.6434 7.54337C18.2557 7.87431 18.7829 8.34277 19.1835 8.91192C19.5841 9.48108 19.8473 10.1354 19.9523 10.8235C20.0572 11.5115 20.0012 12.2145 19.7885 12.8773C19.5758 13.54 19.2123 14.1444 18.7265 14.6428C18.2407 15.1413 17.646 15.5203 16.9889 15.75C17.3652 16.0814 17.6524 16.5019 17.8242 16.973C17.9961 17.444 18.0471 17.9507 17.9727 18.4465C17.8983 18.9424 17.7007 19.4117 17.3981 19.8116C17.0955 20.2114 16.6975 20.529 16.2405 20.7353C15.7835 20.9417 15.2821 21.0302 14.7821 20.9928C14.282 20.9554 13.7993 20.7932 13.3781 20.5211C12.957 20.2491 12.6107 19.8758 12.371 19.4353C12.1312 18.9949 12.0057 18.5014 12.0059 18L12.0009 18.176Z" stroke="black" stroke-width="2" stroke-linecap="round" stroke-linejoin="round"/>
<path d="M12 19V9" stroke="black" stroke-width="2" stroke-linecap="round" stroke-linejoin="round"/>
<path d="M9 3L12 5L15 3" stroke="black" stroke-width="2" stroke-linecap="round" stroke-linejoin="round"/>
</g>
<defs>
<clipPath id="clip0_802_80609">
<rect width="24" height="24" fill="white"/>
</clipPath>
</defs>
</svg>
