<svg width="24" height="24" viewBox="0 0 24 24" fill="none" xmlns="http://www.w3.org/2000/svg">
<g clip-path="url(#clip0_802_79937)">
<path d="M9.88065 9.87606C9.59832 10.1538 9.37376 10.4846 9.21994 10.8496C9.06611 11.2145 8.98606 11.6062 8.9844 12.0023C8.98274 12.3983 9.05951 12.7907 9.21027 13.1569C9.36103 13.5231 9.58281 13.8558 9.86281 14.1359C10.1428 14.416 10.4755 14.6378 10.8416 14.7887C11.2078 14.9395 11.6002 15.0164 11.9962 15.0148C12.3923 15.0132 12.784 14.9333 13.149 14.7795C13.514 14.6258 13.8449 14.4013 14.1227 14.1191M14.7027 10.6941C14.4049 10.0791 13.907 9.58371 13.2907 9.28906" stroke="black" stroke-width="2" stroke-linecap="round" stroke-linejoin="round"/>
<path d="M10 6H19C19.5304 6 20.0391 6.21071 20.4142 6.58579C20.7893 6.96086 21 7.46957 21 8V16C21 16.294 20.936 16.574 20.822 16.825M18 18H5C4.46957 18 3.96086 17.7893 3.58579 17.4142C3.21071 17.0391 3 16.5304 3 16V8C3 7.46957 3.21071 6.96086 3.58579 6.58579C3.96086 6.21071 4.46957 6 5 6H6" stroke="black" stroke-width="2" stroke-linecap="round" stroke-linejoin="round"/>
<path d="M18 12H18.01" stroke="black" stroke-width="2" stroke-linecap="round" stroke-linejoin="round"/>
<path d="M6 12H6.01" stroke="black" stroke-width="2" stroke-linecap="round" stroke-linejoin="round"/>
<path d="M3 3L21 21" stroke="black" stroke-width="2" stroke-linecap="round" stroke-linejoin="round"/>
</g>
<defs>
<clipPath id="clip0_802_79937">
<rect width="24" height="24" fill="white"/>
</clipPath>
</defs>
</svg>
