<svg width="24" height="24" viewBox="0 0 24 24" fill="none" xmlns="http://www.w3.org/2000/svg">
<g clip-path="url(#clip0_802_58603)">
<path d="M15.22 9.37465C15.3841 9.16988 15.6221 9.03781 15.8827 9.00695C16.1433 8.97608 16.4056 9.04888 16.613 9.20965L16.707 9.29265L20.707 13.2927C20.8624 13.4482 20.9622 13.6507 20.991 13.8687L21 13.9997V18.9997C21 19.2446 20.91 19.481 20.7473 19.664C20.5845 19.8471 20.3603 19.964 20.117 19.9927L20 19.9997H3.978L3.868 19.9907L3.758 19.9707L3.651 19.9367L3.546 19.8907L3.446 19.8317L3.352 19.7617L3.292 19.7067L3.22 19.6247L3.156 19.5357L3.102 19.4397L3.086 19.4047L3.046 19.3017L3.019 19.1957L3.004 19.0877L3 18.9777L3.009 18.8677L3.028 18.7627C3.038 18.7227 3.05 18.6857 3.063 18.6507L3.109 18.5457L3.168 18.4457L7.168 12.4457C7.29112 12.2603 7.47254 12.1213 7.68355 12.0507C7.89456 11.98 8.1231 11.9818 8.333 12.0557L8.447 12.1057L11.724 13.7437L15.219 9.37465H15.22Z" fill="black"/>
<path d="M15.2321 3.36025C15.398 3.1609 15.6349 3.03383 15.8928 3.00584C16.1506 2.97785 16.4092 3.05115 16.6141 3.21025L16.7071 3.29325L20.7071 7.29325C20.8864 7.47321 20.9905 7.71468 20.9983 7.96863C21.0061 8.22258 20.9169 8.46996 20.7488 8.66053C20.5808 8.85109 20.3465 8.97055 20.0936 8.99465C19.8407 9.01874 19.5881 8.94566 19.3871 8.79025L19.2931 8.70725L16.0671 5.48225L11.7681 10.6402C11.6375 10.7969 11.4621 10.9099 11.2655 10.964C11.0689 11.0182 10.8605 11.0109 10.6681 10.9432L10.5531 10.8942L7.29908 9.26825L4.80008 12.6002C4.65399 12.7951 4.44183 12.9299 4.2034 12.9794C3.96498 13.0289 3.71667 12.9898 3.50508 12.8692L3.40008 12.8002C3.20525 12.6542 3.07043 12.442 3.0209 12.2036C2.97138 11.9651 3.01055 11.7168 3.13108 11.5052L3.20008 11.4002L6.20008 7.40025C6.32833 7.22943 6.5079 7.10416 6.71251 7.0428C6.91711 6.98143 7.13599 6.9872 7.33708 7.05925L7.44708 7.10625L10.7381 8.75125L15.2321 3.36025Z" fill="black"/>
</g>
<defs>
<clipPath id="clip0_802_58603">
<rect width="24" height="24" fill="white"/>
</clipPath>
</defs>
</svg>
