<svg width="24" height="24" viewBox="0 0 24 24" fill="none" xmlns="http://www.w3.org/2000/svg">
<g clip-path="url(#clip0_802_58581)">
<path d="M3 2C3.26522 2 3.51957 2.10536 3.70711 2.29289C3.89464 2.48043 4 2.73478 4 3V20H21C21.2449 20 21.4813 20.09 21.6644 20.2527C21.8474 20.4155 21.9643 20.6397 21.993 20.883L22 21C22 21.2652 21.8946 21.5196 21.7071 21.7071C21.5196 21.8946 21.2652 22 21 22H3C2.73478 22 2.48043 21.8946 2.29289 21.7071C2.10536 21.5196 2 21.2652 2 21V3C2 2.73478 2.10536 2.48043 2.29289 2.29289C2.48043 2.10536 2.73478 2 3 2Z" fill="black"/>
<path d="M18.9997 4C19.4208 4.00095 19.8369 4.0905 20.221 4.26284C20.6051 4.43517 20.9487 4.68643 21.2293 5.00027C21.51 5.31412 21.7214 5.68352 21.8499 6.08445C21.9784 6.48538 22.021 6.90887 21.9751 7.32737C21.9291 7.74587 21.7956 8.15002 21.5832 8.51352C21.3708 8.87703 21.0843 9.19176 20.7422 9.43725C20.4002 9.68273 20.0103 9.85347 19.5979 9.93837C19.1856 10.0233 18.7599 10.0204 18.3487 9.93L16.3467 13.132C16.6874 13.56 16.9046 14.0731 16.9747 14.6156C17.0449 15.1582 16.9653 15.7096 16.7447 16.2102C16.5241 16.7108 16.1708 17.1415 15.723 17.4558C15.2752 17.7701 14.75 17.956 14.2042 17.9933C13.6584 18.0306 13.1128 17.918 12.6264 17.6676C12.14 17.4172 11.7313 17.0386 11.4446 16.5727C11.1579 16.1068 11.004 15.5714 10.9996 15.0243C10.9952 14.4773 11.1405 13.9394 11.4197 13.469L10.0417 11.814C9.37819 12.0597 8.64914 12.063 7.98342 11.8232C7.3177 11.5834 6.75816 11.116 6.40366 10.5037C6.04916 9.89129 5.92253 9.17332 6.04614 8.47661C6.16974 7.77991 6.53563 7.14931 7.07916 6.69626C7.62268 6.24321 8.30885 5.99685 9.01643 6.00072C9.724 6.0046 10.4074 6.25845 10.946 6.71743C11.4845 7.1764 11.8435 7.81096 11.9594 8.50898C12.0754 9.20699 11.9409 9.92354 11.5797 10.532L12.9577 12.186C13.4992 11.9852 14.0871 11.9453 14.6507 12.071L16.6527 8.868C16.3013 8.42637 16.0816 7.89455 16.0188 7.33365C15.956 6.77276 16.0528 6.20553 16.2979 5.69713C16.543 5.18874 16.9266 4.7598 17.4045 4.45959C17.8824 4.15938 18.4353 4.00009 18.9997 4Z" fill="black"/>
</g>
<defs>
<clipPath id="clip0_802_58581">
<rect width="24" height="24" fill="white"/>
</clipPath>
</defs>
</svg>
