<svg width="24" height="24" viewBox="0 0 24 24" fill="none" xmlns="http://www.w3.org/2000/svg">
<g clip-path="url(#clip0_802_58510)">
<path d="M12 2C17.523 2 22 6.477 22 12C22 17.523 17.523 22 12 22C6.477 22 2 17.523 2 12C2 6.477 6.477 2 12 2ZM12 7C11.2044 7 10.4413 7.31607 9.87868 7.87868C9.31607 8.44129 9 9.20435 9 10V16C9 16.2652 9.10536 16.5196 9.29289 16.7071C9.48043 16.8946 9.73478 17 10 17C10.2652 17 10.5196 16.8946 10.7071 16.7071C10.8946 16.5196 11 16.2652 11 16V14H13V16C13 16.2449 13.09 16.4813 13.2527 16.6644C13.4155 16.8474 13.6397 16.9643 13.883 16.993L14 17C14.2652 17 14.5196 16.8946 14.7071 16.7071C14.8946 16.5196 15 16.2652 15 16V10C15 9.20435 14.6839 8.44129 14.1213 7.87868C13.5587 7.31607 12.7956 7 12 7ZM12 9C12.2652 9 12.5196 9.10536 12.7071 9.29289C12.8946 9.48043 13 9.73478 13 10V12H11V10C11 9.75507 11.09 9.51866 11.2527 9.33563C11.4155 9.15259 11.6397 9.03566 11.883 9.007L12 9Z" fill="black"/>
</g>
<defs>
<clipPath id="clip0_802_58510">
<rect width="24" height="24" fill="white"/>
</clipPath>
</defs>
</svg>
