<svg width="24" height="24" viewBox="0 0 24 24" fill="none" xmlns="http://www.w3.org/2000/svg">
<g clip-path="url(#clip0_802_78230)">
<path d="M11.0006 11.0011L7.6036 7.56113C7.21677 7.16764 7 6.63793 7 6.08613C7 5.53434 7.21677 5.00463 7.6036 4.61113C7.79351 4.41762 8.02008 4.26391 8.27008 4.15898C8.52007 4.05405 8.78848 4 9.0596 4C9.33073 4 9.59913 4.05405 9.84913 4.15898C10.0991 4.26391 10.3257 4.41762 10.5156 4.61113L11.0006 5.00113L11.4856 4.61113C11.6755 4.41762 11.9021 4.26391 12.1521 4.15898C12.4021 4.05405 12.6705 4 12.9416 4C13.2127 4 13.4811 4.05405 13.7311 4.15898C13.9811 4.26391 14.2077 4.41762 14.3976 4.61113C14.7844 5.00463 15.0012 5.53434 15.0012 6.08613C15.0012 6.63793 14.7844 7.16764 14.3976 7.56113L11.0006 11.0011Z" stroke="black" stroke-width="2" stroke-linecap="round" stroke-linejoin="round"/>
<path d="M11.0006 11L7.6036 14.44C7.21677 14.8335 7 15.3632 7 15.915C7 16.4668 7.21677 16.9965 7.6036 17.39C7.79351 17.5835 8.02008 17.7372 8.27008 17.8422C8.52007 17.9471 8.78848 18.0011 9.0596 18.0011C9.33073 18.0011 9.59913 17.9471 9.84913 17.8422C10.0991 17.7372 10.3257 17.5835 10.5156 17.39L11.0006 17L11.4856 17.39C11.6755 17.5835 11.9021 17.7372 12.1521 17.8422C12.4021 17.9471 12.6705 18.0011 12.9416 18.0011C13.2127 18.0011 13.4811 17.9471 13.7311 17.8422C13.9811 17.7372 14.2077 17.5835 14.3976 17.39C14.7844 16.9965 15.0012 16.4668 15.0012 15.915C15.0012 15.3632 14.7844 14.8335 14.3976 14.44L11.0006 11Z" stroke="black" stroke-width="2" stroke-linecap="round" stroke-linejoin="round"/>
<path d="M14.4414 7.6036C14.8349 7.21677 15.3646 7 15.9164 7C16.4682 7 16.9979 7.21677 17.3914 7.6036C17.5849 7.79351 17.7386 8.02008 17.8436 8.27008C17.9485 8.52007 18.0025 8.78848 18.0025 9.0596C18.0025 9.33073 17.9485 9.59913 17.8436 9.84913C17.7386 10.0991 17.5849 10.3257 17.3914 10.5156L17.0014 11.0006L17.3914 11.4856C17.5849 11.6755 17.7386 11.9021 17.8436 12.1521C17.9485 12.4021 18.0025 12.6705 18.0025 12.9416C18.0025 13.2127 17.9485 13.4811 17.8436 13.7311C17.7386 13.9811 17.5849 14.2077 17.3914 14.3976C16.9979 14.7844 16.4682 15.0012 15.9164 15.0012C15.3646 15.0012 14.8349 14.7844 14.4414 14.3976" stroke="black" stroke-width="2" stroke-linecap="round" stroke-linejoin="round"/>
<path d="M7.56113 7.6036C7.16764 7.21677 6.63793 7 6.08613 7C5.53434 7 5.00463 7.21677 4.61113 7.6036C4.41762 7.79351 4.26391 8.02008 4.15898 8.27008C4.05405 8.52007 4 8.78848 4 9.0596C4 9.33073 4.05405 9.59913 4.15898 9.84913C4.26391 10.0991 4.41762 10.3257 4.61113 10.5156L5.00113 11.0006L4.61113 11.4856C4.41762 11.6755 4.26391 11.9021 4.15898 12.1521C4.05405 12.4021 4 12.6705 4 12.9416C4 13.2127 4.05405 13.4811 4.15898 13.7311C4.26391 13.9811 4.41762 14.2077 4.61113 14.3976C5.00463 14.7844 5.53434 15.0012 6.08613 15.0012C6.63793 15.0012 7.16764 14.7844 7.56113 14.3976" stroke="black" stroke-width="2" stroke-linecap="round" stroke-linejoin="round"/>
<path d="M15 15L21 21" stroke="black" stroke-width="2" stroke-linecap="round" stroke-linejoin="round"/>
</g>
<defs>
<clipPath id="clip0_802_78230">
<rect width="24" height="24" fill="white"/>
</clipPath>
</defs>
</svg>
