<svg width="24" height="24" viewBox="0 0 24 24" fill="none" xmlns="http://www.w3.org/2000/svg">
<g clip-path="url(#clip0_802_58349)">
<path d="M11.9986 2C11.0639 2.0001 10.1479 2.26222 9.35456 2.75661C8.56127 3.25101 7.92245 3.95788 7.5106 4.797L7.4076 5.022C7.02263 5.91504 6.90656 6.90098 7.0736 7.859L7.1006 7.999C6.04105 7.97685 5.00187 8.29193 4.13303 8.89878C3.2642 9.50562 2.61065 10.3728 2.26672 11.3753C1.92279 12.3777 1.90626 13.4634 2.21952 14.4759C2.53279 15.4883 3.15963 16.375 4.0096 17.008L4.2076 17.148C4.84921 17.5801 5.58236 17.8574 6.34935 17.9581C7.11634 18.0587 7.89622 17.98 8.6276 17.728L8.8016 17.662L8.0286 20.757C7.99166 20.9044 7.98882 21.0584 8.0203 21.2071C8.05178 21.3558 8.11675 21.4954 8.21026 21.6152C8.30378 21.735 8.42338 21.832 8.55999 21.8987C8.69659 21.9653 8.84659 22 8.9986 22H14.9986L15.1116 21.994C15.2532 21.9779 15.3897 21.9317 15.512 21.8586C15.6343 21.7855 15.7395 21.687 15.8207 21.5699C15.9018 21.4528 15.957 21.3196 15.9825 21.1794C16.008 21.0392 16.0033 20.8952 15.9686 20.757L15.1946 17.662L15.3686 17.727C16.0594 17.9647 16.794 18.0481 17.5205 17.9713C18.2471 17.8946 18.948 17.6596 19.5739 17.2828C20.1999 16.906 20.7356 16.3966 21.1435 15.7905C21.5514 15.1843 21.8215 14.4962 21.9348 13.7744C22.0481 13.0527 22.0018 12.3149 21.7993 11.6129C21.5968 10.911 21.2429 10.2619 20.7625 9.71146C20.2821 9.161 19.687 8.7225 19.0189 8.42681C18.3508 8.13112 17.626 7.98544 16.8956 8L16.9236 7.86C17.0496 7.14143 17.0167 6.40398 16.8273 5.69947C16.6378 4.99495 16.2965 4.34046 15.8271 3.78197C15.3577 3.22349 14.7717 2.77455 14.1103 2.4667C13.4489 2.15885 12.7281 1.99955 11.9986 2Z" fill="black"/>
</g>
<defs>
<clipPath id="clip0_802_58349">
<rect width="24" height="24" fill="white"/>
</clipPath>
</defs>
</svg>
