<svg width="24" height="24" viewBox="0 0 24 24" fill="none" xmlns="http://www.w3.org/2000/svg">
<g clip-path="url(#clip0_802_58334)">
<path d="M17 3.33989C18.5202 4.21758 19.7826 5.47997 20.6603 7.00017C21.538 8.52038 22 10.2448 22 12.0002C22 13.7556 21.5379 15.48 20.6602 17.0002C19.7825 18.5204 18.5201 19.7828 16.9999 20.6605C15.4797 21.5381 13.7552 22.0002 11.9998 22.0001C10.2445 22.0001 8.52002 21.538 6.99984 20.6603C5.47965 19.7826 4.21729 18.5202 3.33963 17C2.46198 15.4797 1.99996 13.7553 2 11.9999L2.005 11.6759C2.061 9.94888 2.56355 8.26585 3.46364 6.79089C4.36373 5.31592 5.63065 4.09934 7.14089 3.25977C8.65113 2.42021 10.3531 1.98629 12.081 2.00033C13.8089 2.01437 15.5036 2.47589 17 3.33989ZM15 6.99989H9C7.713 6.99989 7.668 8.86389 8.867 8.99289L9 8.99989H10C10.3511 8.9999 10.6959 9.09232 11 9.26785C11.304 9.44339 11.5565 9.69586 11.732 9.99989H9C8.73478 9.99989 8.48043 10.1052 8.29289 10.2928C8.10536 10.4803 8 10.7347 8 10.9999C8 11.2651 8.10536 11.5195 8.29289 11.707C8.48043 11.8945 8.73478 11.9999 9 11.9999L11.732 12.0009C11.5563 12.3047 11.3038 12.557 10.9998 12.7324C10.6958 12.9077 10.351 13 10 12.9999H9C8.11 12.9999 7.663 14.0769 8.293 14.7069L11.293 17.7069C11.4805 17.8944 11.7348 17.9997 12 17.9997C12.2652 17.9997 12.5195 17.8944 12.707 17.7069L12.79 17.6129C12.9393 17.4205 13.0132 17.1802 12.9979 16.9372C12.9826 16.6942 12.8792 16.4651 12.707 16.2929L11.223 14.8079L11.336 14.7709C11.9531 14.5516 12.5071 14.1845 12.9496 13.7016C13.392 13.2187 13.7094 12.6348 13.874 12.0009L15 11.9999C15.2652 11.9999 15.5196 11.8945 15.7071 11.707C15.8946 11.5195 16 11.2651 16 10.9999C16 10.7347 15.8946 10.4803 15.7071 10.2928C15.5196 10.1052 15.2652 9.99989 15 9.99989H13.874C13.7973 9.70312 13.6866 9.41621 13.544 9.14489L13.465 8.99989H15C15.2652 8.99989 15.5196 8.89454 15.7071 8.707C15.8946 8.51946 16 8.26511 16 7.99989L15.993 7.88289C15.9643 7.63964 15.8474 7.41537 15.6644 7.25261C15.4813 7.08985 15.2449 6.99993 15 6.99989Z" fill="black"/>
</g>
<defs>
<clipPath id="clip0_802_58334">
<rect width="24" height="24" fill="white"/>
</clipPath>
</defs>
</svg>
