<svg width="24" height="24" viewBox="0 0 24 24" fill="none" xmlns="http://www.w3.org/2000/svg">
<g clip-path="url(#clip0_802_77863)">
<path d="M11.9983 2C13.0641 1.9999 14.1021 2.34039 14.9608 2.97178C15.8194 3.60318 16.4539 4.49243 16.7715 5.50982C17.0892 6.5272 17.0734 7.61947 16.7266 8.62727C16.3797 9.63506 15.7198 10.5056 14.8433 11.112L14.9903 11.481L16.7453 10.678C17.7143 10.235 18.8653 10.646 19.3163 11.596C19.5203 12.0276 19.5525 12.5206 19.4063 12.975C19.2602 13.4294 18.9466 13.8113 18.5293 14.043L18.3813 14.119L15.9983 15.208V17.228L17.4243 18.653L17.5383 18.778C17.8552 19.1534 18.0195 19.6341 17.9988 20.1249C17.9781 20.6157 17.7738 21.0808 17.4265 21.4281C17.0791 21.7755 16.614 21.9798 16.1232 22.0005C15.6324 22.0212 15.1517 21.8568 14.7763 21.54L14.6513 21.426L12.5723 19.346L12.4583 19.222C12.3997 19.1524 12.3459 19.0789 12.2973 19.002H11.6983C11.651 19.078 11.5976 19.1513 11.5383 19.222L11.4233 19.347L9.34331 21.426C8.98632 21.7846 8.50447 21.9912 7.9986 22.0027C7.49273 22.0141 7.00203 21.8295 6.62919 21.4874C6.25635 21.1453 6.03026 20.6722 5.99823 20.1673C5.96619 19.6623 6.13069 19.1645 6.45731 18.778L6.57131 18.653L7.99831 17.227V15.208L5.61531 14.118L5.46731 14.043C5.04999 13.8113 4.73644 13.4294 4.59029 12.975C4.44413 12.5206 4.47632 12.0276 4.68031 11.596C5.10931 10.694 6.16931 10.278 7.10431 10.618L7.25131 10.678L9.00631 11.481L9.15331 11.112C8.51862 10.6728 7.99423 10.0926 7.62123 9.41681C7.24822 8.74106 7.03673 7.98813 7.00331 7.217V7C7.00331 5.67392 7.5301 4.40215 8.46778 3.46447C9.40546 2.52678 10.6772 2 12.0033 2H11.9983Z" stroke="black" stroke-width="2" stroke-linecap="round" stroke-linejoin="round"/>
<path d="M12 16H12.01" stroke="black" stroke-width="2" stroke-linecap="round" stroke-linejoin="round"/>
<path d="M12 13H12.01" stroke="black" stroke-width="2" stroke-linecap="round" stroke-linejoin="round"/>
<path d="M10 7H10.01" stroke="black" stroke-width="2" stroke-linecap="round" stroke-linejoin="round"/>
<path d="M14 7H14.01" stroke="black" stroke-width="2" stroke-linecap="round" stroke-linejoin="round"/>
<path d="M12 9H12.01" stroke="black" stroke-width="2" stroke-linecap="round" stroke-linejoin="round"/>
</g>
<defs>
<clipPath id="clip0_802_77863">
<rect width="24" height="24" fill="white"/>
</clipPath>
</defs>
</svg>
