<svg width="24" height="24" viewBox="0 0 24 24" fill="none" xmlns="http://www.w3.org/2000/svg">
<g clip-path="url(#clip0_802_58301)">
<path d="M13.5287 2.55069L16.1957 3.65469C16.3372 3.71314 16.4635 3.80333 16.5647 3.9183C16.6659 4.03327 16.7393 4.16994 16.7793 4.31778C16.8193 4.46562 16.8248 4.62067 16.7954 4.77098C16.766 4.92128 16.7025 5.06282 16.6097 5.18469C16.2137 5.70629 15.9993 6.34312 15.9992 6.99799C15.999 7.65286 16.2132 8.28979 16.6089 8.81155C17.0047 9.33332 17.5603 9.71126 18.1909 9.88769C18.8216 10.0641 19.4926 10.0294 20.1017 9.78869C20.3475 9.69139 20.6218 9.69536 20.8646 9.79974C21.1075 9.90411 21.2991 10.1004 21.3977 10.3457L21.4467 10.4677C21.6478 10.9531 21.7513 11.4733 21.7513 11.9987C21.7513 12.5241 21.6478 13.0443 21.4467 13.5297L21.3677 13.6807C20.9007 14.4207 20.5827 14.9947 20.4227 15.3807C20.2567 15.7807 20.0497 16.4777 19.8097 17.4537L19.7627 17.5977C19.5614 18.083 19.2666 18.5238 18.8949 18.8951C18.5233 19.2664 18.0821 19.5609 17.5967 19.7617L17.4577 19.8077C16.4517 20.0607 15.7527 20.2687 15.3817 20.4227C14.9697 20.5927 14.3997 20.9087 13.6857 21.3647L13.5297 21.4467C13.0443 21.6478 12.5241 21.7513 11.9987 21.7513C11.4733 21.7513 10.9531 21.6478 10.4677 21.4467L10.3197 21.3697C9.56069 20.8947 8.98669 20.5767 8.61569 20.4227C8.20269 20.2517 7.50669 20.0447 6.54569 19.8107L6.39969 19.7627C5.91442 19.5614 5.47354 19.2666 5.10224 18.8949C4.73094 18.5233 4.43648 18.0821 4.23569 17.5967L4.18969 17.4587C3.93569 16.4497 3.72669 15.7497 3.57469 15.3807C3.40402 14.9667 3.09002 14.4017 2.63269 13.6857L2.55069 13.5297C2.34959 13.0443 2.24609 12.5241 2.24609 11.9987C2.24609 11.4733 2.34959 10.9531 2.55069 10.4677L2.63469 10.3077C3.08169 9.61569 3.39569 9.04569 3.57469 8.61569C3.72169 8.26069 3.93069 7.55869 4.18969 6.53769L4.23469 6.39969C4.43593 5.91442 4.73079 5.47354 5.10244 5.10224C5.47408 4.73094 5.91523 4.43648 6.40069 4.23569L6.54169 4.18869C7.52969 3.94369 8.22769 3.73569 8.61569 3.57469C9.01069 3.41069 9.58269 3.09469 10.3157 2.63069L10.4677 2.55069C10.9531 2.34959 11.4733 2.24609 11.9987 2.24609C12.5241 2.24609 13.0443 2.34959 13.5297 2.55069M11.9987 15.9987C11.7335 15.9987 11.4791 16.104 11.2916 16.2916C11.104 16.4791 10.9987 16.7335 10.9987 16.9987V17.0087C10.9987 17.2739 11.104 17.5283 11.2916 17.7158C11.4791 17.9033 11.7335 18.0087 11.9987 18.0087C12.2639 18.0087 12.5183 17.9033 12.7058 17.7158C12.8933 17.5283 12.9987 17.2739 12.9987 17.0087V16.9987C12.9987 16.7335 12.8933 16.4791 12.7058 16.2916C12.5183 16.104 12.2639 15.9987 11.9987 15.9987ZM15.9987 12.9987C15.7335 12.9987 15.4791 13.104 15.2916 13.2916C15.104 13.4791 14.9987 13.7335 14.9987 13.9987V14.0087C14.9987 14.2739 15.104 14.5283 15.2916 14.7158C15.4791 14.9033 15.7335 15.0087 15.9987 15.0087C16.2639 15.0087 16.5183 14.9033 16.7058 14.7158C16.8933 14.5283 16.9987 14.2739 16.9987 14.0087V13.9987C16.9987 13.7335 16.8933 13.4791 16.7058 13.2916C16.5183 13.104 16.2639 12.9987 15.9987 12.9987ZM7.99869 11.9987C7.73347 11.9987 7.47912 12.104 7.29158 12.2916C7.10404 12.4791 6.99869 12.7335 6.99869 12.9987V13.0087C6.99869 13.2739 7.10404 13.5283 7.29158 13.7158C7.47912 13.9033 7.73347 14.0087 7.99869 14.0087C8.2639 14.0087 8.51826 13.9033 8.70579 13.7158C8.89333 13.5283 8.99869 13.2739 8.99869 13.0087V12.9987C8.99869 12.7335 8.89333 12.4791 8.70579 12.2916C8.51826 12.104 8.2639 11.9987 7.99869 11.9987ZM11.9987 10.9987C11.7335 10.9987 11.4791 11.104 11.2916 11.2916C11.104 11.4791 10.9987 11.7335 10.9987 11.9987V12.0087C10.9987 12.2739 11.104 12.5283 11.2916 12.7158C11.4791 12.9033 11.7335 13.0087 11.9987 13.0087C12.2639 13.0087 12.5183 12.9033 12.7058 12.7158C12.8933 12.5283 12.9987 12.2739 12.9987 12.0087V11.9987C12.9987 11.7335 12.8933 11.4791 12.7058 11.2916C12.5183 11.104 12.2639 10.9987 11.9987 10.9987ZM10.9987 6.99869C10.4467 6.99869 9.99869 7.44669 9.99869 8.00869C10 8.2739 10.1066 8.52773 10.2951 8.71433C10.3884 8.80672 10.499 8.87983 10.6206 8.92948C10.7422 8.97913 10.8724 9.00434 11.0037 9.00369C11.135 9.00303 11.2649 8.97651 11.386 8.92565C11.5071 8.87479 11.6169 8.80058 11.7093 8.70726C11.8017 8.61393 11.8748 8.50333 11.9245 8.38175C11.9741 8.26017 11.9993 8.13001 11.9987 7.99869C11.9987 7.73347 11.8933 7.47912 11.7058 7.29158C11.5183 7.10404 11.2639 6.99869 10.9987 6.99869Z" fill="black"/>
</g>
<defs>
<clipPath id="clip0_802_58301">
<rect width="24" height="24" fill="white"/>
</clipPath>
</defs>
</svg>
