<svg width="24" height="24" viewBox="0 0 24 24" fill="none" xmlns="http://www.w3.org/2000/svg">
<g clip-path="url(#clip0_802_77856)">
<path d="M8 13V13.01" stroke="black" stroke-width="2" stroke-linecap="round" stroke-linejoin="round"/>
<path d="M12 17V17.01" stroke="black" stroke-width="2" stroke-linecap="round" stroke-linejoin="round"/>
<path d="M12 12V12.01" stroke="black" stroke-width="2" stroke-linecap="round" stroke-linejoin="round"/>
<path d="M18.1904 18.1854C17.9112 18.4649 17.5795 18.6865 17.2144 18.8374C16.1664 19.1004 15.4274 19.3204 14.9984 19.4984C14.5234 19.6954 13.9064 20.0364 13.1464 20.5224C12.4114 20.8269 11.5855 20.8269 10.8504 20.5224C10.0484 20.0194 9.43143 19.6784 8.99843 19.4984C8.52743 19.3034 7.78843 19.0834 6.78243 18.8384C6.04749 18.5337 5.46369 17.9496 5.15943 17.2144C4.89443 16.1624 4.67443 15.4244 4.49843 14.9984C4.30043 14.5194 3.95843 13.9024 3.47443 13.1464C3.16998 12.4114 3.16998 11.5855 3.47443 10.8504C3.95443 10.1064 4.29443 9.48943 4.49843 8.99843C4.66943 8.58543 4.88943 7.84643 5.15843 6.78243C5.30907 6.41938 5.52958 6.08946 5.80743 5.81143M8.62843 4.63743C8.76843 4.58843 8.89143 4.54243 8.99843 4.49843C9.45643 4.30843 10.0734 3.96743 10.8504 3.47443C11.5855 3.16998 12.4114 3.16998 13.1464 3.47443L15.8134 4.57843C15.2849 5.27385 14.9985 6.12318 14.998 6.99668C14.9975 7.87017 15.2829 8.71982 15.8107 9.41583C16.3385 10.1118 17.0796 10.616 17.9209 10.8512C18.7621 11.0864 19.6572 11.0398 20.4694 10.7184L20.5224 10.8504C20.8269 11.5855 20.8269 12.4114 20.5224 13.1464C20.0254 13.9324 19.6844 14.5504 19.4984 14.9984C19.4499 15.1171 19.4049 15.2371 19.3634 15.3584" stroke="black" stroke-width="2" stroke-linecap="round" stroke-linejoin="round"/>
<path d="M3 3L21 21" stroke="black" stroke-width="2" stroke-linecap="round" stroke-linejoin="round"/>
</g>
<defs>
<clipPath id="clip0_802_77856">
<rect width="24" height="24" fill="white"/>
</clipPath>
</defs>
</svg>
