<svg width="24" height="24" viewBox="0 0 24 24" fill="none" xmlns="http://www.w3.org/2000/svg">
<g clip-path="url(#clip0_802_77213)">
<path d="M17 18.4995C16.2156 18.8591 15.3629 19.0452 14.5 19.0452C13.6371 19.0452 12.7844 18.8591 12 18.4995C11.18 18.2165 10.3083 18.1146 9.44514 18.2009C8.58194 18.2872 7.74773 18.5597 7 18.9995C7.53542 18.8142 8.00742 18.4811 8.36137 18.0386C8.71531 17.5962 8.93673 17.0626 9 16.4995V8.99954M10.192 6.17454C10.6256 5.74722 11.151 5.4245 11.7281 5.23096C12.3053 5.03743 12.9191 4.97818 13.5226 5.05775C14.1261 5.13732 14.7036 5.35359 15.2109 5.69009C15.7182 6.0266 16.142 6.47445 16.45 6.99954M13 12.9995H7" stroke="black" stroke-width="2" stroke-linecap="round" stroke-linejoin="round"/>
<path d="M3 3L21 21" stroke="black" stroke-width="2" stroke-linecap="round" stroke-linejoin="round"/>
</g>
<defs>
<clipPath id="clip0_802_77213">
<rect width="24" height="24" fill="white"/>
</clipPath>
</defs>
</svg>
