<svg width="24" height="24" viewBox="0 0 24 24" fill="none" xmlns="http://www.w3.org/2000/svg">
<g clip-path="url(#clip0_802_75590)">
<path d="M13 14.5V9C13 8.73478 13.1054 8.48043 13.2929 8.29289C13.4804 8.10536 13.7348 8 14 8H20C20.2652 8 20.5196 8.10536 20.7071 8.29289C20.8946 8.48043 21 8.73478 21 9V12" stroke="black" stroke-width="2" stroke-linecap="round" stroke-linejoin="round"/>
<path d="M18 8V5C18 4.73478 17.8946 4.48043 17.7071 4.29289C17.5196 4.10536 17.2652 4 17 4H4C3.73478 4 3.48043 4.10536 3.29289 4.29289C3.10536 4.48043 3 4.73478 3 5V17C3 17.2652 3.10536 17.5196 3.29289 17.7071C3.48043 17.8946 3.73478 18 4 18H12" stroke="black" stroke-width="2" stroke-linecap="round" stroke-linejoin="round"/>
<path d="M16 9H18" stroke="black" stroke-width="2" stroke-linecap="round" stroke-linejoin="round"/>
<path d="M17 19C17 19.5304 17.2107 20.0391 17.5858 20.4142C17.9609 20.7893 18.4696 21 19 21C19.5304 21 20.0391 20.7893 20.4142 20.4142C20.7893 20.0391 21 19.5304 21 19C21 18.4696 20.7893 17.9609 20.4142 17.5858C20.0391 17.2107 19.5304 17 19 17C18.4696 17 17.9609 17.2107 17.5858 17.5858C17.2107 17.9609 17 18.4696 17 19Z" stroke="black" stroke-width="2" stroke-linecap="round" stroke-linejoin="round"/>
<path d="M19 15.5V17" stroke="black" stroke-width="2" stroke-linecap="round" stroke-linejoin="round"/>
<path d="M19 21V22.5" stroke="black" stroke-width="2" stroke-linecap="round" stroke-linejoin="round"/>
<path d="M22.0334 17.25L20.7344 18" stroke="black" stroke-width="2" stroke-linecap="round" stroke-linejoin="round"/>
<path d="M17.2688 20L15.9688 20.75" stroke="black" stroke-width="2" stroke-linecap="round" stroke-linejoin="round"/>
<path d="M15.9688 17.25L17.2688 18" stroke="black" stroke-width="2" stroke-linecap="round" stroke-linejoin="round"/>
<path d="M20.7344 20L22.0344 20.75" stroke="black" stroke-width="2" stroke-linecap="round" stroke-linejoin="round"/>
</g>
<defs>
<clipPath id="clip0_802_75590">
<rect width="24" height="24" fill="white"/>
</clipPath>
</defs>
</svg>
