<svg width="24" height="24" viewBox="0 0 24 24" fill="none" xmlns="http://www.w3.org/2000/svg">
<g clip-path="url(#clip0_802_76805)">
<path d="M7 7H4C3.73478 7 3.48043 6.89464 3.29289 6.70711C3.10536 6.51957 3 6.26522 3 6V4C3 3.725 3.11 3.477 3.29 3.296M7 3H20C20.2652 3 20.5196 3.10536 20.7071 3.29289C20.8946 3.48043 21 3.73478 21 4V6C21 6.26522 20.8946 6.51957 20.7071 6.70711C20.5196 6.89464 20.2652 7 20 7H11" stroke="black" stroke-width="2" stroke-linecap="round" stroke-linejoin="round"/>
<path d="M10.3615 10.3516C9.77152 10.6172 9.2548 11.0221 8.85566 11.5313C8.45652 12.0406 8.18688 12.6391 8.06986 13.2754C7.95285 13.9118 7.99195 14.567 8.18382 15.185C8.37569 15.8029 8.7146 16.3651 9.17147 16.8232C9.62835 17.2814 10.1895 17.6219 10.8069 17.8155C11.4243 18.0091 12.0795 18.0501 12.7162 17.9349C13.3528 17.8197 13.9521 17.5517 14.4625 17.154C14.9729 16.7564 15.3791 16.2408 15.6465 15.6516" stroke="black" stroke-width="2" stroke-linecap="round" stroke-linejoin="round"/>
<path d="M19 7V14C19 14.321 18.978 14.637 18.936 14.947M17.841 17.86C17.0115 19.1159 15.7993 20.071 14.3841 20.5837C12.969 21.0963 11.4263 21.1392 9.98488 20.7059C8.54346 20.2726 7.28009 19.3862 6.38215 18.1783C5.48421 16.9703 4.99953 15.5051 5 14V7" stroke="black" stroke-width="2" stroke-linecap="round" stroke-linejoin="round"/>
<path d="M12 14H12.01" stroke="black" stroke-width="2" stroke-linecap="round" stroke-linejoin="round"/>
<path d="M3 3L21 21" stroke="black" stroke-width="2" stroke-linecap="round" stroke-linejoin="round"/>
</g>
<defs>
<clipPath id="clip0_802_76805">
<rect width="24" height="24" fill="white"/>
</clipPath>
</defs>
</svg>
