<svg width="24" height="24" viewBox="0 0 24 24" fill="none" xmlns="http://www.w3.org/2000/svg">
<g clip-path="url(#clip0_802_75827)">
<path d="M12.5 21H6C5.73478 21 5.48043 20.8946 5.29289 20.7071C5.10536 20.5196 5 20.2652 5 20V4C5 3.73478 5.10536 3.48043 5.29289 3.29289C5.48043 3.10536 5.73478 3 6 3H18C18.2652 3 18.5196 3.10536 18.7071 3.29289C18.8946 3.48043 19 3.73478 19 4V12" stroke="black" stroke-width="2" stroke-linecap="round" stroke-linejoin="round"/>
<path d="M12.9057 16.576C12.8297 16.4137 12.7115 16.2749 12.5635 16.1739C12.4155 16.0729 12.2431 16.0136 12.0643 16.0021C11.8856 15.9905 11.707 16.0273 11.5472 16.1084C11.3875 16.1895 11.2525 16.312 11.1563 16.4632C11.0601 16.6144 11.0063 16.7886 11.0005 16.9676C10.9947 17.1467 11.0371 17.324 11.1233 17.4811C11.2095 17.6382 11.3363 17.7692 11.4905 17.8605C11.6447 17.9517 11.8205 17.9999 11.9997 18" stroke="black" stroke-width="2" stroke-linecap="round" stroke-linejoin="round"/>
<path d="M19 22V16" stroke="black" stroke-width="2" stroke-linecap="round" stroke-linejoin="round"/>
<path d="M22 19L19 16L16 19" stroke="black" stroke-width="2" stroke-linecap="round" stroke-linejoin="round"/>
</g>
<defs>
<clipPath id="clip0_802_75827">
<rect width="24" height="24" fill="white"/>
</clipPath>
</defs>
</svg>
