<svg width="24" height="24" viewBox="0 0 24 24" fill="none" xmlns="http://www.w3.org/2000/svg">
<g clip-path="url(#clip0_802_58235)">
<path d="M18.0003 4C18.1509 4 18.2995 4.034 18.435 4.09945C18.5706 4.1649 18.6897 4.26012 18.7833 4.378L18.8573 4.486L21.8573 9.486C21.9556 9.64995 22.0048 9.83863 21.9991 10.0297C21.9934 10.2207 21.9331 10.4062 21.8253 10.564L21.7453 10.667L13.2153 20.2C13.0569 20.3616 12.8679 20.4899 12.6592 20.5775C12.4506 20.6651 12.2266 20.7101 12.0003 20.71C11.6003 20.71 11.2153 20.57 10.8903 20.293L10.7553 20.167L2.25531 10.667C2.12743 10.5243 2.04324 10.3479 2.01275 10.1587C1.98225 9.96958 2.00675 9.77564 2.08331 9.6L2.14331 9.485L5.15631 4.463L5.22031 4.373C5.26608 4.31606 5.31807 4.26441 5.37531 4.219L5.46431 4.155L5.55231 4.105L5.60231 4.082L5.66231 4.057L5.77131 4.025L5.88331 4.005L6.00031 4H18.0003ZM9.11431 7.943C8.88697 7.80686 8.6149 7.76652 8.35784 7.83083C8.10078 7.89514 7.87975 8.05885 7.74331 8.286L7.14331 9.286L7.08331 9.402C7.00677 9.57848 6.98276 9.77329 7.01415 9.96308C7.04555 10.1529 7.13102 10.3296 7.26031 10.472L9.26031 12.672L9.35031 12.76C9.53542 12.9184 9.77199 13.0038 10.0156 13.0001C10.2592 12.9964 10.4931 12.9039 10.6733 12.74L10.7603 12.65C10.9187 12.4649 11.0041 12.2283 11.0004 11.9847C10.9967 11.7411 10.9042 11.5072 10.7403 11.327L9.23931 9.677L9.45731 9.314L9.51231 9.211C9.6128 8.98758 9.62778 8.73505 9.55442 8.50132C9.48106 8.26759 9.32445 8.06892 9.11431 7.943Z" fill="black"/>
</g>
<defs>
<clipPath id="clip0_802_58235">
<rect width="24" height="24" fill="white"/>
</clipPath>
</defs>
</svg>
