<svg width="24" height="24" viewBox="0 0 24 24" fill="none" xmlns="http://www.w3.org/2000/svg">
<g clip-path="url(#clip0_802_75112)">
<path d="M10 10H14V14H10V10Z" stroke="black" stroke-width="2" stroke-linecap="round" stroke-linejoin="round"/>
<path d="M10 10L6.5 6.5" stroke="black" stroke-width="2" stroke-linecap="round" stroke-linejoin="round"/>
<path d="M9.96088 6.00088C9.86892 5.35745 9.5996 4.75234 9.18311 4.25334C8.76662 3.75435 8.2194 3.38118 7.60278 3.17566C6.98615 2.97015 6.32448 2.94039 5.6919 3.08974C5.05932 3.23908 4.48082 3.56162 4.02122 4.02122C3.56162 4.48082 3.23908 5.05932 3.08974 5.6919C2.94039 6.32448 2.97015 6.98615 3.17566 7.60278C3.38118 8.2194 3.75435 8.76662 4.25334 9.18311C4.75234 9.5996 5.35745 9.86892 6.00088 9.96088" stroke="black" stroke-width="2" stroke-linecap="round" stroke-linejoin="round"/>
<path d="M14 10L17.5 6.5" stroke="black" stroke-width="2" stroke-linecap="round" stroke-linejoin="round"/>
<path d="M17.9991 9.96088C18.6425 9.86892 19.2476 9.5996 19.7466 9.18311C20.2456 8.76662 20.6188 8.2194 20.8243 7.60278C21.0298 6.98615 21.0596 6.32448 20.9102 5.6919C20.7609 5.05932 20.4383 4.48082 19.9787 4.02122C19.5191 3.56162 18.9406 3.23908 18.308 3.08974C17.6755 2.94039 17.0138 2.97015 16.3972 3.17566C15.7805 3.38118 15.2333 3.75435 14.8168 4.25334C14.4003 4.75234 14.131 5.35745 14.0391 6.00088" stroke="black" stroke-width="2" stroke-linecap="round" stroke-linejoin="round"/>
<path d="M14 14L17.5 17.5" stroke="black" stroke-width="2" stroke-linecap="round" stroke-linejoin="round"/>
<path d="M14.0391 17.9991C14.131 18.6425 14.4003 19.2476 14.8168 19.7466C15.2333 20.2456 15.7805 20.6188 16.3972 20.8243C17.0138 21.0298 17.6755 21.0596 18.308 20.9102C18.9406 20.7609 19.5191 20.4383 19.9787 19.9787C20.4383 19.5191 20.7609 18.9406 20.9102 18.308C21.0596 17.6755 21.0298 17.0138 20.8243 16.3972C20.6188 15.7805 20.2456 15.2333 19.7466 14.8168C19.2476 14.4003 18.6425 14.131 17.9991 14.0391" stroke="black" stroke-width="2" stroke-linecap="round" stroke-linejoin="round"/>
<path d="M10 14L6.5 17.5" stroke="black" stroke-width="2" stroke-linecap="round" stroke-linejoin="round"/>
<path d="M6.00088 14.0391C5.35745 14.131 4.75234 14.4003 4.25334 14.8168C3.75435 15.2333 3.38118 15.7805 3.17566 16.3972C2.97015 17.0138 2.94039 17.6755 3.08974 18.308C3.23908 18.9406 3.56162 19.5191 4.02122 19.9787C4.48082 20.4383 5.05932 20.7609 5.6919 20.9102C6.32448 21.0596 6.98615 21.0298 7.60278 20.8243C8.2194 20.6188 8.76662 20.2456 9.18311 19.7466C9.5996 19.2476 9.86892 18.6425 9.96088 17.9991" stroke="black" stroke-width="2" stroke-linecap="round" stroke-linejoin="round"/>
</g>
<defs>
<clipPath id="clip0_802_75112">
<rect width="24" height="24" fill="white"/>
</clipPath>
</defs>
</svg>
