<svg width="24" height="24" viewBox="0 0 24 24" fill="none" xmlns="http://www.w3.org/2000/svg">
<g clip-path="url(#clip0_802_74936)">
<path d="M3 21C3 21 13 5 21 5" stroke="black" stroke-width="2" stroke-linecap="round" stroke-linejoin="round"/>
<path d="M7 5C7 5.53043 6.78929 6.03914 6.41421 6.41421C6.03914 6.78929 5.53043 7 5 7C4.46957 7 3.96086 6.78929 3.58579 6.41421C3.21071 6.03914 3 5.53043 3 5C3 4.46957 3.21071 3.96086 3.58579 3.58579C3.96086 3.21071 4.46957 3 5 3C5.53043 3 6.03914 3.21071 6.41421 3.58579C6.78929 3.96086 7 4.46957 7 5Z" stroke="black" stroke-width="2" stroke-linecap="round" stroke-linejoin="round"/>
<path d="M7 5H9" stroke="black" stroke-width="2" stroke-linecap="round" stroke-linejoin="round"/>
<path d="M14 5H12" stroke="black" stroke-width="2" stroke-linecap="round" stroke-linejoin="round"/>
</g>
<defs>
<clipPath id="clip0_802_74936">
<rect width="24" height="24" fill="white"/>
</clipPath>
</defs>
</svg>
