<svg width="24" height="24" viewBox="0 0 24 24" fill="none" xmlns="http://www.w3.org/2000/svg">
<g clip-path="url(#clip0_802_74223)">
<path d="M14 3V7C14 7.26522 14.1054 7.51957 14.2929 7.70711C14.4804 7.89464 14.7348 8 15 8H19" stroke="black" stroke-width="2" stroke-linecap="round" stroke-linejoin="round"/>
<path d="M17 21H7C6.46957 21 5.96086 20.7893 5.58579 20.4142C5.21071 20.0391 5 19.5304 5 19V5C5 4.46957 5.21071 3.96086 5.58579 3.58579C5.96086 3.21071 6.46957 3 7 3H14L19 8V19C19 19.5304 18.7893 20.0391 18.4142 20.4142C18.0391 20.7893 17.5304 21 17 21Z" stroke="black" stroke-width="2" stroke-linecap="round" stroke-linejoin="round"/>
<path d="M10 16C10 16.2652 10.1054 16.5196 10.2929 16.7071C10.4804 16.8946 10.7348 17 11 17C11.2652 17 11.5196 16.8946 11.7071 16.7071C11.8946 16.5196 12 16.2652 12 16C12 15.7348 11.8946 15.4804 11.7071 15.2929C11.5196 15.1054 11.2652 15 11 15C10.7348 15 10.4804 15.1054 10.2929 15.2929C10.1054 15.4804 10 15.7348 10 16Z" stroke="black" stroke-width="2" stroke-linecap="round" stroke-linejoin="round"/>
<path d="M12 16V11L14 12" stroke="black" stroke-width="2" stroke-linecap="round" stroke-linejoin="round"/>
</g>
<defs>
<clipPath id="clip0_802_74223">
<rect width="24" height="24" fill="white"/>
</clipPath>
</defs>
</svg>
