<svg width="24" height="24" viewBox="0 0 24 24" fill="none" xmlns="http://www.w3.org/2000/svg">
<g clip-path="url(#clip0_802_73652)">
<path d="M8.59375 4.577C8.96799 4.2074 9.47276 4.0001 9.99875 4H13.9987C14.5292 4 15.0379 4.21071 15.413 4.58579C15.788 4.96086 15.9987 5.46957 15.9987 6V8" stroke="black" stroke-width="2" stroke-linecap="round" stroke-linejoin="round"/>
<path d="M12 8H18C18.5304 8 19.0391 8.21071 19.4142 8.58579C19.7893 8.96086 20 9.46957 20 10V16M19.424 19.405C19.2379 19.5936 19.0162 19.7432 18.7717 19.8454C18.5272 19.9475 18.2649 20.0001 18 20H6C5.46957 20 4.96086 19.7893 4.58579 19.4142C4.21071 19.0391 4 18.5304 4 18V10C4 9.46957 4.21071 8.96086 4.58579 8.58579C4.96086 8.21071 5.46957 8 6 8H8" stroke="black" stroke-width="2" stroke-linecap="round" stroke-linejoin="round"/>
<path d="M10 14H14" stroke="black" stroke-width="2" stroke-linecap="round" stroke-linejoin="round"/>
<path d="M12 12V16" stroke="black" stroke-width="2" stroke-linecap="round" stroke-linejoin="round"/>
<path d="M3 3L21 21" stroke="black" stroke-width="2" stroke-linecap="round" stroke-linejoin="round"/>
</g>
<defs>
<clipPath id="clip0_802_73652">
<rect width="24" height="24" fill="white"/>
</clipPath>
</defs>
</svg>
