<svg width="24" height="24" viewBox="0 0 24 24" fill="none" xmlns="http://www.w3.org/2000/svg">
<g clip-path="url(#clip0_802_73596)">
<path d="M14.673 15.3596C13.6634 15.1918 12.73 14.7169 12 13.9996C11.0654 13.0835 9.80876 12.5703 8.5 12.5703C7.19124 12.5703 5.93464 13.0835 5 13.9996V4.9996C5.93464 4.08346 7.19124 3.57031 8.5 3.57031C9.80876 3.57031 11.0654 4.08346 12 4.9996C12.9346 5.91573 14.1912 6.42888 15.5 6.42888C16.8088 6.42888 18.0654 5.91573 19 4.9996V11.9996" stroke="black" stroke-width="2" stroke-linecap="round" stroke-linejoin="round"/>
<path d="M5 21V14" stroke="black" stroke-width="2" stroke-linecap="round" stroke-linejoin="round"/>
<path d="M19 16L17 19H21L19 22" stroke="black" stroke-width="2" stroke-linecap="round" stroke-linejoin="round"/>
</g>
<defs>
<clipPath id="clip0_802_73596">
<rect width="24" height="24" fill="white"/>
</clipPath>
</defs>
</svg>
