<svg width="24" height="24" viewBox="0 0 24 24" fill="none" xmlns="http://www.w3.org/2000/svg">
<g clip-path="url(#clip0_802_73590)">
<path d="M13.342 14.9406C12.8459 14.703 12.3924 14.385 12 13.9996C11.0654 13.0835 9.80876 12.5703 8.5 12.5703C7.19124 12.5703 5.93464 13.0835 5 13.9996V4.9996C5.93464 4.08346 7.19124 3.57031 8.5 3.57031C9.80876 3.57031 11.0654 4.08346 12 4.9996C12.9346 5.91573 14.1912 6.42888 15.5 6.42888C16.8088 6.42888 18.0654 5.91573 19 4.9996V11.9996" stroke="black" stroke-width="2" stroke-linecap="round" stroke-linejoin="round"/>
<path d="M5 21V14" stroke="black" stroke-width="2" stroke-linecap="round" stroke-linejoin="round"/>
<path d="M16 19C16 19.7956 16.3161 20.5587 16.8787 21.1213C17.4413 21.6839 18.2044 22 19 22C19.7956 22 20.5587 21.6839 21.1213 21.1213C21.6839 20.5587 22 19.7956 22 19C22 18.2044 21.6839 17.4413 21.1213 16.8787C20.5587 16.3161 19.7956 16 19 16C18.2044 16 17.4413 16.3161 16.8787 16.8787C16.3161 17.4413 16 18.2044 16 19Z" stroke="black" stroke-width="2" stroke-linecap="round" stroke-linejoin="round"/>
<path d="M17 21L21 17" stroke="black" stroke-width="2" stroke-linecap="round" stroke-linejoin="round"/>
</g>
<defs>
<clipPath id="clip0_802_73590">
<rect width="24" height="24" fill="white"/>
</clipPath>
</defs>
</svg>
