<svg width="24" height="24" viewBox="0 0 24 24" fill="none" xmlns="http://www.w3.org/2000/svg">
<g clip-path="url(#clip0_802_72966)">
<path d="M10.0005 15.4625C10.4556 15.7293 10.9589 15.9034 11.4816 15.9749C12.0042 16.0463 12.5359 16.0137 13.0459 15.8789C13.5559 15.744 14.0341 15.5096 14.4532 15.1892C14.8722 14.8688 15.2238 14.4686 15.4875 14.0118C15.7513 13.5549 15.9221 13.0504 15.9901 12.5273C16.0581 12.0042 16.0219 11.4728 15.8837 10.9637C15.7455 10.4546 15.5079 9.97788 15.1847 9.56097C14.8615 9.14405 14.4591 8.79519 14.0005 8.53446C13.0822 8.01239 11.9948 7.87471 10.9754 8.15147C9.95604 8.42822 9.08752 9.09693 8.55937 10.0117C8.03122 10.9264 7.88633 12.013 8.15632 13.0341C8.4263 14.0553 9.08924 14.9283 10.0005 15.4625Z" stroke="black" stroke-width="2" stroke-linecap="round" stroke-linejoin="round"/>
<path d="M15.4648 14.0007L18.4648 8.80469" stroke="black" stroke-width="2" stroke-linecap="round" stroke-linejoin="round"/>
<path d="M5.53516 15.196L8.53516 10" stroke="black" stroke-width="2" stroke-linecap="round" stroke-linejoin="round"/>
<path d="M12 12H12.01" stroke="black" stroke-width="2" stroke-linecap="round" stroke-linejoin="round"/>
<path d="M9 9L3 3" stroke="black" stroke-width="2" stroke-linecap="round" stroke-linejoin="round"/>
<path d="M5.5 8.5L8.5 5.5" stroke="black" stroke-width="2" stroke-linecap="round" stroke-linejoin="round"/>
<path d="M21 21L15 15" stroke="black" stroke-width="2" stroke-linecap="round" stroke-linejoin="round"/>
<path d="M17 20L20 17" stroke="black" stroke-width="2" stroke-linecap="round" stroke-linejoin="round"/>
<path d="M3 7V3H7" stroke="black" stroke-width="2" stroke-linecap="round" stroke-linejoin="round"/>
</g>
<defs>
<clipPath id="clip0_802_72966">
<rect width="24" height="24" fill="white"/>
</clipPath>
</defs>
</svg>
