<svg width="24" height="24" viewBox="0 0 24 24" fill="none" xmlns="http://www.w3.org/2000/svg">
<g clip-path="url(#clip0_802_72772)">
<path d="M9 21H15" stroke="black" stroke-width="2" stroke-linecap="round" stroke-linejoin="round"/>
<path d="M12 16V21" stroke="black" stroke-width="2" stroke-linecap="round" stroke-linejoin="round"/>
<path d="M8 5C8 5.53043 8.42143 6.03914 9.17157 6.41421C9.92172 6.78929 10.9391 7 12 7C13.0609 7 14.0783 6.78929 14.8284 6.41421C15.5786 6.03914 16 5.53043 16 5C16 4.46957 15.5786 3.96086 14.8284 3.58579C14.0783 3.21071 13.0609 3 12 3C10.9391 3 9.92172 3.21071 9.17157 3.58579C8.42143 3.96086 8 4.46957 8 5Z" stroke="black" stroke-width="2" stroke-linecap="round" stroke-linejoin="round"/>
<path d="M8 5C8 11.075 9.79 16 12 16C14.21 16 16 11.075 16 5" stroke="black" stroke-width="2" stroke-linecap="round" stroke-linejoin="round"/>
</g>
<defs>
<clipPath id="clip0_802_72772">
<rect width="24" height="24" fill="white"/>
</clipPath>
</defs>
</svg>
