<svg width="24" height="24" viewBox="0 0 24 24" fill="none" xmlns="http://www.w3.org/2000/svg">
<g clip-path="url(#clip0_802_72213)">
<path d="M12.0013 19.9997L11.0263 19.0337L4.50128 12.5717C4.00658 12.0903 3.61692 11.5117 3.35683 10.8723C3.09673 10.2329 2.97184 9.54664 2.99002 8.85662C3.00819 8.1666 3.16904 7.48782 3.46244 6.86303C3.75583 6.23823 4.17541 5.68094 4.69476 5.22627C5.21411 4.77159 5.82198 4.42938 6.48009 4.22117C7.1382 4.01296 7.83228 3.94327 8.51865 4.01649C9.20501 4.08971 9.86878 4.30425 10.4682 4.64659C11.0675 4.98894 11.5895 5.45169 12.0013 6.00569C12.7621 4.99367 13.8786 4.30798 15.1253 4.08703C16.372 3.86608 17.656 4.12632 18.7183 4.81523C19.7806 5.50413 20.542 6.5704 20.8488 7.79879C21.1556 9.02718 20.9849 10.3262 20.3713 11.4337" stroke="black" stroke-width="2" stroke-linecap="round" stroke-linejoin="round"/>
<path d="M15 18C15 18.7956 15.3161 19.5587 15.8787 20.1213C16.4413 20.6839 17.2044 21 18 21C18.7956 21 19.5587 20.6839 20.1213 20.1213C20.6839 19.5587 21 18.7956 21 18C21 17.2044 20.6839 16.4413 20.1213 15.8787C19.5587 15.3161 18.7956 15 18 15C17.2044 15 16.4413 15.3161 15.8787 15.8787C15.3161 16.4413 15 17.2044 15 18Z" stroke="black" stroke-width="2" stroke-linecap="round" stroke-linejoin="round"/>
<path d="M20.1992 20.1992L21.9992 21.9992" stroke="black" stroke-width="2" stroke-linecap="round" stroke-linejoin="round"/>
</g>
<defs>
<clipPath id="clip0_802_72213">
<rect width="24" height="24" fill="white"/>
</clipPath>
</defs>
</svg>
