<svg width="24" height="24" viewBox="0 0 24 24" fill="none" xmlns="http://www.w3.org/2000/svg">
<g clip-path="url(#clip0_802_58095)">
<path d="M11.9992 1.67188C12.9542 1.67188 13.8442 2.13888 14.3892 2.91888L14.4942 3.07887L22.6082 16.6269C22.8548 17.054 22.989 17.5366 22.9981 18.0297C23.0073 18.5228 22.8912 19.0101 22.6607 19.4461C22.4302 19.882 22.0928 20.2523 21.6801 20.5224C21.2674 20.7924 20.793 20.9532 20.3012 20.9899L20.1062 20.9979H3.88121C3.38891 20.9923 2.90605 20.8622 2.47768 20.6195C2.04932 20.3768 1.68942 20.0296 1.43158 19.6102C1.17374 19.1907 1.02637 18.7128 1.00322 18.2211C0.980076 17.7293 1.08191 17.2396 1.29921 16.7979L1.39821 16.6129L9.50821 3.07487C9.76787 2.64669 10.1335 2.29264 10.5698 2.04689C11.0062 1.80114 11.4984 1.67199 11.9992 1.67188ZM11.9992 15.0019C11.7543 15.0019 11.5179 15.0918 11.3348 15.2546C11.1518 15.4173 11.0349 15.6416 11.0062 15.8849L10.9992 16.0019L11.0062 16.1289C11.0351 16.3719 11.1522 16.5959 11.3352 16.7585C11.5182 16.921 11.7544 17.0108 11.9992 17.0108C12.244 17.0108 12.4802 16.921 12.6632 16.7585C12.8463 16.5959 12.9633 16.3719 12.9922 16.1289L12.9992 16.0119L12.9922 15.8849C12.9636 15.6416 12.8466 15.4173 12.6636 15.2546C12.4805 15.0918 12.2441 15.0019 11.9992 15.0019ZM13.3672 8.32887C12.7686 8.02284 12.0841 7.92822 11.4249 8.06038C10.7657 8.19255 10.1706 8.54373 9.73621 9.05688C9.57059 9.25088 9.48537 9.50084 9.49799 9.75561C9.5106 10.0104 9.6201 10.2507 9.80408 10.4274C9.98805 10.6041 10.2326 10.7038 10.4877 10.7061C10.7427 10.7084 10.9891 10.6132 11.1762 10.4399L11.3472 10.2599C11.4947 10.1245 11.6802 10.0375 11.8787 10.0107C12.0771 9.98385 12.279 10.0185 12.4572 10.1099C12.6493 10.2071 12.8049 10.3637 12.9008 10.5564C12.9968 10.7491 13.028 10.9677 12.9898 11.1795C12.9516 11.3914 12.846 11.5853 12.6888 11.7324C12.5316 11.8794 12.3312 11.9719 12.1172 11.9959L11.8852 12.0079C11.6309 12.0359 11.3969 12.1603 11.2315 12.3555C11.0662 12.5508 10.9819 12.802 10.9961 13.0575C11.0103 13.3129 11.122 13.5532 11.308 13.7289C11.494 13.9046 11.7403 14.0023 11.9962 14.0019C12.6708 14.0039 13.3265 13.7785 13.8572 13.362C14.3879 12.9456 14.7628 12.3624 14.9213 11.7066C15.0798 11.0509 15.0126 10.3608 14.7306 9.74797C14.4486 9.13509 13.9683 8.63515 13.3672 8.32887Z" fill="black"/>
</g>
<defs>
<clipPath id="clip0_802_58095">
<rect width="24" height="24" fill="white"/>
</clipPath>
</defs>
</svg>
