<svg width="24" height="24" viewBox="0 0 24 24" fill="none" xmlns="http://www.w3.org/2000/svg">
<g clip-path="url(#clip0_802_57981)">
<path d="M13.666 1.42714L20.416 5.40714L20.512 5.47014L20.605 5.54814L20.711 5.62214C21.086 5.90309 21.3952 6.26251 21.617 6.67531C21.8388 7.08811 21.9678 7.54434 21.995 8.01214L22 8.21614V15.5001C22 16.6751 21.357 17.7561 20.377 18.2931L13.573 22.5951C12.593 23.1331 11.407 23.1331 10.373 22.5631L3.678 18.3261C3.171 18.0484 2.74784 17.6396 2.45269 17.1425C2.15753 16.6454 2.0012 16.0783 2 15.5001V8.21514C2 7.10914 2.57 6.08714 3.476 5.51014L10.426 1.41214C11.426 0.860144 12.64 0.860144 13.666 1.42714ZM12 7.99814C11.7348 7.99814 11.4804 8.1035 11.2929 8.29104C11.1054 8.47857 11 8.73293 11 8.99814V10.9981H9C8.75507 10.9982 8.51866 11.0881 8.33563 11.2509C8.15259 11.4136 8.03566 11.6379 8.007 11.8811L8 11.9981C8 12.2634 8.10536 12.5177 8.29289 12.7053C8.48043 12.8928 8.73478 12.9981 9 12.9981H11V14.9981C11 15.2431 11.09 15.4795 11.2527 15.6625C11.4155 15.8456 11.6397 15.9625 11.883 15.9911L12 15.9981C12.2652 15.9981 12.5196 15.8928 12.7071 15.7053C12.8946 15.5177 13 15.2634 13 14.9981V12.9981H15C15.2449 12.9981 15.4813 12.9082 15.6644 12.7454C15.8474 12.5827 15.9643 12.3584 15.993 12.1151L16 11.9981C16 11.7329 15.8946 11.4786 15.7071 11.291C15.5196 11.1035 15.2652 10.9981 15 10.9981H13V8.99814C13 8.75321 12.91 8.51681 12.7473 8.33377C12.5845 8.15074 12.3603 8.0338 12.117 8.00514L12 7.99814Z" fill="black"/>
</g>
<defs>
<clipPath id="clip0_802_57981">
<rect width="24" height="24" fill="white"/>
</clipPath>
</defs>
</svg>
