<svg width="24" height="24" viewBox="0 0 24 24" fill="none" xmlns="http://www.w3.org/2000/svg">
<g clip-path="url(#clip0_802_58086)">
<path d="M13.666 1.42714L20.416 5.40714L20.512 5.47014L20.605 5.54814L20.711 5.62214C21.086 5.90309 21.3952 6.26251 21.617 6.67531C21.8388 7.08811 21.9678 7.54434 21.995 8.01214L22 8.21614V15.5001C22 16.6751 21.357 17.7561 20.377 18.2931L13.573 22.5951C12.593 23.1331 11.407 23.1331 10.373 22.5631L3.678 18.3261C3.171 18.0484 2.74784 17.6396 2.45269 17.1425C2.15753 16.6454 2.0012 16.0783 2 15.5001V8.21514C2 7.10914 2.57 6.08714 3.476 5.51014L10.426 1.41214C11.426 0.860144 12.64 0.860144 13.666 1.42714ZM12 6.99814C11.2044 6.99814 10.4413 7.31421 9.87868 7.87682C9.31607 8.43943 9 9.20249 9 9.99814V13.9981C9 14.7938 9.31607 15.5569 9.87868 16.1195C10.4413 16.6821 11.2044 16.9981 12 16.9981C12.7956 16.9981 13.5587 16.6821 14.1213 16.1195C14.6839 15.5569 15 14.7938 15 13.9981C14.9997 13.7433 14.9021 13.4981 14.7272 13.3128C14.5522 13.1274 14.313 13.0159 14.0586 13.001C13.8042 12.986 13.5536 13.0688 13.3582 13.2324C13.1627 13.396 13.0371 13.628 13.007 13.8811L13 13.9981C13 14.2634 12.8946 14.5177 12.7071 14.7053C12.5196 14.8928 12.2652 14.9981 12 14.9981C11.7348 14.9981 11.4804 14.8928 11.2929 14.7053C11.1054 14.5177 11 14.2634 11 13.9981V9.99814C11.0003 9.74326 11.0979 9.49811 11.2728 9.31278C11.4478 9.12744 11.687 9.01591 11.9414 9.00097C12.1958 8.98603 12.4464 9.06882 12.6418 9.23241C12.8373 9.396 12.9629 9.62805 12.993 9.88114L13 9.99814C13 10.2634 13.1054 10.5177 13.2929 10.7053C13.4804 10.8928 13.7348 10.9981 14 10.9981C14.2652 10.9981 14.5196 10.8928 14.7071 10.7053C14.8946 10.5177 15 10.2634 15 9.99814C15 9.20249 14.6839 8.43943 14.1213 7.87682C13.5587 7.31421 12.7956 6.99814 12 6.99814Z" fill="black"/>
</g>
<defs>
<clipPath id="clip0_802_58086">
<rect width="24" height="24" fill="white"/>
</clipPath>
</defs>
</svg>
