<svg width="24" height="24" viewBox="0 0 24 24" fill="none" xmlns="http://www.w3.org/2000/svg">
<g clip-path="url(#clip0_802_71866)">
<path d="M11.1624 2.4577L3.31644 15.4117C3.07047 15.7938 2.96282 16.2486 3.0114 16.7004C3.05998 17.1521 3.26187 17.5737 3.58344 17.8947L6.11044 20.4177C6.48444 20.7907 6.99044 21.0007 7.51844 21.0007H16.4824C17.0104 21.0007 17.5164 20.7907 17.8904 20.4177L20.4174 17.8947C20.739 17.5737 20.9409 17.1521 20.9895 16.7004C21.0381 16.2486 20.9304 15.7938 20.6844 15.4117L12.8384 2.4577C12.7483 2.31732 12.6243 2.20185 12.4779 2.12188C12.3314 2.04191 12.1673 2 12.0004 2C11.8336 2 11.6694 2.04191 11.523 2.12188C11.3766 2.20185 11.2526 2.31732 11.1624 2.4577Z" stroke="black" stroke-width="2" stroke-linecap="round" stroke-linejoin="round"/>
<path d="M12 2L7 20.9" stroke="black" stroke-width="2" stroke-linecap="round" stroke-linejoin="round"/>
<path d="M12 2L17 20.9" stroke="black" stroke-width="2" stroke-linecap="round" stroke-linejoin="round"/>
</g>
<defs>
<clipPath id="clip0_802_71866">
<rect width="24" height="24" fill="white"/>
</clipPath>
</defs>
</svg>
