<svg width="24" height="24" viewBox="0 0 24 24" fill="none" xmlns="http://www.w3.org/2000/svg">
<g clip-path="url(#clip0_802_71468)">
<path d="M17.6575 10.9982C17.9771 10.0932 18.075 9.12484 17.9429 8.17425C17.8108 7.22366 17.4526 6.31863 16.8984 5.53511C16.3442 4.75159 15.6101 4.11245 14.7578 3.67133C13.9054 3.23022 12.9597 3 12 3C11.0403 3 10.0946 3.23022 9.24223 3.67133C8.38989 4.11245 7.6558 4.75159 7.10158 5.53511C6.54736 6.31863 6.18918 7.22366 6.05709 8.17425C5.92501 9.12484 6.02289 10.0932 6.3425 10.9982" stroke="black" stroke-width="2" stroke-linecap="round" stroke-linejoin="round"/>
<path d="M6.34375 11L12.0017 22L17.6587 11H6.34375Z" stroke="black" stroke-width="2" stroke-linecap="round" stroke-linejoin="round"/>
</g>
<defs>
<clipPath id="clip0_802_71468">
<rect width="24" height="24" fill="white"/>
</clipPath>
</defs>
</svg>
