<svg width="24" height="24" viewBox="0 0 24 24" fill="none" xmlns="http://www.w3.org/2000/svg">
<g clip-path="url(#clip0_802_71312)">
<path d="M5.63606 5.63606C6.47179 4.80032 7.46395 4.13738 8.55588 3.68509C9.64782 3.23279 10.8182 3 12.0001 3C13.182 3 14.3523 3.23279 15.4442 3.68509C16.5362 4.13738 17.5283 4.80032 18.3641 5.63605C19.1998 6.47179 19.8627 7.46395 20.315 8.55588C20.7673 9.64782 21.0001 10.8182 21.0001 12.0001C21.0001 13.182 20.7673 14.3523 20.315 15.4442C19.8627 16.5362 19.1998 17.5283 18.3641 18.3641C16.6762 20.0519 14.387 21.0001 12.0001 21.0001C9.61309 21.0001 7.32389 20.0519 5.63606 18.3641C3.94822 16.6762 3 14.387 3 12.0001C3 9.61309 3.94822 7.32389 5.63606 5.63606Z" stroke="black" stroke-width="2" stroke-linecap="round" stroke-linejoin="round"/>
<path d="M7.75772 16.2438C7.20046 15.6866 6.75841 15.0252 6.45682 14.2971C6.15523 13.5691 6 12.7888 6 12.0008C6 11.2128 6.15523 10.4325 6.45682 9.70448C6.75841 8.97646 7.20046 8.31498 7.75772 7.75781" stroke="black" stroke-width="2" stroke-linecap="round" stroke-linejoin="round"/>
</g>
<defs>
<clipPath id="clip0_802_71312">
<rect width="24" height="24" fill="white"/>
</clipPath>
</defs>
</svg>
