<svg width="24" height="24" viewBox="0 0 24 24" fill="none" xmlns="http://www.w3.org/2000/svg">
<g clip-path="url(#clip0_802_71046)">
<path d="M5 21H14" stroke="black" stroke-width="2" stroke-linecap="round" stroke-linejoin="round"/>
<path d="M10 21L3 13L11.5 7.5" stroke="black" stroke-width="2" stroke-linecap="round" stroke-linejoin="round"/>
<path d="M13.0016 13.9994C10.8536 11.8514 10.8536 8.14737 13.0016 5.99937C15.0896 3.91137 18.8436 4.02737 21.0016 5.99937L13.0016 13.9994Z" stroke="black" stroke-width="2" stroke-linecap="round" stroke-linejoin="round"/>
<path d="M11.7421 7.57446L10.5861 6.41846C10.2109 6.04344 10.0001 5.53476 10 5.00431C9.99991 4.47386 10.2105 3.96511 10.5856 3.58996C10.9606 3.21481 11.4693 3.004 11.9997 3.00391C12.5301 3.00381 13.0389 3.21444 13.4141 3.58946L14.5581 4.73346" stroke="black" stroke-width="2" stroke-linecap="round" stroke-linejoin="round"/>
<path d="M15.5 11.9989L15.708 12.2729C16.1812 12.7414 16.8201 13.0042 17.486 13.0042C18.1519 13.0042 18.7908 12.7414 19.264 12.2729C20.203 11.3399 20.244 9.85291 19.386 8.87291L19.02 8.50391" stroke="black" stroke-width="2" stroke-linecap="round" stroke-linejoin="round"/>
</g>
<defs>
<clipPath id="clip0_802_71046">
<rect width="24" height="24" fill="white"/>
</clipPath>
</defs>
</svg>
