<svg width="24" height="24" viewBox="0 0 24 24" fill="none" xmlns="http://www.w3.org/2000/svg">
<g clip-path="url(#clip0_802_57827)">
<path d="M10 3C10.2652 3 10.5196 3.10536 10.7071 3.29289C10.8946 3.48043 11 3.73478 11 4C11 4.26522 10.8946 4.51957 10.7071 4.70711C10.5196 4.89464 10.2652 5 10 5H4C3.73478 5 3.48043 4.89464 3.29289 4.70711C3.10536 4.51957 3 4.26522 3 4C3 3.73478 3.10536 3.48043 3.29289 3.29289C3.48043 3.10536 3.73478 3 4 3H10Z" fill="black"/>
<path d="M20 3C20.2652 3 20.5196 3.10536 20.7071 3.29289C20.8946 3.48043 21 3.73478 21 4C21 4.26522 20.8946 4.51957 20.7071 4.70711C20.5196 4.89464 20.2652 5 20 5H14C13.7348 5 13.4804 4.89464 13.2929 4.70711C13.1054 4.51957 13 4.26522 13 4C13 3.73478 13.1054 3.48043 13.2929 3.29289C13.4804 3.10536 13.7348 3 14 3H20Z" fill="black"/>
<path d="M8 7C8.79565 7 9.55871 7.31607 10.1213 7.87868C10.6839 8.44129 11 9.20435 11 10V18C11 18.7956 10.6839 19.5587 10.1213 20.1213C9.55871 20.6839 8.79565 21 8 21H6C5.20435 21 4.44129 20.6839 3.87868 20.1213C3.31607 19.5587 3 18.7956 3 18V10C3 9.20435 3.31607 8.44129 3.87868 7.87868C4.44129 7.31607 5.20435 7 6 7H8Z" fill="black"/>
<path d="M18 7C18.7956 7 19.5587 7.31607 20.1213 7.87868C20.6839 8.44129 21 9.20435 21 10V12C21 12.7956 20.6839 13.5587 20.1213 14.1213C19.5587 14.6839 18.7956 15 18 15H16C15.2044 15 14.4413 14.6839 13.8787 14.1213C13.3161 13.5587 13 12.7956 13 12V10C13 9.20435 13.3161 8.44129 13.8787 7.87868C14.4413 7.31607 15.2044 7 16 7H18Z" fill="black"/>
</g>
<defs>
<clipPath id="clip0_802_57827">
<rect width="24" height="24" fill="white"/>
</clipPath>
</defs>
</svg>
