<svg width="24" height="24" viewBox="0 0 24 24" fill="none" xmlns="http://www.w3.org/2000/svg">
<g clip-path="url(#clip0_802_70312)">
<path d="M11.2971 11.2891C11.1095 11.4766 11.004 11.7309 11.0039 11.9962C11.0039 12.1276 11.0297 12.2576 11.0799 12.379C11.1301 12.5004 11.2038 12.6107 11.2966 12.7036C11.3895 12.7965 11.4997 12.8702 11.621 12.9205C11.7424 12.9708 11.8724 12.9967 12.0038 12.9968C12.269 12.9969 12.5235 12.8916 12.7111 12.7041" stroke="black" stroke-width="2" stroke-linecap="round" stroke-linejoin="round"/>
<path d="M8.47336 8.45668C8.0061 8.92057 7.63507 9.47218 7.38156 10.0798C7.12805 10.6875 6.99706 11.3393 6.9961 11.9977C6.99514 12.6561 7.12424 13.3083 7.37598 13.9167C7.62772 14.5251 7.99715 15.0778 8.46306 15.543C8.92897 16.0083 9.48218 16.3769 10.0909 16.6278C10.6997 16.8787 11.352 17.0068 12.0104 17.0049C12.6689 17.0031 13.3204 16.8711 13.9277 16.6168C14.535 16.3624 15.0861 15.9906 15.5494 15.5227M16.9144 12.9317C17.0656 12.1344 17.0205 11.3122 16.7829 10.5363C16.5453 9.76031 16.1224 9.05383 15.5508 8.47784C14.9791 7.90184 14.2759 7.47365 13.5017 7.23023C12.7276 6.98681 11.9058 6.93548 11.1074 7.08068" stroke="black" stroke-width="2" stroke-linecap="round" stroke-linejoin="round"/>
<path d="M15.8984 20.1094V20.1194" stroke="black" stroke-width="2" stroke-linecap="round" stroke-linejoin="round"/>
<path d="M19.0391 17.6094V17.6194" stroke="black" stroke-width="2" stroke-linecap="round" stroke-linejoin="round"/>
<path d="M20.7695 14V14.01" stroke="black" stroke-width="2" stroke-linecap="round" stroke-linejoin="round"/>
<path d="M20.7695 10V10.01" stroke="black" stroke-width="2" stroke-linecap="round" stroke-linejoin="round"/>
<path d="M19.0391 6.39062V6.40063" stroke="black" stroke-width="2" stroke-linecap="round" stroke-linejoin="round"/>
<path d="M15.8984 3.89062V3.90062" stroke="black" stroke-width="2" stroke-linecap="round" stroke-linejoin="round"/>
<path d="M12 3V3.01" stroke="black" stroke-width="2" stroke-linecap="round" stroke-linejoin="round"/>
<path d="M8.10156 3.89062V3.90062" stroke="black" stroke-width="2" stroke-linecap="round" stroke-linejoin="round"/>
<path d="M4.96094 6.39062V6.40063" stroke="black" stroke-width="2" stroke-linecap="round" stroke-linejoin="round"/>
<path d="M3.23047 10V10.01" stroke="black" stroke-width="2" stroke-linecap="round" stroke-linejoin="round"/>
<path d="M3.23047 14V14.01" stroke="black" stroke-width="2" stroke-linecap="round" stroke-linejoin="round"/>
<path d="M4.96094 17.6094V17.6194" stroke="black" stroke-width="2" stroke-linecap="round" stroke-linejoin="round"/>
<path d="M8.10156 20.1094V20.1194" stroke="black" stroke-width="2" stroke-linecap="round" stroke-linejoin="round"/>
<path d="M12 21V21.01" stroke="black" stroke-width="2" stroke-linecap="round" stroke-linejoin="round"/>
<path d="M3 3L21 21" stroke="black" stroke-width="2" stroke-linecap="round" stroke-linejoin="round"/>
</g>
<defs>
<clipPath id="clip0_802_70312">
<rect width="24" height="24" fill="white"/>
</clipPath>
</defs>
</svg>
