<svg width="24" height="24" viewBox="0 0 24 24" fill="none" xmlns="http://www.w3.org/2000/svg">
<g clip-path="url(#clip0_802_69612)">
<path d="M3 6C3 6.53043 3.21071 7.03914 3.58579 7.41421C3.96086 7.78929 4.46957 8 5 8C5.53043 8 6.03914 7.78929 6.41421 7.41421C6.78929 7.03914 7 6.53043 7 6C7 5.46957 6.78929 4.96086 6.41421 4.58579C6.03914 4.21071 5.53043 4 5 4C4.46957 4 3.96086 4.21071 3.58579 4.58579C3.21071 4.96086 3 5.46957 3 6Z" stroke="black" stroke-width="2" stroke-linecap="round" stroke-linejoin="round"/>
<path d="M10 6C10 6.53043 10.2107 7.03914 10.5858 7.41421C10.9609 7.78929 11.4696 8 12 8C12.5304 8 13.0391 7.78929 13.4142 7.41421C13.7893 7.03914 14 6.53043 14 6C14 5.46957 13.7893 4.96086 13.4142 4.58579C13.0391 4.21071 12.5304 4 12 4C11.4696 4 10.9609 4.21071 10.5858 4.58579C10.2107 4.96086 10 5.46957 10 6Z" stroke="black" stroke-width="2" stroke-linecap="round" stroke-linejoin="round"/>
<path d="M17 6C17 6.53043 17.2107 7.03914 17.5858 7.41421C17.9609 7.78929 18.4696 8 19 8C19.5304 8 20.0391 7.78929 20.4142 7.41421C20.7893 7.03914 21 6.53043 21 6C21 5.46957 20.7893 4.96086 20.4142 4.58579C20.0391 4.21071 19.5304 4 19 4C18.4696 4 17.9609 4.21071 17.5858 4.58579C17.2107 4.96086 17 5.46957 17 6Z" stroke="black" stroke-width="2" stroke-linecap="round" stroke-linejoin="round"/>
<path d="M3 18C3 18.5304 3.21071 19.0391 3.58579 19.4142C3.96086 19.7893 4.46957 20 5 20C5.53043 20 6.03914 19.7893 6.41421 19.4142C6.78929 19.0391 7 18.5304 7 18C7 17.4696 6.78929 16.9609 6.41421 16.5858C6.03914 16.2107 5.53043 16 5 16C4.46957 16 3.96086 16.2107 3.58579 16.5858C3.21071 16.9609 3 17.4696 3 18Z" stroke="black" stroke-width="2" stroke-linecap="round" stroke-linejoin="round"/>
<path d="M10 18C10 18.5304 10.2107 19.0391 10.5858 19.4142C10.9609 19.7893 11.4696 20 12 20C12.5304 20 13.0391 19.7893 13.4142 19.4142C13.7893 19.0391 14 18.5304 14 18C14 17.4696 13.7893 16.9609 13.4142 16.5858C13.0391 16.2107 12.5304 16 12 16C11.4696 16 10.9609 16.2107 10.5858 16.5858C10.2107 16.9609 10 17.4696 10 18Z" stroke="black" stroke-width="2" stroke-linecap="round" stroke-linejoin="round"/>
<path d="M5 8V16" stroke="black" stroke-width="2" stroke-linecap="round" stroke-linejoin="round"/>
<path d="M12 8V16" stroke="black" stroke-width="2" stroke-linecap="round" stroke-linejoin="round"/>
<path d="M19 8V10C19 10.5304 18.7893 11.0391 18.4142 11.4142C18.0391 11.7893 17.5304 12 17 12H5" stroke="black" stroke-width="2" stroke-linecap="round" stroke-linejoin="round"/>
</g>
<defs>
<clipPath id="clip0_802_69612">
<rect width="24" height="24" fill="white"/>
</clipPath>
</defs>
</svg>
