<svg width="24" height="24" viewBox="0 0 24 24" fill="none" xmlns="http://www.w3.org/2000/svg">
<g clip-path="url(#clip0_802_69436)">
<path d="M9 11C9 11.7956 9.31607 12.5587 9.87868 13.1213C10.4413 13.6839 11.2044 14 12 14C12.7956 14 13.5587 13.6839 14.1213 13.1213C14.6839 12.5587 15 11.7956 15 11C15 10.2044 14.6839 9.44129 14.1213 8.87868C13.5587 8.31607 12.7956 8 12 8C11.2044 8 10.4413 8.31607 9.87868 8.87868C9.31607 9.44129 9 10.2044 9 11Z" stroke="black" stroke-width="2" stroke-linecap="round" stroke-linejoin="round"/>
<path d="M12.7564 21.3351C12.3917 21.4842 11.9911 21.5223 11.6049 21.4445C11.2187 21.3668 10.864 21.1767 10.5854 20.8981L6.34141 16.6551C5.28587 15.5989 4.547 14.2684 4.20839 12.8141C3.86979 11.3598 3.94498 9.8397 4.42544 8.42589C4.90591 7.01208 5.77247 5.76096 6.92709 4.81409C8.0817 3.86722 9.47828 3.26239 10.9588 3.06805C12.4393 2.87371 13.9447 3.0976 15.3045 3.7144C16.6644 4.3312 17.8245 5.31629 18.6536 6.5582C19.4827 7.80011 19.9476 9.24926 19.9958 10.7417C20.044 12.2341 19.6736 13.7103 18.9264 15.0031" stroke="black" stroke-width="2" stroke-linecap="round" stroke-linejoin="round"/>
<path d="M16 19H22" stroke="black" stroke-width="2" stroke-linecap="round" stroke-linejoin="round"/>
</g>
<defs>
<clipPath id="clip0_802_69436">
<rect width="24" height="24" fill="white"/>
</clipPath>
</defs>
</svg>
