<svg width="24" height="24" viewBox="0 0 24 24" fill="none" xmlns="http://www.w3.org/2000/svg">
<g clip-path="url(#clip0_802_69407)">
<path d="M9 11C9 11.7956 9.31607 12.5587 9.87868 13.1213C10.4413 13.6839 11.2044 14 12 14C12.7956 14 13.5587 13.6839 14.1213 13.1213C14.6839 12.5587 15 11.7956 15 11C15 10.2044 14.6839 9.44129 14.1213 8.87868C13.5587 8.31607 12.7956 8 12 8C11.2044 8 10.4413 8.31607 9.87868 8.87868C9.31607 9.44129 9 10.2044 9 11Z" stroke="black" stroke-width="2" stroke-linecap="round" stroke-linejoin="round"/>
<path d="M14.9967 19.3164L13.4137 20.8994C13.0387 21.274 12.5303 21.4845 12.0002 21.4845C11.4701 21.4845 10.9617 21.274 10.5867 20.8994L6.34267 16.6564C5.41033 15.7239 4.72295 14.5754 4.34169 13.3131C3.96043 12.0507 3.89711 10.7137 4.15737 9.42104C4.41763 8.12834 4.99339 6.92002 5.83344 5.90358C6.67348 4.88715 7.75175 4.09412 8.97231 3.59507C10.1929 3.09601 11.5179 2.9064 12.8294 3.04311C14.1409 3.17982 15.3983 3.63861 16.4897 4.37865C17.5811 5.1187 18.4727 6.11705 19.085 7.28488C19.6974 8.4527 20.0116 9.7538 19.9997 11.0724" stroke="black" stroke-width="2" stroke-linecap="round" stroke-linejoin="round"/>
<path d="M19 22V22.01" stroke="black" stroke-width="2" stroke-linecap="round" stroke-linejoin="round"/>
<path d="M19 18.9998C19.4483 18.9983 19.8832 18.8466 20.235 18.5687C20.5868 18.2909 20.8352 17.903 20.9406 17.4673C21.0459 17.0315 21.0019 16.5731 20.8158 16.1652C20.6297 15.7574 20.3122 15.4238 19.914 15.2178C19.5162 15.014 19.0611 14.9508 18.6228 15.0385C18.1845 15.1262 17.7888 15.3596 17.5 15.7008" stroke="black" stroke-width="2" stroke-linecap="round" stroke-linejoin="round"/>
</g>
<defs>
<clipPath id="clip0_802_69407">
<rect width="24" height="24" fill="white"/>
</clipPath>
</defs>
</svg>
