<svg width="24" height="24" viewBox="0 0 24 24" fill="none" xmlns="http://www.w3.org/2000/svg">
<g clip-path="url(#clip0_802_69441)">
<path d="M15 10.9988C14.9998 10.4477 14.8477 9.90722 14.5605 9.4368C14.2734 8.96637 13.8621 8.58416 13.372 8.3321C12.8818 8.08004 12.3317 7.96788 11.782 8.00793C11.2323 8.04798 10.7043 8.23869 10.2558 8.55913C9.80739 8.87957 9.45589 9.31736 9.23992 9.82444C9.02394 10.3315 8.95184 10.8883 9.03151 11.4337C9.11119 11.979 9.33956 12.4919 9.69158 12.916C10.0436 13.3401 10.5056 13.6591 11.027 13.8378" stroke="black" stroke-width="2" stroke-linecap="round" stroke-linejoin="round"/>
<path d="M11.7597 21.4694C11.3158 21.4165 10.9026 21.2157 10.5867 20.8994L6.34271 16.6564C5.41048 15.724 4.72314 14.5757 4.34184 13.3136C3.96054 12.0514 3.8971 10.7146 4.15716 9.42205C4.41723 8.12948 4.99273 6.92122 5.83247 5.90475C6.67222 4.88828 7.75017 4.09512 8.97045 3.59583C10.1907 3.09653 11.5155 2.90657 12.8269 3.04285C14.1383 3.17914 15.3957 3.63743 16.4873 4.37698C17.5788 5.11652 18.4706 6.11438 19.0834 7.2818C19.6962 8.44921 20.011 9.74999 19.9997 11.0684" stroke="black" stroke-width="2" stroke-linecap="round" stroke-linejoin="round"/>
<path d="M18.0001 21.9996L21.3501 18.7156C21.5556 18.5163 21.719 18.2778 21.8307 18.0142C21.9425 17.7507 22.0003 17.4674 22.0007 17.1812C22.0012 16.8949 21.9443 16.6115 21.8334 16.3476C21.7225 16.0837 21.5599 15.8446 21.3551 15.6446C20.9373 15.236 20.3763 15.0066 19.7918 15.0055C19.2074 15.0044 18.6455 15.2316 18.2261 15.6386L18.0021 15.8586L17.7791 15.6386C17.3613 15.2303 16.8006 15.0011 16.2163 15C15.6321 14.9989 15.0705 15.2259 14.6511 15.6326C14.4456 15.8319 14.2821 16.0703 14.1703 16.3338C14.0585 16.5974 14.0006 16.8806 14 17.1669C13.9994 17.4531 14.0562 17.7366 14.167 18.0005C14.2778 18.2645 14.4404 18.5035 14.6451 18.7036L18.0001 21.9996Z" stroke="black" stroke-width="2" stroke-linecap="round" stroke-linejoin="round"/>
</g>
<defs>
<clipPath id="clip0_802_69441">
<rect width="24" height="24" fill="white"/>
</clipPath>
</defs>
</svg>
