<svg width="24" height="24" viewBox="0 0 24 24" fill="none" xmlns="http://www.w3.org/2000/svg">
<g clip-path="url(#clip0_802_68478)">
<path d="M12.432 17.9491C13.295 19.4931 15.021 19.9251 16.562 19.0611C18.102 18.1961 18.534 16.4671 17.61 14.9231C17.425 14.6141 17.301 14.3671 17.116 14.1831C17.363 14.2431 17.671 14.2431 18.041 14.2431C19.767 14.2431 21 13.0091 21 11.2801C21 9.55011 19.767 8.31511 17.98 8.31511C17.61 8.31511 17.363 8.31511 17.055 8.37711C17.24 8.19211 17.363 7.94511 17.548 7.63711C18.411 6.09211 17.979 4.36311 16.5 3.49911C14.959 2.63411 13.295 3.06611 12.37 4.61011C12.185 4.91911 12.062 5.16611 11.938 5.41311C11.815 5.16611 11.692 4.91911 11.507 4.61011C10.705 3.00511 8.979 2.57211 7.5 3.43711C5.959 4.30211 5.527 6.03111 6.452 7.57411C6.637 7.88411 6.76 8.13011 6.945 8.31511C6.699 8.25411 6.39 8.25411 6.021 8.25411C4.233 8.25411 3 9.48911 3 11.2181C3 12.9471 4.233 14.1821 6.02 14.1821" stroke="black" stroke-width="2" stroke-linecap="round" stroke-linejoin="round"/>
<path d="M4.07422 21C8.36022 18.244 9.97422 15.746 12.0012 12" stroke="black" stroke-width="2" stroke-linecap="round" stroke-linejoin="round"/>
</g>
<defs>
<clipPath id="clip0_802_68478">
<rect width="24" height="24" fill="white"/>
</clipPath>
</defs>
</svg>
