<svg width="24" height="24" viewBox="0 0 24 24" fill="none" xmlns="http://www.w3.org/2000/svg">
<g clip-path="url(#clip0_802_66573)">
<path d="M15 8H15.01" stroke="black" stroke-width="2" stroke-linecap="round" stroke-linejoin="round"/>
<path d="M11.5 21H6C5.20435 21 4.44129 20.6839 3.87868 20.1213C3.31607 19.5587 3 18.7956 3 18V6C3 5.20435 3.31607 4.44129 3.87868 3.87868C4.44129 3.31607 5.20435 3 6 3H18C18.7956 3 19.5587 3.31607 20.1213 3.87868C20.6839 4.44129 21 5.20435 21 6V11" stroke="black" stroke-width="2" stroke-linecap="round" stroke-linejoin="round"/>
<path d="M3 16.0018L8 11.0018C8.928 10.1088 10.072 10.1088 11 11.0018L12.5 12.5018" stroke="black" stroke-width="2" stroke-linecap="round" stroke-linejoin="round"/>
<path d="M18.0001 21.9996L21.3501 18.7156C21.5556 18.5163 21.719 18.2778 21.8307 18.0142C21.9425 17.7507 22.0003 17.4674 22.0007 17.1812C22.0012 16.8949 21.9443 16.6115 21.8334 16.3476C21.7225 16.0837 21.5599 15.8446 21.3551 15.6446C20.9373 15.236 20.3763 15.0066 19.7918 15.0055C19.2074 15.0044 18.6455 15.2316 18.2261 15.6386L18.0021 15.8586L17.7791 15.6386C17.3613 15.2303 16.8006 15.0011 16.2163 15C15.6321 14.9989 15.0705 15.2259 14.6511 15.6326C14.4456 15.8319 14.2821 16.0703 14.1703 16.3338C14.0585 16.5974 14.0006 16.8806 14 17.1669C13.9994 17.4531 14.0562 17.7366 14.167 18.0005C14.2778 18.2645 14.4404 18.5035 14.6451 18.7036L18.0001 21.9996Z" stroke="black" stroke-width="2" stroke-linecap="round" stroke-linejoin="round"/>
</g>
<defs>
<clipPath id="clip0_802_66573">
<rect width="24" height="24" fill="white"/>
</clipPath>
</defs>
</svg>
