<svg width="24" height="24" viewBox="0 0 24 24" fill="none" xmlns="http://www.w3.org/2000/svg">
<g clip-path="url(#clip0_802_66314)">
<path d="M12.7186 20.7134C11.0915 21.1735 9.35769 21.0807 7.78892 20.4497C6.22015 19.8187 4.90504 18.685 4.04966 17.2264C3.19428 15.7678 2.84695 14.0666 3.06211 12.3895C3.27727 10.7123 4.04275 9.15387 5.23862 7.9584L5.95862 7.2384C7.1315 6.06551 8.65411 5.30601 10.2966 5.07457C11.9391 4.84312 13.6123 5.15229 15.0636 5.9554L17.4506 3.6104C17.8308 3.23367 18.3415 3.01798 18.8766 3.00816C19.4117 2.99835 19.93 3.19518 20.3237 3.55771C20.7174 3.92025 20.9562 4.4206 20.9905 4.9547C21.0247 5.4888 20.8518 6.01555 20.5076 6.4254L20.3916 6.5514L18.0456 8.9384C18.821 10.3398 19.1366 11.9494 18.9478 13.5399C18.7591 15.1304 18.0755 16.6214 16.9936 17.8024" stroke="black" stroke-width="2" stroke-linecap="round" stroke-linejoin="round"/>
<path d="M11 18C11 18.394 11.0776 18.7841 11.2284 19.1481C11.3791 19.512 11.6001 19.8427 11.8787 20.1213C12.1573 20.3999 12.488 20.6209 12.8519 20.7716C13.2159 20.9224 13.606 21 14 21C14.394 21 14.7841 20.9224 15.1481 20.7716C15.512 20.6209 15.8427 20.3999 16.1213 20.1213C16.3999 19.8427 16.6209 19.512 16.7716 19.1481C16.9224 18.7841 17 18.394 17 18C17 17.606 16.9224 17.2159 16.7716 16.8519C16.6209 16.488 16.3999 16.1573 16.1213 15.8787C15.8427 15.6001 15.512 15.3791 15.1481 15.2284C14.7841 15.0776 14.394 15 14 15C13.606 15 13.2159 15.0776 12.8519 15.2284C12.488 15.3791 12.1573 15.6001 11.8787 15.8787C11.6001 16.1573 11.3791 16.488 11.2284 16.8519C11.0776 17.2159 11 17.606 11 18Z" stroke="black" stroke-width="2" stroke-linecap="round" stroke-linejoin="round"/>
<path d="M9.30078 5.30078L18.7008 14.7008" stroke="black" stroke-width="2" stroke-linecap="round" stroke-linejoin="round"/>
</g>
<defs>
<clipPath id="clip0_802_66314">
<rect width="24" height="24" fill="white"/>
</clipPath>
</defs>
</svg>
