<svg width="24" height="24" viewBox="0 0 24 24" fill="none" xmlns="http://www.w3.org/2000/svg">
<g clip-path="url(#clip0_802_65655)">
<path d="M8.18 4.17079C8.36936 3.75517 8.69526 3.41689 9.10353 3.21217C9.51179 3.00745 9.97783 2.94864 10.4242 3.0455C10.8705 3.14236 11.2702 3.38906 11.5569 3.74459C11.8436 4.10013 12 4.54307 12 4.99979V5.99979C12 6.265 12.1054 6.51936 12.2929 6.70689C12.4804 6.89443 12.7348 6.99979 13 6.99979H16C16.2652 6.99979 16.5196 7.10514 16.7071 7.29268C16.8946 7.48022 17 7.73457 17 7.99979V10.9998C17 11.265 17.1054 11.5194 17.2929 11.7069C17.4804 11.8944 17.7348 11.9998 18 11.9998H19C19.4579 11.9996 19.9019 12.1565 20.258 12.4443C20.6141 12.7321 20.8607 13.1333 20.9565 13.581C21.0524 14.0287 20.9917 14.4958 20.7847 14.9042C20.5777 15.3125 20.2368 15.6375 19.819 15.8248M17 16.9998V19.9998C17 20.265 16.8946 20.5194 16.7071 20.7069C16.5196 20.8944 16.2652 20.9998 16 20.9998H13C12.7348 20.9998 12.4804 20.8944 12.2929 20.7069C12.1054 20.5194 12 20.265 12 19.9998V18.9998C12 18.4694 11.7893 17.9606 11.4142 17.5856C11.0391 17.2105 10.5304 16.9998 10 16.9998C9.46957 16.9998 8.96086 17.2105 8.58579 17.5856C8.21071 17.9606 8 18.4694 8 18.9998V19.9998C8 20.265 7.89464 20.5194 7.70711 20.7069C7.51957 20.8944 7.26522 20.9998 7 20.9998H4C3.73478 20.9998 3.48043 20.8944 3.29289 20.7069C3.10536 20.5194 3 20.265 3 19.9998V16.9998C3 16.7346 3.10536 16.4802 3.29289 16.2927C3.48043 16.1051 3.73478 15.9998 4 15.9998H5C5.53043 15.9998 6.03914 15.7891 6.41421 15.414C6.78929 15.0389 7 14.5302 7 13.9998C7 13.4694 6.78929 12.9606 6.41421 12.5856C6.03914 12.2105 5.53043 11.9998 5 11.9998H4C3.73478 11.9998 3.48043 11.8944 3.29289 11.7069C3.10536 11.5194 3 11.265 3 10.9998V7.99979C3 7.73457 3.10536 7.48022 3.29289 7.29268C3.48043 7.10514 3.73478 6.99979 4 6.99979H7" stroke="black" stroke-width="2" stroke-linecap="round" stroke-linejoin="round"/>
<path d="M3 3L21 21" stroke="black" stroke-width="2" stroke-linecap="round" stroke-linejoin="round"/>
</g>
<defs>
<clipPath id="clip0_802_65655">
<rect width="24" height="24" fill="white"/>
</clipPath>
</defs>
</svg>
