<svg width="24" height="24" viewBox="0 0 24 24" fill="none" xmlns="http://www.w3.org/2000/svg">
<g clip-path="url(#clip0_802_65586)">
<path d="M11 12C11 12.2652 11.1054 12.5196 11.2929 12.7071C11.4804 12.8946 11.7348 13 12 13C12.2652 13 12.5196 12.8946 12.7071 12.7071C12.8946 12.5196 13 12.2652 13 12C13 11.7348 12.8946 11.4804 12.7071 11.2929C12.5196 11.1054 12.2652 11 12 11C11.7348 11 11.4804 11.1054 11.2929 11.2929C11.1054 11.4804 11 11.7348 11 12Z" stroke="black" stroke-width="2" stroke-linecap="round" stroke-linejoin="round"/>
<path d="M15.5109 15.56C16.3356 14.7467 16.8524 13.6722 16.9729 12.5202C17.0934 11.3682 16.8102 10.2101 16.1716 9.24365C15.5331 8.27725 14.5788 7.56252 13.4719 7.22154C12.3649 6.88057 11.1739 6.93452 10.1022 7.37416C9.0306 7.8138 8.14485 8.61187 7.59629 9.63204C7.04772 10.6522 6.87037 11.8312 7.09453 12.9676C7.31868 14.104 7.93044 15.1273 8.82529 15.8628C9.72015 16.5983 10.8426 17.0002 12.0009 17" stroke="black" stroke-width="2" stroke-linecap="round" stroke-linejoin="round"/>
<path d="M18.8309 17.86C20.1674 16.3021 20.9312 14.3341 20.9956 12.2824C21.06 10.2308 20.4211 8.21873 19.185 6.58002C17.9488 4.94132 16.1896 3.77441 14.1992 3.27283C12.2088 2.77125 10.1067 2.96515 8.24155 3.82236C6.37644 4.67956 4.86039 6.14858 3.94484 7.98575C3.02929 9.82293 2.76926 11.9179 3.20788 13.9231C3.64649 15.9284 4.7574 17.7235 6.35634 19.0106C7.95528 20.2978 9.94619 20.9997 11.9989 21" stroke="black" stroke-width="2" stroke-linecap="round" stroke-linejoin="round"/>
<path d="M12 12V21" stroke="black" stroke-width="2" stroke-linecap="round" stroke-linejoin="round"/>
</g>
<defs>
<clipPath id="clip0_802_65586">
<rect width="24" height="24" fill="white"/>
</clipPath>
</defs>
</svg>
