<svg width="24" height="24" viewBox="0 0 24 24" fill="none" xmlns="http://www.w3.org/2000/svg">
<g clip-path="url(#clip0_802_65460)">
<path d="M5 21V5C5 4.46957 5.21071 3.96086 5.58579 3.58579C5.96086 3.21071 6.46957 3 7 3H17C17.5304 3 18.0391 3.21071 18.4142 3.58579C18.7893 3.96086 19 4.46957 19 5V21L16 19L14 21L12 19L10 21L8 19L5 21Z" stroke="black" stroke-width="2" stroke-linecap="round" stroke-linejoin="round"/>
<path d="M14.8 8.00113C14.6188 7.68689 14.3557 7.42784 14.0386 7.25169C13.7215 7.07554 13.3625 6.98893 13 7.00113H11C10.4696 7.00113 9.96086 7.21185 9.58579 7.58692C9.21071 7.96199 9 8.4707 9 9.00113C9 9.53157 9.21071 10.0403 9.58579 10.4153C9.96086 10.7904 10.4696 11.0011 11 11.0011H13C13.5304 11.0011 14.0391 11.2118 14.4142 11.5869C14.7893 11.962 15 12.4707 15 13.0011C15 13.5316 14.7893 14.0403 14.4142 14.4153C14.0391 14.7904 13.5304 15.0011 13 15.0011H11C10.6375 15.0133 10.2785 14.9267 9.96142 14.7506C9.64435 14.5744 9.38115 14.3154 9.2 14.0011" stroke="black" stroke-width="2" stroke-linecap="round" stroke-linejoin="round"/>
<path d="M12 6V16" stroke="black" stroke-width="2" stroke-linecap="round" stroke-linejoin="round"/>
</g>
<defs>
<clipPath id="clip0_802_65460">
<rect width="24" height="24" fill="white"/>
</clipPath>
</defs>
</svg>
