<svg width="24" height="24" viewBox="0 0 24 24" fill="none" xmlns="http://www.w3.org/2000/svg">
<g clip-path="url(#clip0_802_57587)">
<path d="M19 4C19.7956 4 20.5587 4.31607 21.1213 4.87868C21.6839 5.44129 22 6.20435 22 7V17C22 17.7956 21.6839 18.5587 21.1213 19.1213C20.5587 19.6839 19.7956 20 19 20H5C4.20435 20 3.44129 19.6839 2.87868 19.1213C2.31607 18.5587 2 17.7956 2 17V7C2 6.20435 2.31607 5.44129 2.87868 4.87868C3.44129 4.31607 4.20435 4 5 4H19ZM15.8 9.4C15.223 8.631 14 9.039 14 10V14C14 14.2652 14.1054 14.5196 14.2929 14.7071C14.4804 14.8946 14.7348 15 15 15L15.117 14.993C15.3603 14.9643 15.5845 14.8474 15.7473 14.6644C15.91 14.4813 16 14.2449 16 14V13L17.2 14.6C17.777 15.369 19 14.961 19 14V10C19 9.73478 18.8946 9.48043 18.7071 9.29289C18.5196 9.10536 18.2652 9 18 9L17.883 9.007C17.6397 9.03566 17.4155 9.15259 17.2527 9.33563C17.09 9.51866 17 9.75507 17 10V11L15.8 9.4ZM6.8 9.4C6.223 8.631 5 9.039 5 10V14C5 14.2652 5.10536 14.5196 5.29289 14.7071C5.48043 14.8946 5.73478 15 6 15L6.117 14.993C6.36025 14.9643 6.58453 14.8474 6.74728 14.6644C6.91004 14.4813 6.99997 14.2449 7 14V13L8.2 14.6C8.777 15.369 10 14.961 10 14V10C10 9.73478 9.89464 9.48043 9.70711 9.29289C9.51957 9.10536 9.26522 9 9 9L8.883 9.007C8.63975 9.03566 8.41547 9.15259 8.25272 9.33563C8.08996 9.51866 8.00003 9.75507 8 10V11L6.8 9.4ZM12 12.5C11.7348 12.5 11.4804 12.6054 11.2929 12.7929C11.1054 12.9804 11 13.2348 11 13.5V13.51C11 13.7752 11.1054 14.0296 11.2929 14.2171C11.4804 14.4046 11.7348 14.51 12 14.51C12.2652 14.51 12.5196 14.4046 12.7071 14.2171C12.8946 14.0296 13 13.7752 13 13.51V13.5C13 13.2348 12.8946 12.9804 12.7071 12.7929C12.5196 12.6054 12.2652 12.5 12 12.5ZM12 9.5C11.7348 9.5 11.4804 9.60536 11.2929 9.79289C11.1054 9.98043 11 10.2348 11 10.5V10.51C11 10.7752 11.1054 11.0296 11.2929 11.2171C11.4804 11.4046 11.7348 11.51 12 11.51C12.2652 11.51 12.5196 11.4046 12.7071 11.2171C12.8946 11.0296 13 10.7752 13 10.51V10.5C13 10.2348 12.8946 9.98043 12.7071 9.79289C12.5196 9.60536 12.2652 9.5 12 9.5Z" fill="black"/>
</g>
<defs>
<clipPath id="clip0_802_57587">
<rect width="24" height="24" fill="white"/>
</clipPath>
</defs>
</svg>
