<svg width="24" height="24" viewBox="0 0 24 24" fill="none" xmlns="http://www.w3.org/2000/svg">
<g clip-path="url(#clip0_802_65109)">
<path d="M5.00657 16.478C4.09913 15.6688 3.45896 14.6029 3.17086 13.4217C2.88277 12.2404 2.96035 10.9995 3.39332 9.86338C3.82629 8.72722 4.59423 7.74941 5.59539 7.05949C6.59656 6.36957 7.7837 6.00009 8.99957 6H19.9996" stroke="black" stroke-width="2" stroke-linecap="round" stroke-linejoin="round"/>
<path d="M15 15.5V18.5C15 18.8978 15.158 19.2794 15.4393 19.5607C15.7206 19.842 16.1022 20 16.5 20C16.8978 20 17.2794 19.842 17.5607 19.5607C17.842 19.2794 18 18.8978 18 18.5V15.5C18 15.1022 17.842 14.7206 17.5607 14.4393C17.2794 14.158 16.8978 14 16.5 14C16.1022 14 15.7206 14.158 15.4393 14.4393C15.158 14.7206 15 15.1022 15 15.5Z" stroke="black" stroke-width="2" stroke-linecap="round" stroke-linejoin="round"/>
<path d="M17 9L20 6L17 3" stroke="black" stroke-width="2" stroke-linecap="round" stroke-linejoin="round"/>
<path d="M9 14H10.5C10.8978 14 11.2794 14.158 11.5607 14.4393C11.842 14.7206 12 15.1022 12 15.5C12 15.8978 11.842 16.2794 11.5607 16.5607C11.2794 16.842 10.8978 17 10.5 17M10.5 17H10M10.5 17C10.8978 17 11.2794 17.158 11.5607 17.4393C11.842 17.7206 12 18.1022 12 18.5C12 18.8978 11.842 19.2794 11.5607 19.5607C11.2794 19.842 10.8978 20 10.5 20H9" stroke="black" stroke-width="2" stroke-linecap="round" stroke-linejoin="round"/>
</g>
<defs>
<clipPath id="clip0_802_65109">
<rect width="24" height="24" fill="white"/>
</clipPath>
</defs>
</svg>
