<svg width="24" height="24" viewBox="0 0 24 24" fill="none" xmlns="http://www.w3.org/2000/svg">
<g clip-path="url(#clip0_802_64980)">
<path d="M3 21C4.16482 21 5.30011 20.6334 6.24504 19.9523C7.18998 19.2712 7.89666 18.3101 8.265 17.205L9 15C9.58244 13.2528 10.6999 11.7331 12.194 10.6562C13.6881 9.57936 15.4832 8.99993 17.325 9H21" stroke="black" stroke-width="2" stroke-linecap="round" stroke-linejoin="round"/>
<path d="M20 9V21" stroke="black" stroke-width="2" stroke-linecap="round" stroke-linejoin="round"/>
<path d="M8 21V18" stroke="black" stroke-width="2" stroke-linecap="round" stroke-linejoin="round"/>
<path d="M12 21V11" stroke="black" stroke-width="2" stroke-linecap="round" stroke-linejoin="round"/>
<path d="M16 9.5V21" stroke="black" stroke-width="2" stroke-linecap="round" stroke-linejoin="round"/>
<path d="M15 3H20V6H15V3Z" stroke="black" stroke-width="2" stroke-linecap="round" stroke-linejoin="round"/>
<path d="M6 8L10 5L12 7.5L8 10.5L6.2 10L6 8Z" stroke="black" stroke-width="2" stroke-linecap="round" stroke-linejoin="round"/>
</g>
<defs>
<clipPath id="clip0_802_64980">
<rect width="24" height="24" fill="white"/>
</clipPath>
</defs>
</svg>
