<svg width="24" height="24" viewBox="0 0 24 24" fill="none" xmlns="http://www.w3.org/2000/svg">
<g clip-path="url(#clip0_802_64969)">
<path d="M9 15L12 12M14 10L15 9" stroke="black" stroke-width="2" stroke-linecap="round" stroke-linejoin="round"/>
<path d="M9.14691 9.14453C9.07558 9.2139 9.02666 9.30304 9.00646 9.40047C8.98626 9.49789 8.99571 9.59913 9.03359 9.69114C9.07147 9.78315 9.13604 9.8617 9.21898 9.91666C9.30191 9.97163 9.39941 10.0005 9.49891 9.99953C9.62965 9.99978 9.75529 9.9488 9.84891 9.85753" stroke="black" stroke-width="2" stroke-linecap="round" stroke-linejoin="round"/>
<path d="M14.1469 14.1445C14.0756 14.2139 14.0267 14.303 14.0065 14.4005C13.9863 14.4979 13.9957 14.5991 14.0336 14.6911C14.0715 14.7831 14.136 14.8617 14.219 14.9167C14.3019 14.9716 14.3994 15.0005 14.4989 14.9995C14.6297 14.9998 14.7553 14.9488 14.8489 14.8575" stroke="black" stroke-width="2" stroke-linecap="round" stroke-linejoin="round"/>
<path d="M8.88746 4.89046C9.21243 4.78331 9.50793 4.60184 9.75046 4.36046L10.4505 3.66046C10.6549 3.45486 10.898 3.2917 11.1657 3.18037C11.4334 3.06903 11.7205 3.01172 12.0105 3.01172C12.3004 3.01172 12.5875 3.06903 12.8552 3.18037C13.1229 3.2917 13.366 3.45486 13.5705 3.66046L14.2705 4.36046C14.6825 4.77046 15.2405 5.00046 15.8205 5.00046H16.8205C17.4039 5.00046 17.9635 5.23225 18.3761 5.64483C18.7887 6.05741 19.0205 6.61698 19.0205 7.20046V8.20046C19.0205 8.78046 19.2505 9.33846 19.6605 9.75046L20.3605 10.4505C20.5661 10.6549 20.7292 10.898 20.8406 11.1657C20.9519 11.4334 21.0092 11.7205 21.0092 12.0105C21.0092 12.3004 20.9519 12.5875 20.8406 12.8552C20.7292 13.1229 20.5661 13.366 20.3605 13.5705L19.6605 14.2705C19.4205 14.5118 19.2397 14.8055 19.1325 15.1285M18.3755 18.3765C18.1714 18.5809 17.9291 18.7431 17.6622 18.8536C17.3954 18.9641 17.1093 19.0208 16.8205 19.0205H15.8205C15.2396 19.0208 14.6824 19.2509 14.2705 19.6605L13.5705 20.3605C13.366 20.5661 13.1229 20.7292 12.8552 20.8406C12.5875 20.9519 12.3004 21.0092 12.0105 21.0092C11.7205 21.0092 11.4334 20.9519 11.1657 20.8406C10.898 20.7292 10.6549 20.5661 10.4505 20.3605L9.75046 19.6605C9.33855 19.2509 8.78136 19.0208 8.20046 19.0205H7.20046C6.61698 19.0205 6.05741 18.7887 5.64483 18.3761C5.23225 17.9635 5.00046 17.4039 5.00046 16.8205V15.8205C5.00013 15.2396 4.77006 14.6824 4.36046 14.2705L3.66046 13.5705C3.45486 13.366 3.2917 13.1229 3.18037 12.8552C3.06903 12.5875 3.01172 12.3004 3.01172 12.0105C3.01172 11.7205 3.06903 11.4334 3.18037 11.1657C3.2917 10.898 3.45486 10.6549 3.66046 10.4505L4.36046 9.75046C4.77006 9.33855 5.00013 8.78136 5.00046 8.20046V7.20046C5.00046 6.59646 5.24446 6.04846 5.63846 5.65046" stroke="black" stroke-width="2" stroke-linecap="round" stroke-linejoin="round"/>
<path d="M3 3L21 21" stroke="black" stroke-width="2" stroke-linecap="round" stroke-linejoin="round"/>
</g>
<defs>
<clipPath id="clip0_802_64969">
<rect width="24" height="24" fill="white"/>
</clipPath>
</defs>
</svg>
