<svg width="24" height="24" viewBox="0 0 24 24" fill="none" xmlns="http://www.w3.org/2000/svg">
<g clip-path="url(#clip0_802_64002)">
<path d="M13.0029 20.692C12.6739 20.809 12.3389 20.912 11.9989 21C10.4421 20.5962 8.98234 19.8836 7.7064 18.9045C6.43047 17.9254 5.36437 16.6998 4.57145 15.3005C3.77854 13.9013 3.27499 12.3569 3.09073 10.7592C2.90647 9.16147 3.04527 7.54302 3.49886 6C6.61439 6.14257 9.66303 5.06658 11.9989 3C14.3347 5.06658 17.3833 6.14257 20.4989 6C21.1751 8.30011 21.1469 10.7501 20.4179 13.034" stroke="black" stroke-width="2" stroke-linecap="round" stroke-linejoin="round"/>
<path d="M17 17V22" stroke="black" stroke-width="2" stroke-linecap="round" stroke-linejoin="round"/>
<path d="M21 17V22" stroke="black" stroke-width="2" stroke-linecap="round" stroke-linejoin="round"/>
</g>
<defs>
<clipPath id="clip0_802_64002">
<rect width="24" height="24" fill="white"/>
</clipPath>
</defs>
</svg>
