<svg width="24" height="24" viewBox="0 0 24 24" fill="none" xmlns="http://www.w3.org/2000/svg">
<g clip-path="url(#clip0_802_57521)">
<path d="M11.3265 2.25977C9.68192 3.75718 8.04091 5.25851 6.4035 6.76377C5.7775 7.36377 5.1915 7.97377 4.6295 8.60677C3.63584 9.73479 3.06194 11.1712 3.00473 12.6734C2.94752 14.1755 3.41051 15.6514 4.3155 16.8518L4.4555 17.0288C5.4675 18.2338 7.0165 18.7838 8.5105 18.6028L8.75651 18.5658L8.0505 20.6838C8.00043 20.8341 7.9868 20.9942 8.01074 21.1508C8.03467 21.3074 8.09548 21.4562 8.18816 21.5847C8.28084 21.7132 8.40274 21.8179 8.5438 21.89C8.68486 21.9622 8.84105 21.9998 8.99951 21.9998H14.9995L15.1175 21.9928C15.265 21.9752 15.4067 21.925 15.5323 21.8458C15.6579 21.7666 15.7643 21.6605 15.8438 21.535C15.9233 21.4096 15.9738 21.268 15.9918 21.1206C16.0097 20.9732 15.9946 20.8236 15.9475 20.6828L15.2595 18.6178L15.3635 18.6378C16.9525 18.8878 18.6255 18.2508 19.6835 16.8528C20.5886 15.653 21.0519 14.1777 20.9952 12.6759C20.9386 11.1741 20.3654 9.73791 19.3725 8.60977C18.8104 7.97657 18.2233 7.36609 17.6125 6.77977L12.6745 2.26177C12.4904 2.09355 12.2501 2.00019 12.0007 2C11.7513 1.99982 11.5109 2.09182 11.3265 2.25977Z" fill="black"/>
</g>
<defs>
<clipPath id="clip0_802_57521">
<rect width="24" height="24" fill="white"/>
</clipPath>
</defs>
</svg>
