<svg width="24" height="24" viewBox="0 0 24 24" fill="none" xmlns="http://www.w3.org/2000/svg">
<g clip-path="url(#clip0_802_57236)">
<path d="M11.676 2.001L12 2C19.752 2 22 4.248 22 12L21.995 12.642C21.869 19.877 19.534 22 12 22L11.358 21.995C4.228 21.87 2.063 19.6 2 12.325V12C2 4.357 4.185 2.064 11.676 2.001ZM14 7H10C9.86868 7 9.73864 7.02587 9.61732 7.07612C9.49599 7.12638 9.38575 7.20003 9.29289 7.29289C9.20003 7.38575 9.12638 7.49599 9.07612 7.61732C9.02587 7.73864 9 7.86868 9 8C9 8.13132 9.02587 8.26136 9.07612 8.38268C9.12638 8.50401 9.20003 8.61425 9.29289 8.70711C9.38575 8.79997 9.49599 8.87362 9.61732 8.92388C9.73864 8.97413 9.86868 9 10 9H11V16C11 16.2449 11.09 16.4813 11.2527 16.6644C11.4155 16.8474 11.6397 16.9643 11.883 16.993L12 17C12.2652 17 12.5196 16.8946 12.7071 16.7071C12.8946 16.5196 13 16.2652 13 16V9H14C14.2449 8.99997 14.4813 8.91004 14.6644 8.74728C14.8474 8.58453 14.9643 8.36025 14.993 8.117L15 8C15 7.73478 14.8946 7.48043 14.7071 7.29289C14.5196 7.10536 14.2652 7 14 7Z" fill="black"/>
</g>
<defs>
<clipPath id="clip0_802_57236">
<rect width="24" height="24" fill="white"/>
</clipPath>
</defs>
</svg>
