<svg width="24" height="24" viewBox="0 0 24 24" fill="none" xmlns="http://www.w3.org/2000/svg">
<g clip-path="url(#clip0_802_57197)">
<path d="M11.999 2L12.641 2.005L13.257 2.022L13.556 2.035L14.135 2.069L14.688 2.115C19.375 2.57 21.338 4.448 21.854 9.021L21.884 9.311L21.93 9.864L21.971 10.591L21.977 10.741L21.994 11.358L21.999 12L21.994 12.642L21.977 13.258L21.964 13.557L21.93 14.136L21.884 14.689C21.429 19.376 19.551 21.339 14.978 21.855L14.688 21.885L14.135 21.931L13.408 21.972L13.258 21.978L12.641 21.995L11.999 22L11.357 21.995L10.741 21.978L10.442 21.965L9.863 21.931L9.31 21.885C4.623 21.43 2.66 19.552 2.144 14.979L2.114 14.689L2.068 14.136L2.027 13.409L2.021 13.259L2.004 12.642L2 12.324V11.676L2.004 11.358L2.021 10.742L2.034 10.443L2.068 9.864L2.114 9.311C2.569 4.624 4.447 2.661 9.02 2.145L9.31 2.115L9.863 2.069L10.59 2.028L10.74 2.022L11.357 2.005C11.567 2.002 11.781 2 11.999 2ZM12.999 7H10.999L10.849 7.005C10.3728 7.04078 9.92517 7.24576 9.58697 7.58286C9.24877 7.91996 9.04234 8.36695 9.005 8.843L8.999 9V15L9.004 15.15C9.03978 15.6262 9.24476 16.0738 9.58186 16.412C9.91896 16.7502 10.3659 16.9567 10.842 16.994L10.999 17H12.999L13.149 16.995C13.6252 16.9592 14.0728 16.7542 14.411 16.4171C14.7492 16.08 14.9557 15.6331 14.993 15.157L14.999 15V13L14.994 12.85C14.9582 12.3738 14.7532 11.9262 14.4161 11.588C14.079 11.2498 13.6321 11.0433 13.156 11.006L12.999 11H10.999V9H12.999L13.006 9.117C13.0361 9.3701 13.1617 9.60215 13.3572 9.76574C13.5526 9.92933 13.8032 10.0121 14.0576 9.99717C14.312 9.98224 14.5512 9.8707 14.7262 9.68537C14.9011 9.50003 14.9987 9.25488 14.999 9C14.9992 8.49542 14.8086 8.00943 14.4655 7.63945C14.1224 7.26947 13.6522 7.04284 13.149 7.005L12.999 7ZM12.999 13V15H10.999V13H12.999Z" fill="black"/>
</g>
<defs>
<clipPath id="clip0_802_57197">
<rect width="24" height="24" fill="white"/>
</clipPath>
</defs>
</svg>
