<svg width="24" height="24" viewBox="0 0 24 24" fill="none" xmlns="http://www.w3.org/2000/svg">
<g clip-path="url(#clip0_802_57227)">
<path d="M11.676 2.001L12 2C19.752 2 22 4.248 22 12L21.995 12.642C21.869 19.877 19.534 22 12 22L11.358 21.995C4.228 21.87 2.063 19.6 2 12.325V12C2 4.357 4.185 2.064 11.676 2.001ZM13 7H11C10.4696 7 9.96086 7.21071 9.58579 7.58579C9.21071 7.96086 9 8.46957 9 9V11C9 11.5304 9.21071 12.0391 9.58579 12.4142C9.96086 12.7893 10.4696 13 11 13H13V15H11C11 14.7348 10.8946 14.4804 10.7071 14.2929C10.5196 14.1054 10.2652 14 10 14C9.73478 14 9.48043 14.1054 9.29289 14.2929C9.10536 14.4804 9 14.7348 9 15C9 15.5304 9.21071 16.0391 9.58579 16.4142C9.96086 16.7893 10.4696 17 11 17H13C13.5304 17 14.0391 16.7893 14.4142 16.4142C14.7893 16.0391 15 15.5304 15 15V13C15 12.4696 14.7893 11.9609 14.4142 11.5858C14.0391 11.2107 13.5304 11 13 11H11V9H13L13.007 9.117C13.0371 9.3701 13.1627 9.60215 13.3582 9.76574C13.5536 9.92933 13.8042 10.0121 14.0586 9.99717C14.313 9.98224 14.5522 9.8707 14.7272 9.68537C14.9021 9.50003 14.9997 9.25488 15 9C15 8.46957 14.7893 7.96086 14.4142 7.58579C14.0391 7.21071 13.5304 7 13 7Z" fill="black"/>
</g>
<defs>
<clipPath id="clip0_802_57227">
<rect width="24" height="24" fill="white"/>
</clipPath>
</defs>
</svg>
