<svg width="24" height="24" viewBox="0 0 24 24" fill="none" xmlns="http://www.w3.org/2000/svg">
<g clip-path="url(#clip0_802_57188)">
<path d="M11.999 2L12.641 2.005L13.257 2.022L13.556 2.035L14.135 2.069L14.688 2.115C19.375 2.57 21.338 4.448 21.854 9.021L21.884 9.311L21.93 9.864L21.971 10.591L21.977 10.741L21.994 11.358L21.999 12L21.994 12.642L21.977 13.258L21.964 13.557L21.93 14.136L21.884 14.689C21.429 19.376 19.551 21.339 14.978 21.855L14.688 21.885L14.135 21.931L13.408 21.972L13.258 21.978L12.641 21.995L11.999 22L11.357 21.995L10.741 21.978L10.442 21.965L9.863 21.931L9.31 21.885C4.623 21.43 2.66 19.552 2.144 14.979L2.114 14.689L2.068 14.136L2.027 13.409L2.021 13.259L2.004 12.642L2 12.324V11.676L2.004 11.358L2.021 10.742L2.034 10.443L2.068 9.864L2.114 9.311C2.569 4.624 4.447 2.661 9.02 2.145L9.31 2.115L9.863 2.069L10.59 2.028L10.74 2.022L11.357 2.005C11.567 2.002 11.781 2 11.999 2ZM13.999 7C13.7541 7.00003 13.5177 7.08996 13.3346 7.25272C13.1516 7.41547 13.0347 7.63975 13.006 7.883L12.999 8V11H10.999V8L10.992 7.883C10.9631 7.63995 10.846 7.41594 10.663 7.25341C10.48 7.09088 10.2438 7.00111 9.999 7.00111C9.75424 7.00111 9.51797 7.09088 9.33497 7.25341C9.15196 7.41594 9.03491 7.63995 9.006 7.883L8.999 8V11L9.004 11.15C9.03978 11.6262 9.24476 12.0738 9.58186 12.412C9.91896 12.7502 10.3659 12.9567 10.842 12.994L10.999 13H12.999V16L13.006 16.117C13.0349 16.3601 13.152 16.5841 13.335 16.7466C13.518 16.9091 13.7542 16.9989 13.999 16.9989C14.2438 16.9989 14.48 16.9091 14.663 16.7466C14.846 16.5841 14.9631 16.3601 14.992 16.117L14.999 16V8L14.992 7.883C14.9633 7.63975 14.8464 7.41547 14.6634 7.25272C14.4803 7.08996 14.2439 7.00003 13.999 7Z" fill="black"/>
</g>
<defs>
<clipPath id="clip0_802_57188">
<rect width="24" height="24" fill="white"/>
</clipPath>
</defs>
</svg>
