<svg width="24" height="24" viewBox="0 0 24 24" fill="none" xmlns="http://www.w3.org/2000/svg">
<g clip-path="url(#clip0_802_57194)">
<path d="M11.999 2L12.641 2.005L13.257 2.022L13.556 2.035L14.135 2.069L14.688 2.115C19.375 2.57 21.338 4.448 21.854 9.021L21.884 9.311L21.93 9.864L21.971 10.591L21.977 10.741L21.994 11.358L21.999 12L21.994 12.642L21.977 13.258L21.964 13.557L21.93 14.136L21.884 14.689C21.429 19.376 19.551 21.339 14.978 21.855L14.688 21.885L14.135 21.931L13.408 21.972L13.258 21.978L12.641 21.995L11.999 22L11.357 21.995L10.741 21.978L10.442 21.965L9.863 21.931L9.31 21.885C4.623 21.43 2.66 19.552 2.144 14.979L2.114 14.689L2.068 14.136L2.027 13.409L2.021 13.259L2.004 12.642L2 12.324V11.676L2.004 11.358L2.021 10.742L2.034 10.443L2.068 9.864L2.114 9.311C2.569 4.624 4.447 2.661 9.02 2.145L9.31 2.115L9.863 2.069L10.59 2.028L10.74 2.022L11.357 2.005C11.567 2.002 11.781 2 11.999 2ZM12.999 7H10.999L10.849 7.005C10.3728 7.04078 9.92517 7.24576 9.58697 7.58286C9.24877 7.91996 9.04234 8.36695 9.005 8.843L8.999 9V11L9.004 11.15C9.022 11.386 9.081 11.61 9.174 11.817L9.249 11.969L9.267 11.999L9.249 12.031C9.116 12.271 9.031 12.54 9.006 12.826L8.999 13V15L9.004 15.15C9.03978 15.6262 9.24476 16.0738 9.58186 16.412C9.91896 16.7502 10.3659 16.9567 10.842 16.994L10.999 17H12.999L13.149 16.995C13.6252 16.9592 14.0728 16.7542 14.411 16.4171C14.7492 16.08 14.9557 15.6331 14.993 15.157L14.999 15V13L14.994 12.85C14.9765 12.6195 14.919 12.3938 14.824 12.183L14.749 12.031L14.73 11.999L14.75 11.969C14.8852 11.7238 14.9676 11.453 14.992 11.174L14.999 11V9L14.994 8.85C14.9582 8.37383 14.7532 7.92617 14.4161 7.58797C14.079 7.24977 13.6321 7.04334 13.156 7.006L12.999 7ZM12.999 13V15H10.999V13H12.999ZM12.999 9V11H10.999V9H12.999Z" fill="black"/>
</g>
<defs>
<clipPath id="clip0_802_57194">
<rect width="24" height="24" fill="white"/>
</clipPath>
</defs>
</svg>
