<svg width="24" height="24" viewBox="0 0 24 24" fill="none" xmlns="http://www.w3.org/2000/svg">
<g clip-path="url(#clip0_802_57148)">
<path d="M8.24423 7.34188L1.86423 8.26688L1.75123 8.28988C1.58017 8.33529 1.42423 8.42528 1.29932 8.55068C1.17442 8.67607 1.08503 8.83236 1.04029 9.0036C0.995552 9.17484 0.997058 9.35488 1.04466 9.52535C1.09226 9.69581 1.18425 9.85059 1.31123 9.97388L5.93323 14.4729L4.84323 20.8279L4.83023 20.9379C4.81976 21.1148 4.8565 21.2913 4.93668 21.4494C5.01686 21.6074 5.13761 21.7413 5.28657 21.8374C5.43552 21.9334 5.60732 21.9882 5.78438 21.996C5.96144 22.0038 6.13739 21.9644 6.29423 21.8819L12.0002 18.8819L17.6932 21.8819L17.7932 21.9279C17.9583 21.9929 18.1377 22.0128 18.313 21.9856C18.4883 21.9584 18.6532 21.8851 18.7908 21.7731C18.9284 21.6612 19.0338 21.5146 19.0961 21.3485C19.1583 21.1824 19.1753 21.0027 19.1452 20.8279L18.0542 14.4729L22.6782 9.97288L22.7562 9.88788C22.8677 9.75064 22.9407 9.58633 22.968 9.41167C22.9952 9.23701 22.9757 9.05825 22.9113 8.89361C22.847 8.72896 22.7402 8.58431 22.6017 8.47439C22.4633 8.36447 22.2982 8.29321 22.1232 8.26788L15.7432 7.34188L12.8912 1.56188C12.8087 1.39441 12.6809 1.25339 12.5224 1.15478C12.3639 1.05617 12.1809 1.00391 11.9942 1.00391C11.8075 1.00391 11.6246 1.05617 11.466 1.15478C11.3075 1.25339 11.1798 1.39441 11.0972 1.56188L8.24423 7.34188Z" fill="black"/>
</g>
<defs>
<clipPath id="clip0_802_57148">
<rect width="24" height="24" fill="white"/>
</clipPath>
</defs>
</svg>
