<svg width="24" height="24" viewBox="0 0 24 24" fill="none" xmlns="http://www.w3.org/2000/svg">
<g clip-path="url(#clip0_802_62235)">
<path d="M15 9C15 9.26522 15.1054 9.51957 15.2929 9.70711C15.4804 9.89464 15.7348 10 16 10C16.2652 10 16.5196 9.89464 16.7071 9.70711C16.8946 9.51957 17 9.26522 17 9C17 8.73478 16.8946 8.48043 16.7071 8.29289C16.5196 8.10536 16.2652 8 16 8C15.7348 8 15.4804 8.10536 15.2929 8.29289C15.1054 8.48043 15 8.73478 15 9Z" stroke="black" stroke-width="2" stroke-linecap="round" stroke-linejoin="round"/>
<path d="M6 11L10 9L13.5 12L12 14" stroke="black" stroke-width="2" stroke-linecap="round" stroke-linejoin="round"/>
<path d="M3 16.7505C3.31129 16.9053 3.65249 16.9906 4 17.0005C4.3895 17.0087 4.77512 16.9219 5.12358 16.7477C5.47203 16.5735 5.77283 16.317 6 16.0005C6.22717 15.684 6.52797 15.4276 6.87642 15.2534C7.22488 15.0791 7.6105 14.9924 8 15.0005C8.3895 14.9924 8.77512 15.0791 9.12358 15.2534C9.47203 15.4276 9.77283 15.684 10 16.0005C10.2272 16.317 10.528 16.5735 10.8764 16.7477C11.2249 16.9219 11.6105 17.0087 12 17.0005C12.3895 17.0087 12.7751 16.9219 13.1236 16.7477C13.472 16.5735 13.7728 16.317 14 16.0005C14.2272 15.684 14.528 15.4276 14.8764 15.2534C15.2249 15.0791 15.6105 14.9924 16 15.0005C16.3895 14.9924 16.7751 15.0791 17.1236 15.2534C17.472 15.4276 17.7728 15.684 18 16.0005C18.2272 16.317 18.528 16.5735 18.8764 16.7477C19.2249 16.9219 19.6105 17.0087 20 17.0005C20.3475 16.9906 20.6887 16.9053 21 16.7505" stroke="black" stroke-width="2" stroke-linecap="round" stroke-linejoin="round"/>
</g>
<defs>
<clipPath id="clip0_802_62235">
<rect width="24" height="24" fill="white"/>
</clipPath>
</defs>
</svg>
