<svg width="24" height="24" viewBox="0 0 24 24" fill="none" xmlns="http://www.w3.org/2000/svg">
<g clip-path="url(#clip0_802_62220)">
<path d="M4 12C4 10.9391 4.42143 9.92172 5.17157 9.17157C5.92172 8.42143 6.93913 8 8 8C9.06087 8 10.0783 8.42143 10.8284 9.17157C11.5786 9.92172 12 10.9391 12 12C12 13.0609 11.5786 14.0783 10.8284 14.8284C10.0783 15.5786 9.06087 16 8 16C6.93913 16 5.92172 15.5786 5.17157 14.8284C4.42143 14.0783 4 13.0609 4 12Z" stroke="black" stroke-width="2" stroke-linecap="round" stroke-linejoin="round"/>
<path d="M12 12H20" stroke="black" stroke-width="2" stroke-linecap="round" stroke-linejoin="round"/>
<path d="M17 15L20 12L17 9" stroke="black" stroke-width="2" stroke-linecap="round" stroke-linejoin="round"/>
</g>
<defs>
<clipPath id="clip0_802_62220">
<rect width="24" height="24" fill="white"/>
</clipPath>
</defs>
</svg>
