<svg width="24" height="24" viewBox="0 0 24 24" fill="none" xmlns="http://www.w3.org/2000/svg">
<g clip-path="url(#clip0_802_61661)">
<path d="M8.56063 3.69141C7.46871 4.14339 6.47649 4.806 5.64062 5.64141" stroke="black" stroke-width="2" stroke-linecap="round" stroke-linejoin="round"/>
<path d="M3.69 8.55859C3.23656 9.64889 3.0021 10.8178 3 11.9986" stroke="black" stroke-width="2" stroke-linecap="round" stroke-linejoin="round"/>
<path d="M3.69141 15.4414C4.14339 16.5333 4.806 17.5255 5.64141 18.3614" stroke="black" stroke-width="2" stroke-linecap="round" stroke-linejoin="round"/>
<path d="M8.55859 20.3086C9.64889 20.762 10.8178 20.9965 11.9986 20.9986" stroke="black" stroke-width="2" stroke-linecap="round" stroke-linejoin="round"/>
<path d="M15.4414 20.3094C16.5333 19.8574 17.5255 19.1948 18.3614 18.3594" stroke="black" stroke-width="2" stroke-linecap="round" stroke-linejoin="round"/>
<path d="M20.3086 15.44C20.762 14.3497 20.9965 13.1808 20.9986 12" stroke="black" stroke-width="2" stroke-linecap="round" stroke-linejoin="round"/>
<path d="M20.3094 8.56063C19.8574 7.46871 19.1948 6.47649 18.3594 5.64062" stroke="black" stroke-width="2" stroke-linecap="round" stroke-linejoin="round"/>
<path d="M15.44 3.69C14.3497 3.23656 13.1808 3.0021 12 3" stroke="black" stroke-width="2" stroke-linecap="round" stroke-linejoin="round"/>
<path d="M10 12C10 12.5304 10.2107 13.0391 10.5858 13.4142C10.9609 13.7893 11.4696 14 12 14C12.5304 14 13.0391 13.7893 13.4142 13.4142C13.7893 13.0391 14 12.5304 14 12C14 11.4696 13.7893 10.9609 13.4142 10.5858C13.0391 10.2107 12.5304 10 12 10C11.4696 10 10.9609 10.2107 10.5858 10.5858C10.2107 10.9609 10 11.4696 10 12Z" stroke="black" stroke-width="2" stroke-linecap="round" stroke-linejoin="round"/>
</g>
<defs>
<clipPath id="clip0_802_61661">
<rect width="24" height="24" fill="white"/>
</clipPath>
</defs>
</svg>
