<svg width="24" height="24" viewBox="0 0 24 24" fill="none" xmlns="http://www.w3.org/2000/svg">
<g clip-path="url(#clip0_802_61672)">
<path d="M8.56138 3.69141C8.36601 3.77227 8.17356 3.85999 7.98438 3.95441" stroke="black" stroke-width="2" stroke-linecap="round" stroke-linejoin="round"/>
<path d="M3.69 8.55859C3.23656 9.64889 3.0021 10.8178 3 11.9986" stroke="black" stroke-width="2" stroke-linecap="round" stroke-linejoin="round"/>
<path d="M3.69141 15.4414C4.14339 16.5333 4.806 17.5255 5.64141 18.3614" stroke="black" stroke-width="2" stroke-linecap="round" stroke-linejoin="round"/>
<path d="M8.55859 20.3086C9.64889 20.762 10.8178 20.9965 11.9986 20.9986" stroke="black" stroke-width="2" stroke-linecap="round" stroke-linejoin="round"/>
<path d="M15.4414 20.3094C16.5333 19.8574 17.5255 19.1948 18.3614 18.3594" stroke="black" stroke-width="2" stroke-linecap="round" stroke-linejoin="round"/>
<path d="M20.3086 15.44C20.762 14.3497 20.9965 13.1808 20.9986 12" stroke="black" stroke-width="2" stroke-linecap="round" stroke-linejoin="round"/>
<path d="M20.3094 8.56063C19.8574 7.46871 19.1948 6.47649 18.3594 5.64062" stroke="black" stroke-width="2" stroke-linecap="round" stroke-linejoin="round"/>
<path d="M15.44 3.69C14.3497 3.23656 13.1808 3.0021 12 3" stroke="black" stroke-width="2" stroke-linecap="round" stroke-linejoin="round"/>
<path d="M10.5692 10.6016C10.1986 10.9811 9.99386 11.4923 10.0001 12.0227C10.0064 12.5532 10.2232 13.0594 10.6027 13.4301C10.9822 13.8007 11.4934 14.0054 12.0239 13.9991C12.5543 13.9928 13.0606 13.7761 13.4312 13.3966" stroke="black" stroke-width="2" stroke-linecap="round" stroke-linejoin="round"/>
<path d="M3 3L21 21" stroke="black" stroke-width="2" stroke-linecap="round" stroke-linejoin="round"/>
</g>
<defs>
<clipPath id="clip0_802_61672">
<rect width="24" height="24" fill="white"/>
</clipPath>
</defs>
</svg>
