<svg width="24" height="24" viewBox="0 0 24 24" fill="none" xmlns="http://www.w3.org/2000/svg">
<g clip-path="url(#clip0_802_61494)">
<path d="M4.27 4.28125C3.502 5.55125 3 7.64025 3 10.0012C3 13.8672 4.343 17.0012 6 17.0012C7.657 17.0012 9 13.8672 9 10.0012C9 9.66125 8.99 9.32925 8.97 9.00125" stroke="black" stroke-width="2" stroke-linecap="round" stroke-linejoin="round"/>
<path d="M21 10C21 6.134 19.657 3 18 3" stroke="black" stroke-width="2" stroke-linecap="round" stroke-linejoin="round"/>
<path d="M7 3H18" stroke="black" stroke-width="2" stroke-linecap="round" stroke-linejoin="round"/>
<path d="M21 10V17M19.487 19.496L18 19L15 21L12 18L9 20V10" stroke="black" stroke-width="2" stroke-linecap="round" stroke-linejoin="round"/>
<path d="M6 10H6.01" stroke="black" stroke-width="2" stroke-linecap="round" stroke-linejoin="round"/>
<path d="M3 3L21 21" stroke="black" stroke-width="2" stroke-linecap="round" stroke-linejoin="round"/>
</g>
<defs>
<clipPath id="clip0_802_61494">
<rect width="24" height="24" fill="white"/>
</clipPath>
</defs>
</svg>
