<svg width="24" height="24" viewBox="0 0 24 24" fill="none" xmlns="http://www.w3.org/2000/svg">
<g clip-path="url(#clip0_802_60353)">
<path d="M15 9.99865L19.553 7.72265C19.7054 7.64649 19.8748 7.61053 20.045 7.6182C20.2152 7.62587 20.3806 7.6769 20.5256 7.76646C20.6706 7.85602 20.7902 7.98113 20.8733 8.12993C20.9563 8.27872 20.9999 8.44626 21 8.61665V15.3807C20.9999 15.551 20.9563 15.7186 20.8733 15.8674C20.7902 16.0162 20.6706 16.1413 20.5256 16.2308C20.3806 16.3204 20.2152 16.3714 20.045 16.3791C19.8748 16.3868 19.7054 16.3508 19.553 16.2747L15 13.9987V9.99865Z" stroke="black" stroke-width="2" stroke-linecap="round" stroke-linejoin="round"/>
<path d="M3 8C3 7.46957 3.21071 6.96086 3.58579 6.58579C3.96086 6.21071 4.46957 6 5 6H13C13.5304 6 14.0391 6.21071 14.4142 6.58579C14.7893 6.96086 15 7.46957 15 8V16C15 16.5304 14.7893 17.0391 14.4142 17.4142C14.0391 17.7893 13.5304 18 13 18H5C4.46957 18 3.96086 17.7893 3.58579 17.4142C3.21071 17.0391 3 16.5304 3 16V8Z" stroke="black" stroke-width="2" stroke-linecap="round" stroke-linejoin="round"/>
<path d="M7 12H11" stroke="black" stroke-width="2" stroke-linecap="round" stroke-linejoin="round"/>
<path d="M9 10V14" stroke="black" stroke-width="2" stroke-linecap="round" stroke-linejoin="round"/>
</g>
<defs>
<clipPath id="clip0_802_60353">
<rect width="24" height="24" fill="white"/>
</clipPath>
</defs>
</svg>
