<svg width="24" height="24" viewBox="0 0 24 24" fill="none" xmlns="http://www.w3.org/2000/svg">
<g clip-path="url(#clip0_802_59704)">
<path d="M20.8758 10.5101C20.5844 8.77383 19.7901 7.16118 18.5913 5.87181C17.3925 4.58245 15.8419 3.67299 14.1315 3.25604C12.421 2.83909 10.6258 2.93297 8.96816 3.52604C7.31052 4.11912 5.86322 5.18535 4.80547 6.59272C3.74772 8.00009 3.12597 9.68678 3.0172 11.444C2.90843 13.2012 3.31742 14.9516 4.19353 16.4787C5.06964 18.0058 6.37439 19.2424 7.94624 20.0354C9.51809 20.8283 11.288 21.1429 13.0368 20.9401" stroke="black" stroke-width="2" stroke-linecap="round" stroke-linejoin="round"/>
<path d="M3.60156 9H20.4016" stroke="black" stroke-width="2" stroke-linecap="round" stroke-linejoin="round"/>
<path d="M3.60156 15H13.5016" stroke="black" stroke-width="2" stroke-linecap="round" stroke-linejoin="round"/>
<path d="M11.4997 3C9.81501 5.69961 8.92188 8.81787 8.92188 12C8.92188 15.1821 9.81501 18.3004 11.4997 21" stroke="black" stroke-width="2" stroke-linecap="round" stroke-linejoin="round"/>
<path d="M12.5 3C14.189 5.70505 15.0824 8.83094 15.078 12.02" stroke="black" stroke-width="2" stroke-linecap="round" stroke-linejoin="round"/>
<path d="M21 15H18.5C18.1022 15 17.7206 15.158 17.4393 15.4393C17.158 15.7206 17 16.1022 17 16.5C17 16.8978 17.158 17.2794 17.4393 17.5607C17.7206 17.842 18.1022 18 18.5 18H19.5C19.8978 18 20.2794 18.158 20.5607 18.4393C20.842 18.7206 21 19.1022 21 19.5C21 19.8978 20.842 20.2794 20.5607 20.5607C20.2794 20.842 19.8978 21 19.5 21H17" stroke="black" stroke-width="2" stroke-linecap="round" stroke-linejoin="round"/>
<path d="M19 21V22M19 14V15" stroke="black" stroke-width="2" stroke-linecap="round" stroke-linejoin="round"/>
</g>
<defs>
<clipPath id="clip0_802_59704">
<rect width="24" height="24" fill="white"/>
</clipPath>
</defs>
</svg>
