<svg width="24" height="24" viewBox="0 0 24 24" fill="none" xmlns="http://www.w3.org/2000/svg">
<g clip-path="url(#clip0_802_57038)">
<path d="M12 2C17.523 2 22 6.477 22 12C22 17.523 17.523 22 12 22C6.477 22 2 17.523 2 12C2 6.477 6.477 2 12 2ZM15.6 7.2C15.4949 7.12121 15.3754 7.06388 15.2482 7.03129C15.121 6.99869 14.9886 6.99148 14.8586 7.01005C14.7286 7.02862 14.6035 7.07262 14.4905 7.13953C14.3775 7.20643 14.2788 7.29494 14.2 7.4L12 10.333L9.8 7.4C9.72121 7.29494 9.62249 7.20643 9.50949 7.13953C9.39649 7.07262 9.27142 7.02862 9.14142 7.01005C9.01142 6.99148 8.87903 6.99869 8.75182 7.03129C8.62461 7.06388 8.50506 7.12121 8.4 7.2C8.29494 7.27879 8.20643 7.37751 8.13953 7.49051C8.07262 7.60351 8.02862 7.72858 8.01005 7.85858C7.99148 7.98858 7.99869 8.12097 8.03129 8.24818C8.06388 8.37539 8.12121 8.49494 8.2 8.6L10.75 12L8.2 15.4C8.04087 15.6122 7.97254 15.8789 8.01005 16.1414C8.04756 16.404 8.18783 16.6409 8.4 16.8C8.61217 16.9591 8.87887 17.0275 9.14142 16.99C9.40397 16.9524 9.64087 16.8122 9.8 16.6L12 13.667L14.2 16.6C14.3591 16.8122 14.596 16.9524 14.8586 16.99C15.1211 17.0275 15.3878 16.9591 15.6 16.8C15.8122 16.6409 15.9524 16.404 15.9899 16.1414C16.0275 15.8789 15.9591 15.6122 15.8 15.4L13.25 12L15.8 8.6C15.8788 8.49494 15.9361 8.37539 15.9687 8.24818C16.0013 8.12097 16.0085 7.98858 15.9899 7.85858C15.9714 7.72858 15.9274 7.60351 15.8605 7.49051C15.7936 7.37751 15.7051 7.27879 15.6 7.2Z" fill="black"/>
</g>
<defs>
<clipPath id="clip0_802_57038">
<rect width="24" height="24" fill="white"/>
</clipPath>
</defs>
</svg>
