<svg width="24" height="24" viewBox="0 0 24 24" fill="none" xmlns="http://www.w3.org/2000/svg">
<g clip-path="url(#clip0_802_56996)">
<path d="M14 3.07185C14.9525 3.62179 15.7813 4.36223 16.4348 5.24691C17.0882 6.13159 17.5522 7.14151 17.7978 8.21359C18.0434 9.28567 18.0653 10.3969 17.8621 11.4778C17.659 12.5587 17.2351 13.5861 16.617 14.4958L21.561 19.4388C21.8363 19.7101 21.9962 20.0771 22.0075 20.4634C22.0188 20.8496 21.8806 21.2254 21.6217 21.5122C21.3628 21.7991 21.0032 21.975 20.6178 22.0033C20.2324 22.0315 19.851 21.9099 19.553 21.6638L19.439 21.5608L14.496 16.6168C13.3134 17.4201 11.9371 17.8918 10.5104 17.9829C9.08367 18.0739 7.65861 17.781 6.38348 17.1346C5.10835 16.4881 4.02975 15.5118 3.25989 14.3071C2.49004 13.1025 2.05706 11.7136 2.006 10.2848L2 9.99985L2.005 9.71485C2.05419 8.33559 2.45937 6.99253 3.18115 5.81618C3.90292 4.63983 4.91675 3.67022 6.12409 3.00157C7.33143 2.33293 8.69122 1.98801 10.0713 2.00032C11.4514 2.01263 12.8048 2.38177 14 3.07185ZM13 8.99985H7L6.883 9.00684C6.63995 9.03576 6.41594 9.1528 6.25341 9.33581C6.09088 9.51882 6.00111 9.75508 6.00111 9.99985C6.00111 10.2446 6.09088 10.4809 6.25341 10.6639C6.41594 10.8469 6.63995 10.9639 6.883 10.9928L7 10.9998H13L13.117 10.9928C13.36 10.9639 13.5841 10.8469 13.7466 10.6639C13.9091 10.4809 13.9989 10.2446 13.9989 9.99985C13.9989 9.75508 13.9091 9.51882 13.7466 9.33581C13.5841 9.1528 13.36 9.03576 13.117 9.00684L13 8.99985Z" fill="black"/>
</g>
<defs>
<clipPath id="clip0_802_56996">
<rect width="24" height="24" fill="white"/>
</clipPath>
</defs>
</svg>
